<svg width="1214" height="224" viewBox="0 0 1214 224" fill="none" xmlns="http://www.w3.org/2000/svg">
<rect x="30" width="938" height="224" rx="6" fill="#1A1A1A"/>
<path d="M301.104 174.962V167.992H308.489C308.628 168.017 308.767 168.03 308.905 168.03C309.079 168.005 309.252 167.98 309.425 167.954C309.946 167.904 310.414 167.791 310.83 167.615C311.246 167.44 311.454 167.226 311.454 166.975C311.454 166.874 311.385 166.749 311.246 166.598C311.107 166.422 310.899 166.246 310.622 166.071C310.587 166.02 310.535 165.983 310.466 165.958C310.431 165.907 310.379 165.87 310.31 165.845C309.894 165.644 309.478 165.443 309.061 165.242C308.68 165.016 308.316 164.79 307.969 164.564C305.958 163.458 304.311 162.316 303.028 161.135C301.745 159.954 301.104 158.56 301.104 156.953C301.104 156.928 301.087 156.903 301.052 156.878C301.052 156.852 301.052 156.815 301.052 156.765C301.052 156.739 301.035 156.714 301 156.689C301 156.664 301 156.639 301 156.614C301 155.107 301.641 153.964 302.924 153.185C304.207 152.407 305.611 151.854 307.137 151.527C308.004 151.327 308.853 151.201 309.686 151.151C310.518 151.075 311.228 151.038 311.818 151.038L321.856 151V157.443H314.835C314.072 157.468 313.448 157.568 312.962 157.744C312.511 157.92 312.286 158.121 312.286 158.347C312.286 158.447 312.338 158.573 312.442 158.724C312.581 158.874 312.771 159.025 313.014 159.176C313.049 159.201 313.101 159.239 313.17 159.289C313.24 159.314 313.309 159.352 313.378 159.402C313.552 159.502 313.725 159.603 313.898 159.703C314.106 159.804 314.314 159.904 314.522 160.005C314.626 160.08 314.73 160.155 314.835 160.231C314.973 160.281 315.095 160.331 315.199 160.381C317.106 161.411 318.839 162.491 320.4 163.622C321.96 164.752 322.827 166.133 323 167.766V168.557C323 170.717 321.873 172.312 319.619 173.342C317.4 174.347 314.956 174.9 312.286 175C312.147 175 312.009 175 311.87 175C311.731 175 311.593 175 311.454 175L301.104 174.962Z" fill="white"/>
<path d="M328 165.341C328 162.824 329.116 160.637 331.349 158.782C333.581 156.927 336.338 156 339.619 156C343.408 156 346.402 156.941 348.6 158.822C350.833 160.677 351.966 162.731 352 164.983C352 165.01 352 165.036 352 165.063C352 165.063 352 165.076 352 165.103C352 168.203 350.731 170.614 348.194 172.337C345.691 174.059 342.934 174.947 339.924 175C339.856 175 339.789 175 339.721 175C339.687 175 339.653 175 339.619 175C339.078 175 338.503 174.96 337.894 174.881C337.285 174.801 336.677 174.682 336.068 174.523C334.038 173.967 332.178 172.933 330.486 171.423C328.829 169.912 328 167.898 328 165.381V165.341ZM337.032 165.341C337.032 166.083 337.319 166.666 337.894 167.09C338.503 167.487 339.163 167.699 339.873 167.726C339.907 167.726 339.924 167.726 339.924 167.726C339.958 167.726 339.992 167.726 340.025 167.726C340.736 167.726 341.378 167.527 341.953 167.13C342.562 166.706 342.867 166.123 342.867 165.381C342.867 164.745 342.613 164.255 342.106 163.91C341.632 163.539 341.091 163.314 340.482 163.234C340.414 163.208 340.33 163.195 340.228 163.195C340.161 163.195 340.093 163.195 340.025 163.195C339.992 163.195 339.958 163.195 339.924 163.195C339.924 163.195 339.907 163.195 339.873 163.195C339.163 163.221 338.503 163.433 337.894 163.831C337.319 164.202 337.032 164.718 337.032 165.381V165.341Z" fill="white"/>
<path d="M374 174.999H369.674C365.466 175.025 362.293 174.122 360.156 172.29C358.052 170.458 357 168.445 357 166.251C357 166.174 357 166.109 357 166.058C357 165.98 357 165.903 357 165.826C357.136 163.632 358.289 161.619 360.461 159.787C362.667 157.955 365.856 157.039 370.03 157.039L374 157V163.387H369.674C368.758 163.413 368.011 163.684 367.434 164.2C366.857 164.716 366.518 165.271 366.416 165.864C366.416 165.916 366.416 165.967 366.416 166.019C366.416 166.071 366.416 166.122 366.416 166.174C366.416 166.2 366.416 166.238 366.416 166.29C366.416 166.316 366.416 166.342 366.416 166.367C366.484 166.961 366.789 167.503 367.332 167.993C367.909 168.484 368.69 168.729 369.674 168.729L374 168.69V174.999Z" fill="white"/>
<path d="M378.358 175V157.681H388.181V175H378.358ZM378 151.857C378 150.649 378.546 149.71 379.637 149.041C380.729 148.347 382.008 148 383.474 148C383.645 148 383.798 148.013 383.935 148.039C384.105 148.039 384.259 148.051 384.395 148.077C385.555 148.206 386.612 148.604 387.567 149.273C388.522 149.941 389 150.816 389 151.896V152.127C389 153.387 388.454 154.364 387.363 155.059C386.271 155.727 385.078 156.087 383.781 156.139C383.713 156.139 383.645 156.139 383.577 156.139C383.543 156.139 383.509 156.139 383.474 156.139C382.11 156.139 380.848 155.791 379.688 155.097C378.563 154.377 378 153.31 378 151.896V151.857Z" fill="white"/>
<path d="M419 162.769L406.947 167.915L404.211 164.194L408.789 162.215C408.579 162.083 408.333 161.951 408.053 161.819C407.807 161.687 407.544 161.594 407.263 161.542C407.158 161.515 407.053 161.502 406.947 161.502C406.842 161.476 406.737 161.462 406.632 161.462C406.561 161.462 406.474 161.476 406.368 161.502C406.298 161.502 406.211 161.502 406.105 161.502C405.263 161.634 404.491 162.043 403.789 162.729C403.088 163.389 402.737 164.167 402.737 165.065C402.737 166.278 403.175 167.242 404.053 167.954C404.965 168.64 406.07 168.983 407.368 168.983C407.86 168.983 408.386 168.931 408.947 168.825C409.509 168.693 410.07 168.522 410.632 168.31C411.158 168.099 411.667 167.849 412.158 167.558C412.684 167.268 413.176 166.925 413.632 166.529L419 170.448C417.807 171.767 416.211 172.81 414.211 173.575C412.211 174.34 410.123 174.802 407.947 174.96C407.702 174.96 407.456 174.96 407.211 174.96C407 174.987 406.772 175 406.526 175C403.509 175 400.719 174.287 398.158 172.862C395.632 171.437 394.281 169.142 394.105 165.975C394.105 165.949 394.088 165.922 394.053 165.896C394.053 165.843 394.053 165.79 394.053 165.737C394.053 165.685 394.035 165.645 394 165.619C394 165.566 394 165.526 394 165.5C394 162.782 395 160.658 397 159.127C399 157.597 401.193 156.633 403.579 156.237C404 156.158 404.421 156.106 404.842 156.079C405.298 156.026 405.737 156 406.158 156C409.912 156 412.754 156.686 414.684 158.058C416.614 159.404 418.053 160.988 419 162.808V162.769Z" fill="white"/>
<path d="M439.29 149H449V163.682C449 167.138 448.011 169.895 446.033 171.953C444.055 173.984 440.657 175 435.838 175C432.314 175 429.293 174.09 426.776 172.269C424.259 170.423 423 168.141 423 165.423C423 165.397 423 165.357 423 165.304C423.036 165.252 423.054 165.199 423.054 165.146C423.054 165.093 423.054 165.041 423.054 164.988C423.09 164.935 423.108 164.895 423.108 164.869C423.288 161.888 424.492 159.659 426.722 158.181C428.952 156.677 431.811 155.925 435.299 155.925C435.622 155.925 435.964 155.939 436.324 155.965C436.683 155.965 437.043 155.991 437.402 156.044C437.546 156.044 437.672 156.057 437.78 156.084C437.924 156.084 438.05 156.084 438.158 156.084V162.851C438.05 162.851 437.924 162.851 437.78 162.851C437.672 162.851 437.564 162.838 437.456 162.811C437.241 162.811 437.025 162.811 436.809 162.811C436.629 162.785 436.467 162.772 436.324 162.772C435.029 162.772 434.04 163.036 433.357 163.563C432.674 164.091 432.332 164.83 432.332 165.779C432.332 166.465 432.656 167.019 433.303 167.441C433.95 167.837 434.669 168.035 435.461 168.035C435.533 168.035 435.604 168.035 435.676 168.035C435.748 168.035 435.82 168.035 435.892 168.035C436.719 167.956 437.492 167.679 438.212 167.204C438.931 166.703 439.29 166.017 439.29 165.146V149Z" fill="white"/>
<path d="M467.996 168.038V174.846C467.826 174.897 467.638 174.923 467.433 174.923C467.228 174.923 467.041 174.923 466.87 174.923C466.529 174.949 466.205 174.962 465.898 174.962C465.591 174.987 465.301 175 465.028 175C461.581 175 458.715 174.205 456.429 172.615C454.143 171.026 453 168.846 453 166.077C453 163.077 454.263 160.821 456.787 159.308C459.312 157.769 462.332 157 465.846 157C469.77 157 472.824 157.897 475.008 159.692C477.192 161.462 478.471 163.423 478.846 165.577C478.915 165.808 478.949 166.038 478.949 166.269C478.983 166.5 479 166.731 479 166.962V174.846H469.48V166.038C469.48 165.218 469.139 164.603 468.457 164.192C467.774 163.782 467.007 163.551 466.154 163.5C466.12 163.5 466.068 163.5 466 163.5C465.966 163.5 465.932 163.5 465.898 163.5C465.864 163.5 465.829 163.5 465.795 163.5C465.795 163.5 465.778 163.5 465.744 163.5C464.925 163.526 464.175 163.744 463.492 164.154C462.81 164.538 462.468 165.09 462.468 165.808C462.468 166.603 462.759 167.269 463.339 167.808C463.919 168.346 464.652 168.615 465.539 168.615C465.778 168.615 466.034 168.59 466.307 168.538C466.58 168.487 466.853 168.423 467.126 168.346C467.297 168.321 467.45 168.282 467.587 168.231C467.723 168.179 467.86 168.128 467.996 168.077V168.038Z" fill="white"/>
<path d="M498.664 149H508V163.682C508 167.138 507.049 169.895 505.147 171.953C503.245 173.984 499.978 175 495.344 175C491.956 175 489.051 174.09 486.631 172.269C484.21 170.423 483 168.141 483 165.423C483 165.397 483 165.357 483 165.304C483.035 165.252 483.052 165.199 483.052 165.146C483.052 165.093 483.052 165.041 483.052 164.988C483.086 164.935 483.104 164.895 483.104 164.869C483.277 161.888 484.435 159.659 486.579 158.181C488.723 156.677 491.472 155.925 494.826 155.925C495.137 155.925 495.465 155.939 495.811 155.965C496.157 155.965 496.503 155.991 496.849 156.044C496.987 156.044 497.108 156.057 497.212 156.084C497.35 156.084 497.471 156.084 497.575 156.084V162.851C497.471 162.851 497.35 162.851 497.212 162.851C497.108 162.851 497.004 162.838 496.9 162.811C496.693 162.811 496.486 162.811 496.278 162.811C496.105 162.785 495.95 162.772 495.811 162.772C494.566 162.772 493.615 163.036 492.958 163.563C492.301 164.091 491.973 164.83 491.973 165.779C491.973 166.465 492.284 167.019 492.907 167.441C493.529 167.837 494.221 168.035 494.981 168.035C495.05 168.035 495.12 168.035 495.189 168.035C495.258 168.035 495.327 168.035 495.396 168.035C496.192 167.956 496.935 167.679 497.627 167.204C498.318 166.703 498.664 166.017 498.664 165.146V149Z" fill="white"/>
<path d="M535 178V160.785C535 160.337 535.068 159.836 535.203 159.282C535.373 158.728 535.61 158.16 535.915 157.58C536.627 156.234 537.797 155.008 539.424 153.9C541.085 152.765 543.254 152.145 545.932 152.04L546.746 152C549.831 152.026 552.61 152.791 555.085 154.295C557.559 155.799 558.864 157.976 559 160.825V161.577C559 161.682 559 161.788 559 161.893C559 161.973 559 162.065 559 162.17C558.864 164.255 557.864 166.167 556 167.909C554.169 169.65 551.169 170.521 547 170.521C546.966 170.521 546.915 170.521 546.847 170.521C546.78 170.494 546.712 170.481 546.644 170.481C546.576 170.481 546.508 170.481 546.441 170.481C546.373 170.455 546.322 170.441 546.288 170.441V163.318C546.322 163.344 546.356 163.371 546.39 163.397C546.424 163.397 546.458 163.397 546.492 163.397C546.492 163.397 546.509 163.41 546.542 163.437C546.576 163.437 546.61 163.437 546.644 163.437C547.491 163.437 548.152 163.252 548.627 162.883C549.102 162.487 549.373 162.052 549.441 161.577C549.441 161.55 549.441 161.524 549.441 161.498C549.441 161.445 549.441 161.405 549.441 161.379C549.441 161.353 549.441 161.326 549.441 161.3C549.441 161.247 549.441 161.208 549.441 161.181C549.373 160.785 549.169 160.429 548.83 160.113C548.491 159.796 548 159.638 547.356 159.638C546.305 159.638 545.61 159.888 545.271 160.39C544.966 160.865 544.814 161.669 544.814 162.804V178H535Z" fill="white"/>
<path d="M564 168.341C564 165.824 565.07 163.637 567.209 161.782C569.349 159.927 571.991 159 575.135 159C578.766 159 581.635 159.941 583.742 161.822C585.882 163.677 586.968 165.731 587 167.983C587 168.01 587 168.036 587 168.063C587 168.063 587 168.076 587 168.103C587 171.203 585.784 173.614 583.353 175.337C580.954 177.059 578.312 177.947 575.427 178C575.362 178 575.297 178 575.233 178C575.2 178 575.168 178 575.135 178C574.617 178 574.065 177.96 573.482 177.881C572.898 177.801 572.315 177.682 571.731 177.523C569.786 176.967 568.004 175.933 566.383 174.423C564.794 172.912 564 170.898 564 168.381V168.341ZM572.655 168.341C572.655 169.083 572.931 169.666 573.482 170.09C574.065 170.487 574.698 170.699 575.378 170.726C575.411 170.726 575.427 170.726 575.427 170.726C575.459 170.726 575.492 170.726 575.524 170.726C576.205 170.726 576.821 170.527 577.372 170.13C577.956 169.706 578.247 169.123 578.247 168.381C578.247 167.745 578.004 167.255 577.518 166.91C577.064 166.539 576.545 166.314 575.962 166.234C575.897 166.208 575.816 166.195 575.719 166.195C575.654 166.195 575.589 166.195 575.524 166.195C575.492 166.195 575.459 166.195 575.427 166.195C575.427 166.195 575.411 166.195 575.378 166.195C574.698 166.221 574.065 166.433 573.482 166.831C572.931 167.202 572.655 167.718 572.655 168.381V168.341Z" fill="white"/>
<path d="M592 178V160.582H600.794V162.793C601.48 162.172 602.183 161.681 602.903 161.319C603.623 160.931 604.343 160.634 605.063 160.427C605.886 160.22 606.709 160.103 607.531 160.078C608.389 160.026 609.211 160 610 160V166.091C609.829 166.116 609.64 166.129 609.434 166.129C609.229 166.129 609.04 166.129 608.869 166.129C607.017 166.181 605.32 166.466 603.777 166.983C602.269 167.5 601.514 168.703 601.514 170.591V178H592Z" fill="white"/>
<path d="M615 155H624.399V160.585H629V166.635H624.399V170.281C624.399 170.876 624.529 171.315 624.79 171.6C625.051 171.858 625.639 171.988 626.553 171.988L629 171.949V177.999H624.056C620.662 178.025 618.329 177.405 617.056 176.138C615.816 174.845 615.147 173.423 615.049 171.871C615.016 171.768 615 171.664 615 171.561C615 171.432 615 171.302 615 171.173V155Z" fill="white"/>
<path d="M634 160H643.035V170.013C643.035 170.455 643.149 170.805 643.377 171.065C643.637 171.299 643.914 171.429 644.207 171.455C644.24 171.455 644.256 171.455 644.256 171.455C644.288 171.455 644.321 171.455 644.353 171.455C644.419 171.455 644.484 171.455 644.549 171.455C644.614 171.429 644.679 171.416 644.744 171.416C645.037 171.338 645.298 171.182 645.526 170.948C645.786 170.688 645.916 170.39 645.916 170.052V160H655V170.286C655 172.727 653.926 174.597 651.777 175.896C649.661 177.195 647.333 177.896 644.793 178C644.695 178 644.598 178 644.5 178C644.435 178 644.354 178 644.256 178C641.684 178 639.323 177.364 637.174 176.091C635.058 174.818 634 172.896 634 170.325V160Z" fill="white"/>
<path d="M674.419 171.038V177.846C674.255 177.897 674.075 177.923 673.878 177.923C673.681 177.923 673.501 177.923 673.337 177.923C673.009 177.949 672.697 177.962 672.402 177.962C672.106 177.987 671.827 178 671.565 178C668.251 178 665.495 177.205 663.297 175.615C661.099 174.026 660 171.846 660 169.077C660 166.077 661.214 163.821 663.642 162.308C666.07 160.769 668.973 160 672.352 160C676.125 160 679.062 160.897 681.161 162.692C683.261 164.462 684.491 166.423 684.852 168.577C684.918 168.808 684.951 169.038 684.951 169.269C684.984 169.5 685 169.731 685 169.962V177.846H675.846V169.038C675.846 168.218 675.518 167.603 674.862 167.192C674.206 166.782 673.468 166.551 672.648 166.5C672.615 166.5 672.566 166.5 672.5 166.5C672.467 166.5 672.434 166.5 672.402 166.5C672.369 166.5 672.336 166.5 672.303 166.5C672.303 166.5 672.287 166.5 672.254 166.5C671.467 166.526 670.745 166.744 670.089 167.154C669.432 167.538 669.104 168.09 669.104 168.808C669.104 169.603 669.383 170.269 669.941 170.808C670.499 171.346 671.204 171.615 672.057 171.615C672.287 171.615 672.533 171.59 672.795 171.538C673.058 171.487 673.32 171.423 673.583 171.346C673.747 171.321 673.894 171.282 674.026 171.231C674.157 171.179 674.288 171.128 674.419 171.077V171.038Z" fill="white"/>
<path d="M690 178V160.582H698.794V162.793C699.48 162.172 700.183 161.681 700.903 161.319C701.623 160.931 702.343 160.634 703.063 160.427C703.886 160.22 704.709 160.103 705.531 160.078C706.389 160.026 707.211 160 708 160V166.091C707.829 166.116 707.64 166.129 707.434 166.129C707.229 166.129 707.04 166.129 706.869 166.129C705.017 166.181 703.32 166.466 701.777 166.983C700.269 167.5 699.514 168.703 699.514 170.591V178H690Z" fill="white"/>
<path d="M713.358 178V160.681H723.181V178H713.358ZM713 154.857C713 153.649 713.546 152.71 714.637 152.041C715.729 151.347 717.008 151 718.474 151C718.645 151 718.798 151.013 718.935 151.039C719.105 151.039 719.259 151.051 719.395 151.077C720.555 151.206 721.612 151.604 722.567 152.273C723.522 152.941 724 153.816 724 154.896V155.127C724 156.387 723.454 157.364 722.363 158.059C721.271 158.727 720.078 159.087 718.781 159.139C718.713 159.139 718.645 159.139 718.577 159.139C718.543 159.139 718.509 159.139 718.474 159.139C717.11 159.139 715.848 158.791 714.688 158.097C713.563 157.377 713 156.31 713 154.896V154.857Z" fill="white"/>
<path d="M743.419 171.038V177.846C743.255 177.897 743.075 177.923 742.878 177.923C742.681 177.923 742.501 177.923 742.337 177.923C742.009 177.949 741.697 177.962 741.402 177.962C741.106 177.987 740.827 178 740.565 178C737.251 178 734.495 177.205 732.297 175.615C730.099 174.026 729 171.846 729 169.077C729 166.077 730.214 163.821 732.642 162.308C735.07 160.769 737.973 160 741.352 160C745.125 160 748.062 160.897 750.161 162.692C752.261 164.462 753.491 166.423 753.852 168.577C753.918 168.808 753.951 169.038 753.951 169.269C753.984 169.5 754 169.731 754 169.962V177.846H744.846V169.038C744.846 168.218 744.518 167.603 743.862 167.192C743.206 166.782 742.468 166.551 741.648 166.5C741.615 166.5 741.566 166.5 741.5 166.5C741.467 166.5 741.434 166.5 741.402 166.5C741.369 166.5 741.336 166.5 741.303 166.5C741.303 166.5 741.287 166.5 741.254 166.5C740.467 166.526 739.745 166.744 739.089 167.154C738.432 167.538 738.104 168.09 738.104 168.808C738.104 169.603 738.383 170.269 738.941 170.808C739.499 171.346 740.204 171.615 741.057 171.615C741.287 171.615 741.533 171.59 741.795 171.538C742.058 171.487 742.32 171.423 742.583 171.346C742.747 171.321 742.894 171.282 743.026 171.231C743.157 171.179 743.288 171.128 743.419 171.077V171.038Z" fill="white"/>
<path d="M203 131.999V86.3148C203 85.1246 203.11 83.7943 203.33 82.324C203.605 80.8537 203.99 79.3484 204.485 77.8081C205.64 74.2373 207.538 70.9817 210.178 68.041C212.873 65.0304 216.393 63.3851 220.738 63.105L222.058 63C227.064 63.07 231.574 65.1004 235.589 69.0913C239.604 73.0821 241.722 78.8583 241.942 86.4199V88.4153C241.942 88.6953 241.942 88.9754 241.942 89.2555C241.942 89.4655 241.942 89.7105 241.942 89.9906C241.722 95.5218 240.099 100.598 237.074 105.219C234.104 109.84 229.236 112.15 222.471 112.15C222.416 112.15 222.333 112.15 222.223 112.15C222.113 112.08 222.003 112.045 221.893 112.045C221.783 112.045 221.673 112.045 221.563 112.045C221.453 111.975 221.371 111.94 221.316 111.94V93.0362C221.371 93.1063 221.426 93.1763 221.481 93.2463C221.536 93.2463 221.591 93.2463 221.646 93.2463C221.646 93.2463 221.673 93.2813 221.728 93.3513C221.783 93.3513 221.838 93.3513 221.893 93.3513C223.268 93.3513 224.341 92.8612 225.111 91.881C225.881 90.8308 226.321 89.6755 226.431 88.4153C226.431 88.3453 226.431 88.2752 226.431 88.2052C226.431 88.0652 226.431 87.9602 226.431 87.8902C226.431 87.8202 226.431 87.7501 226.431 87.6801C226.431 87.5401 226.431 87.4351 226.431 87.3651C226.321 86.3148 225.991 85.3696 225.441 84.5295C224.891 83.6893 224.094 83.2692 223.048 83.2692C221.343 83.2692 220.216 83.9344 219.666 85.2646C219.171 86.5249 218.923 88.6603 218.923 91.671V131.999H203Z" fill="white"/>
<path d="M250.49 82.9961H266.018V110.253C266.018 111.455 266.214 112.41 266.606 113.117C267.054 113.753 267.529 114.107 268.033 114.178C268.089 114.178 268.117 114.178 268.117 114.178C268.173 114.178 268.229 114.178 268.285 114.178C268.397 114.178 268.508 114.178 268.62 114.178C268.732 114.107 268.844 114.072 268.956 114.072C269.46 113.859 269.907 113.435 270.299 112.799C270.747 112.092 270.971 111.279 270.971 110.359V82.9961H286.583V110.996C286.583 117.642 284.736 122.733 281.043 126.268C277.406 129.804 273.405 131.713 269.04 131.996C268.872 131.996 268.704 131.996 268.536 131.996C268.425 131.996 268.285 131.996 268.117 131.996C263.696 131.996 259.639 130.263 255.946 126.799C252.309 123.334 250.49 118.102 250.49 111.102V82.9961Z" fill="white"/>
<path d="M334.073 100.452L315.299 113.723L311.036 104.127L318.168 99.023C317.84 98.6828 317.458 98.3425 317.02 98.0022C316.638 97.6619 316.228 97.4237 315.791 97.2876C315.627 97.2196 315.463 97.1855 315.299 97.1855C315.135 97.1175 314.971 97.0835 314.807 97.0835C314.697 97.0835 314.561 97.1175 314.397 97.1855C314.288 97.1855 314.151 97.1855 313.987 97.1855C312.675 97.5258 311.473 98.5807 310.38 100.35C309.287 102.051 308.74 104.059 308.74 106.373C308.74 109.503 309.423 111.987 310.79 113.825C312.211 115.594 313.932 116.479 315.955 116.479C316.72 116.479 317.54 116.343 318.414 116.071C319.289 115.731 320.163 115.288 321.037 114.744C321.857 114.199 322.65 113.553 323.415 112.804C324.235 112.056 325 111.171 325.71 110.15L334.073 120.256C332.214 123.659 329.728 126.347 326.612 128.321C323.497 130.294 320.245 131.485 316.856 131.894C316.474 131.894 316.091 131.894 315.709 131.894C315.381 131.962 315.025 131.996 314.643 131.996C309.942 131.996 305.597 130.158 301.608 126.483C297.672 122.808 295.568 116.887 295.295 108.721C295.295 108.653 295.267 108.585 295.213 108.517C295.213 108.381 295.213 108.244 295.213 108.108C295.213 107.972 295.186 107.87 295.131 107.802C295.131 107.666 295.131 107.564 295.131 107.496C295.131 100.486 296.689 95.0078 299.804 91.0606C302.919 87.1134 306.335 84.6294 310.052 83.6086C310.708 83.4044 311.363 83.2683 312.019 83.2003C312.73 83.0641 313.413 82.9961 314.069 82.9961C319.917 82.9961 324.344 84.7655 327.35 88.3044C330.356 91.7752 332.597 95.8585 334.073 100.554V100.452Z" fill="white"/>
<path d="M343.57 131.996V84.5801H357.492V90.5995C358.577 88.9098 359.69 87.5722 360.83 86.5866C361.969 85.5305 363.109 84.7209 364.249 84.1577C365.551 83.5945 366.854 83.2777 368.157 83.2073C369.513 83.0665 370.816 82.9961 372.064 82.9961V99.5757C371.793 99.6461 371.494 99.6813 371.169 99.6813C370.843 99.6813 370.545 99.6813 370.273 99.6813C367.343 99.8221 364.656 100.597 362.214 102.005C359.825 103.413 358.631 106.686 358.631 111.826V131.996H343.57Z" fill="white"/>
<path d="M381.562 70.0039H396.228V85.0589H403.408V101.368H396.228V111.196C396.228 112.799 396.432 113.984 396.839 114.751C397.246 115.448 398.163 115.796 399.589 115.796L403.408 115.692V132.001H395.693C390.397 132.071 386.757 130.398 384.771 126.983C382.836 123.498 381.792 119.664 381.639 115.483C381.588 115.204 381.562 114.925 381.562 114.646C381.562 114.298 381.562 113.949 381.562 113.601V70.0039Z" fill="white"/>
<path d="M412.906 107.086C412.906 100.594 414.762 94.9555 418.473 90.1718C422.183 85.388 426.766 82.9961 432.22 82.9961C438.517 82.9961 443.493 85.4221 447.147 90.2743C450.858 95.058 452.742 100.354 452.798 106.163C452.798 106.232 452.798 106.3 452.798 106.368C452.798 106.368 452.798 106.402 452.798 106.471C452.798 114.467 450.69 120.685 446.473 125.127C442.312 129.57 437.73 131.859 432.726 131.996C432.613 131.996 432.501 131.996 432.388 131.996C432.332 131.996 432.276 131.996 432.22 131.996C431.32 131.996 430.364 131.893 429.352 131.688C428.34 131.483 427.328 131.176 426.316 130.766C422.942 129.33 419.85 126.665 417.039 122.77C414.284 118.874 412.906 113.681 412.906 107.188V107.086ZM427.918 107.086C427.918 108.999 428.396 110.503 429.352 111.596C430.364 112.621 431.461 113.168 432.641 113.236C432.697 113.236 432.726 113.236 432.726 113.236C432.782 113.236 432.838 113.236 432.894 113.236C434.075 113.236 435.143 112.724 436.099 111.699C437.111 110.605 437.617 109.102 437.617 107.188C437.617 105.548 437.196 104.284 436.352 103.395C435.565 102.439 434.665 101.858 433.653 101.653C433.541 101.584 433.4 101.55 433.232 101.55C433.119 101.55 433.007 101.55 432.894 101.55C432.838 101.55 432.782 101.55 432.726 101.55C432.726 101.55 432.697 101.55 432.641 101.55C431.461 101.619 430.364 102.165 429.352 103.19C428.396 104.147 427.918 105.48 427.918 107.188V107.086Z" fill="white"/>
<path d="M509.603 63H523.791V101.963C523.791 111.135 522.346 118.452 519.456 123.913C516.566 129.304 511.6 131.999 504.558 131.999C499.409 131.999 494.995 129.584 491.316 124.753C487.638 119.852 485.799 113.796 485.799 106.584C485.799 106.514 485.799 106.409 485.799 106.269C485.851 106.129 485.878 105.989 485.878 105.849C485.878 105.709 485.878 105.569 485.878 105.429C485.93 105.289 485.956 105.184 485.956 105.114C486.219 97.2021 487.98 91.2859 491.238 87.3651C494.496 83.3742 498.673 81.3788 503.77 81.3788C504.243 81.3788 504.742 81.4138 505.268 81.4838C505.793 81.4838 506.319 81.5539 506.844 81.6939C507.054 81.6939 507.238 81.7289 507.396 81.7989C507.606 81.7989 507.79 81.7989 507.948 81.7989V99.7576C507.79 99.7576 507.606 99.7576 507.396 99.7576C507.238 99.7576 507.081 99.7226 506.923 99.6526C506.608 99.6526 506.292 99.6526 505.977 99.6526C505.714 99.5826 505.478 99.5476 505.268 99.5476C503.376 99.5476 501.931 100.248 500.933 101.648C499.934 103.048 499.435 105.009 499.435 107.529C499.435 109.35 499.908 110.82 500.854 111.94C501.8 112.99 502.851 113.515 504.007 113.515C504.112 113.515 504.217 113.515 504.322 113.515C504.427 113.515 504.532 113.515 504.637 113.515C505.846 113.305 506.976 112.57 508.027 111.31C509.077 109.98 509.603 108.159 509.603 105.849V63Z" fill="white"/>
<path d="M571.281 100.452L552.965 113.723L548.806 104.127L555.764 99.023C555.444 98.6828 555.071 98.3425 554.645 98.0022C554.271 97.6619 553.871 97.4237 553.445 97.2876C553.285 97.2196 553.125 97.1855 552.965 97.1855C552.805 97.1175 552.645 97.0835 552.485 97.0835C552.378 97.0835 552.245 97.1175 552.085 97.1855C551.978 97.1855 551.845 97.1855 551.685 97.1855C550.405 97.5258 549.232 98.5807 548.166 100.35C547.1 102.051 546.566 104.059 546.566 106.373C546.566 109.503 547.233 111.987 548.566 113.825C549.952 115.594 551.632 116.479 553.605 116.479C554.351 116.479 555.151 116.343 556.004 116.071C556.857 115.731 557.711 115.288 558.564 114.744C559.364 114.199 560.137 113.553 560.883 112.804C561.683 112.056 562.43 111.171 563.123 110.15L571.281 120.256C569.468 123.659 567.042 126.347 564.003 128.321C560.963 130.294 557.791 131.485 554.485 131.894C554.111 131.894 553.738 131.894 553.365 131.894C553.045 131.962 552.698 131.996 552.325 131.996C547.739 131.996 543.5 130.158 539.608 126.483C535.769 122.808 533.716 116.887 533.449 108.721C533.449 108.653 533.422 108.585 533.369 108.517C533.369 108.381 533.369 108.244 533.369 108.108C533.369 107.972 533.342 107.87 533.289 107.802C533.289 107.666 533.289 107.564 533.289 107.496C533.289 100.486 534.809 95.0078 537.848 91.0606C540.887 87.1134 544.22 84.6294 547.846 83.6086C548.486 83.4044 549.126 83.2683 549.766 83.2003C550.459 83.0641 551.125 82.9961 551.765 82.9961C557.471 82.9961 561.79 84.7655 564.722 88.3044C567.655 91.7752 569.841 95.8585 571.281 100.554V100.452Z" fill="white"/>
<path d="M604.279 130.846L607.645 74.6397C607.805 71.2841 608.927 68.5577 611.011 66.4605C613.148 64.3632 615.445 63.2097 617.902 63C618.009 63 618.116 63 618.223 63C618.383 63 618.517 63 618.624 63C618.73 63 618.837 63 618.944 63C619.051 63 619.158 63 619.265 63C621.348 63.1398 623.325 64.0486 625.195 65.7264C627.064 67.3343 628.293 69.851 628.881 73.2765L632.888 94.8781L637.455 71.5987C637.99 69.1519 639.245 67.1595 641.222 65.6216C643.252 64.0836 645.389 63.2796 647.633 63.2097C647.686 63.2097 647.739 63.2097 647.793 63.2097C647.846 63.2097 647.9 63.2097 647.953 63.2097C648.113 63.2097 648.274 63.2097 648.434 63.2097C648.594 63.2097 648.754 63.2097 648.915 63.2097C651.265 63.4894 653.429 64.6428 655.406 66.6702C657.382 68.6276 658.504 71.8084 658.771 76.2126L662.217 130.846H646.671L644.988 91.942L638.737 126.442C638.524 128.05 637.963 129.308 637.055 130.217C636.2 131.056 635.265 131.615 634.25 131.894C634.036 131.894 633.823 131.894 633.609 131.894C633.449 131.964 633.288 131.999 633.128 131.999C633.021 131.999 632.888 131.999 632.727 131.999C632.621 131.999 632.514 131.964 632.407 131.894C631.499 131.755 630.617 131.3 629.762 130.531C628.961 129.762 628.48 128.679 628.32 127.281L621.508 91.942L619.665 130.846H604.279Z" fill="white"/>
<path d="M695.963 113.045V131.577C695.677 131.716 695.361 131.786 695.017 131.786C694.673 131.786 694.358 131.786 694.071 131.786C693.498 131.856 692.953 131.891 692.437 131.891C691.921 131.961 691.434 131.996 690.975 131.996C685.184 131.996 680.368 129.832 676.526 125.504C672.684 121.177 670.764 115.244 670.764 107.705C670.764 99.5387 672.885 93.3963 677.128 89.2781C681.371 85.0901 686.445 82.9961 692.351 82.9961C698.945 82.9961 704.076 85.4391 707.746 90.3251C711.416 95.1413 713.566 100.481 714.196 106.344C714.311 106.972 714.369 107.601 714.369 108.229C714.426 108.857 714.455 109.485 714.455 110.113V131.577H698.457V107.601C698.457 105.367 697.884 103.692 696.737 102.575C695.591 101.458 694.301 100.83 692.867 100.69C692.81 100.69 692.724 100.69 692.609 100.69C692.552 100.69 692.494 100.69 692.437 100.69C692.38 100.69 692.322 100.69 692.265 100.69C692.265 100.69 692.236 100.69 692.179 100.69C690.803 100.76 689.542 101.353 688.395 102.47C687.248 103.517 686.675 105.018 686.675 106.972C686.675 109.136 687.162 110.951 688.137 112.417C689.111 113.883 690.344 114.615 691.835 114.615C692.236 114.615 692.666 114.546 693.125 114.406C693.584 114.266 694.043 114.092 694.501 113.883C694.788 113.813 695.046 113.708 695.275 113.568C695.505 113.429 695.734 113.289 695.963 113.15V113.045Z" fill="white"/>
<path d="M743.338 131.996V104.738C743.338 103.395 743.095 102.334 742.609 101.557C742.123 100.779 741.61 100.355 741.07 100.284C741.016 100.284 740.962 100.284 740.908 100.284C740.908 100.284 740.881 100.284 740.827 100.284C740.719 100.284 740.611 100.284 740.503 100.284C740.449 100.284 740.368 100.319 740.26 100.39C739.719 100.602 739.206 101.132 738.72 101.981C738.234 102.759 737.991 103.713 737.991 104.844V131.996H723.004V103.147C723.004 96.4303 724.489 91.4809 727.46 88.2991C730.484 85.1173 733.806 83.385 737.424 83.1022C737.64 83.0314 737.856 82.9961 738.072 82.9961C738.288 82.9961 738.504 82.9961 738.72 82.9961C741.259 82.9961 743.635 83.6325 745.849 84.9052C748.118 86.1072 749.765 87.7334 750.791 89.7839C752.033 88.0162 753.6 86.6021 755.49 85.5415C757.38 84.4102 759.325 83.7032 761.323 83.4203C761.647 83.4203 761.944 83.4203 762.214 83.4203C762.538 83.3496 762.862 83.3143 763.186 83.3143C766.913 83.3143 770.315 84.8345 773.394 87.8748C776.526 90.9152 778.092 95.794 778.092 102.511V131.996H763.024V103.996C763.024 102.865 762.808 101.981 762.376 101.344C761.998 100.708 761.566 100.355 761.08 100.284C761.026 100.284 760.972 100.284 760.918 100.284C760.918 100.284 760.891 100.284 760.837 100.284C760.783 100.284 760.702 100.284 760.594 100.284C760.54 100.284 760.486 100.319 760.432 100.39C759.946 100.531 759.487 101.026 759.054 101.875C758.622 102.723 758.406 103.961 758.406 105.587V131.996H743.338Z" fill="white"/>
<path d="M786.641 107.086C786.641 100.594 788.496 94.9555 792.207 90.1718C795.918 85.388 800.5 82.9961 805.954 82.9961C812.251 82.9961 817.227 85.4221 820.882 90.2743C824.593 95.058 826.476 100.354 826.532 106.163C826.532 106.232 826.532 106.3 826.532 106.368C826.532 106.368 826.532 106.402 826.532 106.471C826.532 114.467 824.424 120.685 820.207 125.127C816.046 129.57 811.464 131.859 806.46 131.996C806.347 131.996 806.235 131.996 806.123 131.996C806.066 131.996 806.01 131.996 805.954 131.996C805.054 131.996 804.098 131.893 803.086 131.688C802.074 131.483 801.062 131.176 800.05 130.766C796.677 129.33 793.584 126.665 790.773 122.77C788.018 118.874 786.641 113.681 786.641 107.188V107.086ZM801.653 107.086C801.653 108.999 802.131 110.503 803.086 111.596C804.098 112.621 805.195 113.168 806.376 113.236C806.432 113.236 806.46 113.236 806.46 113.236C806.516 113.236 806.572 113.236 806.629 113.236C807.809 113.236 808.878 112.724 809.833 111.699C810.845 110.605 811.351 109.102 811.351 107.188C811.351 105.548 810.93 104.284 810.086 103.395C809.299 102.439 808.4 101.858 807.388 101.653C807.275 101.584 807.135 101.55 806.966 101.55C806.854 101.55 806.741 101.55 806.629 101.55C806.572 101.55 806.516 101.55 806.46 101.55C806.46 101.55 806.432 101.55 806.376 101.55C805.195 101.619 804.098 102.165 803.086 103.19C802.131 104.147 801.653 105.48 801.653 107.188V107.086Z" fill="white"/>
<path d="M835.08 132V102.457C835.08 96.6724 836.925 92.334 840.614 89.4417C844.303 86.4806 848.377 85 852.837 85C853.002 85 853.14 85 853.25 85C853.415 85 853.58 85 853.746 85C858.096 85.2066 862.088 86.8249 865.722 89.8549C869.356 92.8849 871.173 97.3611 871.173 103.283V132H855.232V104.729C855.232 103.834 855.04 103.146 854.654 102.664C854.324 102.113 853.938 101.768 853.498 101.631C853.443 101.562 853.36 101.527 853.25 101.527C853.195 101.527 853.113 101.527 853.002 101.527C852.892 101.527 852.782 101.562 852.672 101.631C852.562 101.631 852.452 101.631 852.342 101.631C851.846 101.837 851.378 102.25 850.938 102.87C850.552 103.421 850.359 104.075 850.359 104.833V132H835.08Z" fill="white"/>
<path d="M903.277 113.045V131.577C903.009 131.716 902.714 131.786 902.393 131.786C902.071 131.786 901.776 131.786 901.508 131.786C900.972 131.856 900.463 131.891 899.981 131.891C899.498 131.961 899.043 131.996 898.614 131.996C893.2 131.996 888.698 129.832 885.107 125.504C881.516 121.177 879.721 115.244 879.721 107.705C879.721 99.5387 881.704 93.3963 885.67 89.2781C889.636 85.0901 894.38 82.9961 899.9 82.9961C906.064 82.9961 910.861 85.4391 914.291 90.3251C917.721 95.1413 919.731 100.481 920.321 106.344C920.428 106.972 920.482 107.601 920.482 108.229C920.535 108.857 920.562 109.485 920.562 110.113V131.577H905.608V107.601C905.608 105.367 905.072 103.692 904 102.575C902.929 101.458 901.723 100.83 900.383 100.69C900.329 100.69 900.249 100.69 900.141 100.69C900.088 100.69 900.034 100.69 899.981 100.69C899.927 100.69 899.873 100.69 899.82 100.69C899.82 100.69 899.793 100.69 899.739 100.69C898.453 100.76 897.274 101.353 896.202 102.47C895.13 103.517 894.594 105.018 894.594 106.972C894.594 109.136 895.05 110.951 895.961 112.417C896.872 113.883 898.024 114.615 899.418 114.615C899.793 114.615 900.195 114.546 900.624 114.406C901.053 114.266 901.481 114.092 901.91 113.883C902.178 113.813 902.419 113.708 902.634 113.568C902.848 113.429 903.062 113.289 903.277 113.15V113.045Z" fill="white"/>
<path d="M930.061 131.995V64.9961H946.207V131.995H930.061Z" fill="white"/>
<path d="M143.433 41H61V99.3776H80.6269L112.815 118.836L158.349 94.887C162.275 92.6149 174.032 82.7732 171.696 64.9497C169.34 46.9872 158.349 40.9999 143.433 41Z" fill="white"/>
<path d="M75.1313 109.855H61V160H171.696V109.855H152.069L112.815 132.308L75.1313 109.855Z" fill="white"/>
</svg>
