<svg width="1249" height="237" viewBox="0 0 1249 237" fill="none" xmlns="http://www.w3.org/2000/svg">
<rect width="1249" height="237" fill="black"/>
<path d="M1215.96 124.742C1215.96 122.096 1216.84 120.042 1218.58 118.578C1220.38 117.115 1222.49 116.383 1224.91 116.383C1225.19 116.383 1225.48 116.411 1225.76 116.467C1226.04 116.467 1226.32 116.495 1226.6 116.552C1228.46 116.889 1230.18 117.762 1231.75 119.169C1233.33 120.576 1234.12 122.462 1234.12 124.826V125.333C1234.12 128.035 1233.22 130.09 1231.41 131.497C1229.67 132.904 1227.73 133.692 1225.59 133.861C1225.48 133.861 1225.36 133.861 1225.25 133.861C1225.14 133.861 1225.03 133.861 1224.91 133.861C1222.66 133.861 1220.61 133.129 1218.75 131.666C1216.89 130.202 1215.96 127.922 1215.96 124.826V124.742Z" fill="white"/>
<path d="M1159.33 133.111V98.7459C1159.33 93.6235 1161.1 88.9514 1164.65 84.7296C1168.19 80.4515 1173.29 78.3125 1179.93 78.3125C1180.04 78.3125 1180.16 78.3125 1180.27 78.3125C1180.38 78.3125 1180.52 78.3125 1180.69 78.3125C1185.59 78.4814 1190.09 80.1982 1194.2 83.4631C1198.37 86.7279 1200.45 92.0755 1200.45 99.5058V133.111H1183.48V117.491H1178.66V102.968H1183.48V97.5638C1183.48 96.438 1183.11 95.5937 1182.38 95.0308C1181.65 94.4116 1180.83 94.102 1179.93 94.102C1179.03 94.102 1178.19 94.4116 1177.4 95.0308C1176.67 95.5937 1176.3 96.4662 1176.3 97.6483V133.111H1159.33Z" fill="white"/>
<path d="M1129.52 124.742C1129.52 122.096 1130.39 120.042 1132.14 118.578C1133.94 117.115 1136.05 116.383 1138.47 116.383C1138.75 116.383 1139.03 116.411 1139.31 116.467C1139.59 116.467 1139.88 116.495 1140.16 116.552C1142.01 116.889 1143.73 117.762 1145.31 119.169C1146.88 120.576 1147.67 122.462 1147.67 124.826V125.333C1147.67 128.035 1146.77 130.09 1144.97 131.497C1143.22 132.904 1141.28 133.692 1139.14 133.861C1139.03 133.861 1138.92 133.861 1138.81 133.861C1138.69 133.861 1138.58 133.861 1138.47 133.861C1136.22 133.861 1134.16 133.129 1132.3 131.666C1130.45 130.202 1129.52 127.922 1129.52 124.826V124.742Z" fill="white"/>
<path d="M1082.65 133.107V117.487H1094.64C1094.86 117.543 1095.09 117.571 1095.31 117.571C1095.59 117.515 1095.87 117.459 1096.16 117.402C1097 117.29 1097.76 117.036 1098.43 116.642C1099.11 116.248 1099.45 115.77 1099.45 115.207C1099.45 114.982 1099.34 114.7 1099.11 114.363C1098.89 113.969 1098.55 113.575 1098.1 113.18C1098.04 113.068 1097.96 112.983 1097.84 112.927C1097.79 112.815 1097.7 112.73 1097.59 112.674C1096.91 112.224 1096.24 111.773 1095.56 111.323C1094.94 110.816 1094.35 110.31 1093.79 109.803C1090.53 107.326 1087.85 104.765 1085.77 102.119C1083.69 99.4738 1082.65 96.3497 1082.65 92.7471C1082.65 92.6908 1082.62 92.6345 1082.56 92.5782C1082.56 92.5219 1082.56 92.4375 1082.56 92.3249C1082.56 92.2686 1082.53 92.2123 1082.48 92.156C1082.48 92.0997 1082.48 92.0434 1082.48 91.9872C1082.48 88.6097 1083.52 86.0485 1085.6 84.3035C1087.68 82.5585 1089.96 81.3201 1092.44 80.5883C1093.85 80.138 1095.23 79.8566 1096.58 79.744C1097.93 79.5751 1099.08 79.4907 1100.04 79.4907L1116.34 79.4062V93.8447H1104.94C1103.7 93.901 1102.68 94.1262 1101.9 94.5202C1101.16 94.9143 1100.8 95.3646 1100.8 95.8712C1100.8 96.0964 1100.88 96.3778 1101.05 96.7155C1101.28 97.0533 1101.59 97.391 1101.98 97.7288C1102.04 97.7851 1102.12 97.8695 1102.23 97.9821C1102.35 98.0384 1102.46 98.1228 1102.57 98.2354C1102.85 98.4606 1103.14 98.6857 1103.42 98.9109C1103.75 99.136 1104.09 99.3612 1104.43 99.5864C1104.6 99.7552 1104.77 99.9241 1104.94 100.093C1105.16 100.206 1105.36 100.318 1105.53 100.431C1108.62 102.739 1111.44 105.159 1113.97 107.692C1116.5 110.225 1117.91 113.321 1118.19 116.98V118.753C1118.19 123.594 1116.36 127.169 1112.7 129.477C1109.1 131.728 1105.13 132.967 1100.8 133.192C1100.57 133.192 1100.35 133.192 1100.12 133.192C1099.9 133.192 1099.67 133.192 1099.45 133.192L1082.65 133.107Z" fill="white"/>
<path d="M1022.92 133.787V80.0859H1039.13V133.787H1022.92Z" fill="white"/>
<path d="M992.708 118.85V133.795C992.427 133.908 992.117 133.964 991.78 133.964C991.442 133.964 991.132 133.964 990.851 133.964C990.288 134.02 989.753 134.049 989.247 134.049C988.74 134.105 988.261 134.133 987.811 134.133C982.126 134.133 977.397 132.388 973.626 128.898C969.854 125.408 967.969 120.623 967.969 114.544C967.969 107.958 970.051 103.004 974.217 99.6833C978.382 96.3059 983.364 94.6172 989.162 94.6172C995.635 94.6172 1000.67 96.5873 1004.28 100.528C1007.88 104.412 1009.99 108.718 1010.61 113.446C1010.72 113.953 1010.78 114.46 1010.78 114.966C1010.83 115.473 1010.86 115.979 1010.86 116.486V133.795H995.157V114.46C995.157 112.658 994.594 111.307 993.468 110.407C992.342 109.506 991.076 108.999 989.669 108.887C989.612 108.887 989.528 108.887 989.415 108.887C989.359 108.887 989.303 108.887 989.247 108.887C989.19 108.887 989.134 108.887 989.078 108.887C989.078 108.887 989.049 108.887 988.993 108.887C987.642 108.943 986.404 109.422 985.278 110.322C984.152 111.167 983.589 112.377 983.589 113.953C983.589 115.698 984.068 117.161 985.025 118.344C985.982 119.526 987.192 120.117 988.655 120.117C989.049 120.117 989.472 120.06 989.922 119.948C990.372 119.835 990.823 119.695 991.273 119.526C991.554 119.469 991.808 119.385 992.033 119.272C992.258 119.16 992.483 119.047 992.708 118.935V118.85Z" fill="white"/>
<path d="M919.006 133.785V109.637C919.006 104.908 920.892 101.362 924.663 98.9979C928.434 96.5774 932.6 95.3672 937.159 95.3672C937.328 95.3672 937.469 95.3672 937.582 95.3672C937.75 95.3672 937.919 95.3672 938.088 95.3672C942.535 95.5361 946.616 96.8589 950.331 99.3357C954.047 101.812 955.904 105.471 955.904 110.312V133.785H939.608V111.494C939.608 110.763 939.411 110.2 939.017 109.806C938.679 109.355 938.285 109.074 937.835 108.961C937.779 108.905 937.694 108.877 937.582 108.877C937.525 108.877 937.441 108.877 937.328 108.877C937.216 108.877 937.103 108.905 936.991 108.961C936.878 108.961 936.765 108.961 936.653 108.961C936.146 109.13 935.668 109.468 935.217 109.975C934.823 110.425 934.626 110.96 934.626 111.579V133.785H919.006Z" fill="white"/>
<path d="M867.006 114.46C867.006 109.112 868.863 104.468 872.579 100.528C876.294 96.5873 880.881 94.6172 886.342 94.6172C892.646 94.6172 897.628 96.6155 901.287 100.612C905.002 104.552 906.888 108.915 906.944 113.7C906.944 113.756 906.944 113.812 906.944 113.869C906.944 113.869 906.944 113.897 906.944 113.953C906.944 120.539 904.833 125.661 900.611 129.32C896.446 132.979 891.858 134.865 886.848 134.977C886.736 134.977 886.623 134.977 886.51 134.977C886.454 134.977 886.398 134.977 886.342 134.977C885.441 134.977 884.484 134.893 883.471 134.724C882.458 134.555 881.444 134.302 880.431 133.964C877.054 132.782 873.958 130.587 871.143 127.378C868.385 124.17 867.006 119.892 867.006 114.544V114.46ZM882.035 114.46C882.035 116.036 882.514 117.274 883.471 118.175C884.484 119.019 885.582 119.469 886.764 119.526C886.82 119.526 886.848 119.526 886.848 119.526C886.904 119.526 886.961 119.526 887.017 119.526C888.199 119.526 889.269 119.104 890.226 118.259C891.239 117.359 891.745 116.12 891.745 114.544C891.745 113.193 891.323 112.152 890.479 111.42C889.691 110.632 888.79 110.153 887.777 109.984C887.664 109.928 887.524 109.9 887.355 109.9C887.242 109.9 887.13 109.9 887.017 109.9C886.961 109.9 886.904 109.9 886.848 109.9C886.848 109.9 886.82 109.9 886.764 109.9C885.582 109.956 884.484 110.407 883.471 111.251C882.514 112.039 882.035 113.137 882.035 114.544V114.46Z" fill="white"/>
<path d="M818.853 133.791V112.091C818.853 111.021 818.6 110.177 818.094 109.557C817.587 108.938 817.052 108.601 816.489 108.544C816.433 108.544 816.377 108.544 816.32 108.544C816.32 108.544 816.292 108.544 816.236 108.544C816.123 108.544 816.011 108.544 815.898 108.544C815.842 108.544 815.757 108.572 815.645 108.629C815.082 108.798 814.547 109.22 814.041 109.895C813.534 110.514 813.281 111.274 813.281 112.175V133.791H797.66V110.824C797.66 105.476 799.208 101.536 802.304 99.003C805.456 96.47 808.918 95.0908 812.69 94.8657C812.915 94.8094 813.14 94.7812 813.365 94.7812C813.59 94.7812 813.815 94.7812 814.041 94.7812C816.686 94.7812 819.163 95.2879 821.471 96.3011C823.835 97.258 825.552 98.5527 826.621 100.185C827.916 98.7779 829.549 97.6521 831.519 96.8077C833.489 95.9071 835.515 95.3442 837.598 95.119C837.936 95.119 838.246 95.119 838.527 95.119C838.865 95.0627 839.202 95.0346 839.54 95.0346C843.424 95.0346 846.971 96.2448 850.179 98.6653C853.444 101.086 855.076 104.97 855.076 110.317V133.791H839.371V111.5C839.371 110.599 839.146 109.895 838.696 109.389C838.302 108.882 837.852 108.601 837.345 108.544C837.289 108.544 837.232 108.544 837.176 108.544C837.176 108.544 837.148 108.544 837.092 108.544C837.035 108.544 836.951 108.544 836.838 108.544C836.782 108.544 836.726 108.572 836.669 108.629C836.163 108.741 835.684 109.135 835.234 109.811C834.784 110.486 834.559 111.471 834.559 112.766V133.791H818.853Z" fill="white"/>
<path d="M769.902 118.85V133.795C769.62 133.908 769.311 133.964 768.973 133.964C768.635 133.964 768.326 133.964 768.044 133.964C767.481 134.02 766.946 134.049 766.44 134.049C765.933 134.105 765.455 134.133 765.004 134.133C759.319 134.133 754.591 132.388 750.819 128.898C747.048 125.408 745.162 120.623 745.162 114.544C745.162 107.958 747.245 103.004 751.41 99.6833C755.576 96.3059 760.557 94.6172 766.355 94.6172C772.829 94.6172 777.867 96.5873 781.469 100.528C785.072 104.412 787.183 108.718 787.802 113.446C787.915 113.953 787.971 114.46 787.971 114.966C788.027 115.473 788.055 115.979 788.055 116.486V133.795H772.35V114.46C772.35 112.658 771.787 111.307 770.662 110.407C769.536 109.506 768.269 108.999 766.862 108.887C766.806 108.887 766.721 108.887 766.609 108.887C766.552 108.887 766.496 108.887 766.44 108.887C766.384 108.887 766.327 108.887 766.271 108.887C766.271 108.887 766.243 108.887 766.187 108.887C764.836 108.943 763.597 109.422 762.471 110.322C761.346 111.167 760.783 112.377 760.783 113.953C760.783 115.698 761.261 117.161 762.218 118.344C763.175 119.526 764.385 120.117 765.849 120.117C766.243 120.117 766.665 120.06 767.115 119.948C767.566 119.835 768.016 119.695 768.466 119.526C768.748 119.469 769.001 119.385 769.226 119.272C769.451 119.16 769.677 119.047 769.902 118.935V118.85Z" fill="white"/>
<path d="M672.135 133.79L675.681 88.5325C675.85 85.8306 677.032 83.6352 679.227 81.9465C681.479 80.2578 683.899 79.329 686.489 79.1602C686.601 79.1602 686.714 79.1602 686.827 79.1602C686.995 79.1602 687.136 79.1602 687.249 79.1602C687.361 79.1602 687.474 79.1602 687.586 79.1602C687.699 79.1602 687.812 79.1602 687.924 79.1602C690.12 79.2727 692.202 80.0045 694.172 81.3555C696.143 82.6502 697.437 84.6766 698.056 87.4348L702.278 104.829L707.091 86.0839C707.654 84.1137 708.977 82.5094 711.06 81.271C713.199 80.0327 715.45 79.3853 717.814 79.329C717.871 79.329 717.927 79.329 717.983 79.329C718.04 79.329 718.096 79.329 718.152 79.329C718.321 79.329 718.49 79.329 718.659 79.329C718.828 79.329 718.996 79.329 719.165 79.329C721.642 79.5542 723.922 80.483 726.005 82.1154C728.087 83.6915 729.269 86.2527 729.551 89.799L733.182 133.79H716.801L715.028 102.464L708.442 130.244C708.217 131.538 707.626 132.552 706.669 133.283C705.768 133.959 704.783 134.409 703.714 134.634C703.488 134.634 703.263 134.634 703.038 134.634C702.869 134.691 702.7 134.719 702.532 134.719C702.419 134.719 702.278 134.719 702.109 134.719C701.997 134.719 701.884 134.691 701.772 134.634C700.815 134.522 699.886 134.156 698.985 133.537C698.141 132.918 697.634 132.045 697.465 130.919L690.288 102.464L688.346 133.79H672.135Z" fill="white"/>
<path d="M627.476 109.056L608.14 120.032L603.75 112.095L611.096 107.874C610.758 107.592 610.364 107.311 609.913 107.029C609.519 106.748 609.097 106.551 608.647 106.438C608.478 106.382 608.309 106.354 608.14 106.354C607.971 106.297 607.803 106.269 607.634 106.269C607.521 106.269 607.38 106.297 607.212 106.354C607.099 106.354 606.958 106.354 606.789 106.354C605.438 106.635 604.2 107.508 603.074 108.971C601.948 110.378 601.385 112.039 601.385 113.953C601.385 116.542 602.089 118.597 603.496 120.117C604.96 121.58 606.733 122.312 608.816 122.312C609.604 122.312 610.448 122.2 611.349 121.974C612.249 121.693 613.15 121.327 614.051 120.877C614.895 120.426 615.711 119.892 616.499 119.272C617.344 118.653 618.132 117.921 618.864 117.077L627.476 125.436C625.562 128.251 623.001 130.474 619.792 132.107C616.584 133.739 613.235 134.724 609.745 135.062C609.351 135.062 608.957 135.062 608.562 135.062C608.225 135.118 607.859 135.146 607.465 135.146C602.624 135.146 598.149 133.626 594.04 130.587C589.987 127.547 587.819 122.65 587.538 115.895C587.538 115.839 587.51 115.782 587.454 115.726C587.454 115.614 587.454 115.501 587.454 115.388C587.454 115.276 587.425 115.191 587.369 115.135C587.369 115.022 587.369 114.938 587.369 114.882C587.369 109.084 588.973 104.552 592.182 101.288C595.391 98.0228 598.909 95.9682 602.736 95.1238C603.412 94.9549 604.087 94.8423 604.763 94.7861C605.495 94.6735 606.198 94.6172 606.874 94.6172C612.897 94.6172 617.456 96.0807 620.552 99.0078C623.648 101.879 625.956 105.256 627.476 109.14V109.056Z" fill="white"/>
<path d="M560.369 79.5H575.567V110.826C575.567 118.2 574.019 124.082 570.923 128.473C567.827 132.807 562.508 134.974 554.965 134.974C549.448 134.974 544.72 133.032 540.78 129.148C536.839 125.208 534.869 120.339 534.869 114.541C534.869 114.484 534.869 114.4 534.869 114.287C534.925 114.175 534.954 114.062 534.954 113.95C534.954 113.837 534.954 113.725 534.954 113.612C535.01 113.499 535.038 113.415 535.038 113.359C535.319 106.998 537.205 102.241 540.695 99.0891C544.185 95.8805 548.66 94.2762 554.12 94.2762C554.627 94.2762 555.162 94.3044 555.725 94.3607C556.288 94.3607 556.851 94.417 557.413 94.5295C557.639 94.5295 557.836 94.5577 558.004 94.614C558.23 94.614 558.427 94.614 558.596 94.614V109.052C558.427 109.052 558.23 109.052 558.004 109.052C557.836 109.052 557.667 109.024 557.498 108.968C557.16 108.968 556.822 108.968 556.485 108.968C556.203 108.912 555.95 108.884 555.725 108.884C553.698 108.884 552.15 109.447 551.081 110.572C550.011 111.698 549.477 113.274 549.477 115.301C549.477 116.764 549.983 117.946 550.996 118.847C552.01 119.691 553.135 120.114 554.374 120.114C554.486 120.114 554.599 120.114 554.712 120.114C554.824 120.114 554.937 120.114 555.049 120.114C556.344 119.945 557.554 119.354 558.68 118.34C559.806 117.271 560.369 115.807 560.369 113.95V79.5Z" fill="white"/>
<path d="M462.672 114.46C462.672 109.112 464.529 104.468 468.245 100.528C471.96 96.5873 476.547 94.6172 482.008 94.6172C488.312 94.6172 493.294 96.6155 496.953 100.612C500.668 104.552 502.554 108.915 502.61 113.7C502.61 113.756 502.61 113.812 502.61 113.869C502.61 113.869 502.61 113.897 502.61 113.953C502.61 120.539 500.499 125.661 496.277 129.32C492.112 132.979 487.524 134.865 482.514 134.977C482.402 134.977 482.289 134.977 482.177 134.977C482.12 134.977 482.064 134.977 482.008 134.977C481.107 134.977 480.15 134.893 479.137 134.724C478.124 134.555 477.11 134.302 476.097 133.964C472.72 132.782 469.624 130.587 466.809 127.378C464.051 124.17 462.672 119.892 462.672 114.544V114.46ZM477.701 114.46C477.701 116.036 478.18 117.274 479.137 118.175C480.15 119.019 481.248 119.469 482.43 119.526C482.486 119.526 482.514 119.526 482.514 119.526C482.571 119.526 482.627 119.526 482.683 119.526C483.865 119.526 484.935 119.104 485.892 118.259C486.905 117.359 487.412 116.12 487.412 114.544C487.412 113.193 486.989 112.152 486.145 111.42C485.357 110.632 484.456 110.153 483.443 109.984C483.33 109.928 483.19 109.9 483.021 109.9C482.908 109.9 482.796 109.9 482.683 109.9C482.627 109.9 482.571 109.9 482.514 109.9C482.514 109.9 482.486 109.9 482.43 109.9C481.248 109.956 480.15 110.407 479.137 111.251C478.18 112.039 477.701 113.137 477.701 114.544V114.46Z" fill="white"/>
<path d="M426.062 83.7188H442.274V95.8775H450.211V109.049H442.274V116.986C442.274 118.281 442.499 119.238 442.95 119.857C443.4 120.42 444.413 120.702 445.989 120.702L450.211 120.617V133.789H441.683C435.829 133.845 431.804 132.494 429.609 129.736C427.47 126.922 426.316 123.826 426.147 120.448C426.091 120.223 426.062 119.998 426.062 119.773C426.062 119.491 426.062 119.21 426.062 118.928V83.7188Z" fill="white"/>
<path d="M387.164 133.795V95.8837H401.603V100.697C402.728 99.3456 403.882 98.2761 405.064 97.488C406.247 96.6436 407.429 95.9963 408.611 95.546C409.962 95.0957 411.313 94.8423 412.664 94.7861C414.071 94.6735 415.422 94.6172 416.717 94.6172V107.874C416.435 107.93 416.125 107.958 415.788 107.958C415.45 107.958 415.14 107.958 414.859 107.958C411.819 108.071 409.033 108.69 406.5 109.816C404.023 110.941 402.785 113.559 402.785 117.668V133.795H387.164Z" fill="white"/>
<path d="M375.365 109.056L356.029 120.032L351.638 112.095L358.984 107.874C358.646 107.592 358.252 107.311 357.802 107.029C357.408 106.748 356.986 106.551 356.536 106.438C356.367 106.382 356.198 106.354 356.029 106.354C355.86 106.297 355.691 106.269 355.522 106.269C355.41 106.269 355.269 106.297 355.1 106.354C354.988 106.354 354.847 106.354 354.678 106.354C353.327 106.635 352.089 107.508 350.963 108.971C349.837 110.378 349.274 112.039 349.274 113.953C349.274 116.542 349.978 118.597 351.385 120.117C352.849 121.58 354.622 122.312 356.704 122.312C357.493 122.312 358.337 122.2 359.238 121.974C360.138 121.693 361.039 121.327 361.939 120.877C362.784 120.426 363.6 119.892 364.388 119.272C365.232 118.653 366.021 117.921 366.752 117.077L375.365 125.436C373.451 128.251 370.89 130.474 367.681 132.107C364.473 133.739 361.123 134.724 357.633 135.062C357.239 135.062 356.845 135.062 356.451 135.062C356.113 135.118 355.748 135.146 355.353 135.146C350.513 135.146 346.037 133.626 341.928 130.587C337.875 127.547 335.708 122.65 335.427 115.895C335.427 115.839 335.399 115.782 335.342 115.726C335.342 115.614 335.342 115.501 335.342 115.388C335.342 115.276 335.314 115.191 335.258 115.135C335.258 115.022 335.258 114.938 335.258 114.882C335.258 109.084 336.862 104.552 340.071 101.288C343.279 98.0228 346.797 95.9682 350.625 95.1238C351.301 94.9549 351.976 94.8423 352.652 94.7861C353.383 94.6735 354.087 94.6172 354.762 94.6172C360.786 94.6172 365.345 96.0807 368.441 99.0078C371.537 101.879 373.845 105.256 375.365 109.14V109.056Z" fill="white"/>
<path d="M287.197 95.875H302.818V117.575C302.818 118.532 303.015 119.292 303.409 119.855C303.859 120.361 304.338 120.643 304.844 120.699C304.901 120.699 304.929 120.699 304.929 120.699C304.985 120.699 305.041 120.699 305.098 120.699C305.21 120.699 305.323 120.699 305.435 120.699C305.548 120.643 305.661 120.615 305.773 120.615C306.28 120.446 306.73 120.108 307.124 119.601C307.574 119.039 307.8 118.391 307.8 117.659V95.875H323.505V118.166C323.505 123.457 321.647 127.51 317.932 130.325C314.273 133.139 310.248 134.659 305.858 134.884C305.689 134.884 305.52 134.884 305.351 134.884C305.238 134.884 305.098 134.884 304.929 134.884C300.482 134.884 296.401 133.505 292.686 130.747C289.027 127.989 287.197 123.823 287.197 118.25V95.875Z" fill="white"/>
<path d="M238.119 133.787V97.0572C238.119 96.1003 238.232 95.0308 238.457 93.8487C238.738 92.6666 239.132 91.4563 239.639 90.2179C240.821 87.3471 242.763 84.7296 245.465 82.3654C248.223 79.9449 251.826 78.6221 256.273 78.3969L257.624 78.3125C262.746 78.3688 267.362 80.0012 271.471 83.2098C275.58 86.4183 277.748 91.0623 277.973 97.1416V98.7459C277.973 98.9711 277.973 99.1962 277.973 99.4214C277.973 99.5903 277.973 99.7873 277.973 100.012C277.748 104.459 276.087 108.54 272.991 112.256C269.951 115.971 264.97 117.828 258.046 117.828C257.99 117.828 257.905 117.828 257.793 117.828C257.68 117.772 257.567 117.744 257.455 117.744C257.342 117.744 257.23 117.744 257.117 117.744C257.005 117.688 256.92 117.66 256.864 117.66V102.461C256.92 102.517 256.976 102.574 257.033 102.63C257.089 102.63 257.145 102.63 257.202 102.63C257.202 102.63 257.23 102.658 257.286 102.714C257.342 102.714 257.399 102.714 257.455 102.714C258.862 102.714 259.96 102.32 260.748 101.532C261.536 100.688 261.986 99.7591 262.099 98.7459C262.099 98.6896 262.099 98.6333 262.099 98.577C262.099 98.4645 262.099 98.38 262.099 98.3237C262.099 98.2674 262.099 98.2112 262.099 98.1549C262.099 98.0423 262.099 97.9579 262.099 97.9016C261.986 97.0572 261.649 96.2973 261.086 95.6218C260.523 94.9463 259.706 94.6086 258.637 94.6086C256.892 94.6086 255.738 95.1433 255.175 96.2129C254.669 97.2261 254.415 98.9429 254.415 101.363V133.787H238.119Z" fill="white"/>
<path d="M1009.87 197.994V209.923C1009.65 210.013 1009.4 210.058 1009.13 210.058C1008.86 210.058 1008.62 210.058 1008.39 210.058C1007.94 210.103 1007.51 210.125 1007.11 210.125C1006.71 210.17 1006.32 210.193 1005.96 210.193C1001.43 210.193 997.653 208.8 994.642 206.014C991.632 203.229 990.127 199.41 990.127 194.557C990.127 189.301 991.789 185.347 995.114 182.696C998.439 180 1002.42 178.652 1007.04 178.652C1012.21 178.652 1016.23 180.225 1019.11 183.37C1021.98 186.47 1023.67 189.907 1024.16 193.681C1024.25 194.086 1024.3 194.49 1024.3 194.894C1024.34 195.299 1024.36 195.703 1024.36 196.107V209.923H1011.83V194.49C1011.83 193.052 1011.38 191.974 1010.48 191.255C1009.58 190.536 1008.57 190.132 1007.45 190.042C1007.4 190.042 1007.33 190.042 1007.24 190.042C1007.2 190.042 1007.16 190.042 1007.11 190.042C1007.07 190.042 1007.02 190.042 1006.98 190.042C1006.98 190.042 1006.95 190.042 1006.91 190.042C1005.83 190.087 1004.84 190.469 1003.94 191.188C1003.04 191.862 1002.59 192.828 1002.59 194.086C1002.59 195.478 1002.98 196.647 1003.74 197.59C1004.5 198.534 1005.47 199.005 1006.64 199.005C1006.95 199.005 1007.29 198.96 1007.65 198.871C1008.01 198.781 1008.37 198.668 1008.73 198.534C1008.95 198.489 1009.15 198.421 1009.33 198.331C1009.51 198.241 1009.69 198.152 1009.87 198.062V197.994Z" fill="white"/>
<path d="M968.624 209.922V179.662H981.564V209.922H968.624ZM968.152 169.485C968.152 167.374 968.871 165.734 970.309 164.566C971.747 163.353 973.431 162.746 975.363 162.746C975.588 162.746 975.79 162.769 975.97 162.813C976.195 162.813 976.397 162.836 976.577 162.881C978.104 163.106 979.497 163.802 980.755 164.97C982.013 166.138 982.642 167.666 982.642 169.553V169.957C982.642 172.159 981.923 173.866 980.485 175.079C979.048 176.247 977.475 176.876 975.768 176.966C975.678 176.966 975.588 176.966 975.498 176.966C975.453 176.966 975.408 176.966 975.363 176.966C973.566 176.966 971.904 176.36 970.376 175.147C968.894 173.889 968.152 172.024 968.152 169.553V169.485Z" fill="white"/>
<path d="M937.715 209.923V179.663H949.239V183.505C950.138 182.426 951.059 181.573 952.002 180.944C952.946 180.27 953.889 179.753 954.833 179.394C955.911 179.034 956.989 178.832 958.068 178.787C959.191 178.697 960.269 178.652 961.303 178.652V189.233C961.078 189.278 960.831 189.301 960.561 189.301C960.292 189.301 960.045 189.301 959.82 189.301C957.394 189.39 955.17 189.885 953.148 190.783C951.171 191.682 950.183 193.771 950.183 197.051V209.923H937.715Z" fill="white"/>
<path d="M915.696 197.994V209.923C915.471 210.013 915.224 210.058 914.954 210.058C914.685 210.058 914.438 210.058 914.213 210.058C913.764 210.103 913.337 210.125 912.933 210.125C912.528 210.17 912.146 210.193 911.787 210.193C907.249 210.193 903.475 208.8 900.465 206.014C897.454 203.229 895.949 199.41 895.949 194.557C895.949 189.301 897.612 185.347 900.936 182.696C904.261 180 908.237 178.652 912.865 178.652C918.032 178.652 922.053 180.225 924.929 183.37C927.804 186.47 929.489 189.907 929.983 193.681C930.073 194.086 930.118 194.49 930.118 194.894C930.163 195.299 930.185 195.703 930.185 196.107V209.923H917.65V194.49C917.65 193.052 917.201 191.974 916.302 191.255C915.404 190.536 914.393 190.132 913.27 190.042C913.225 190.042 913.157 190.042 913.067 190.042C913.022 190.042 912.977 190.042 912.933 190.042C912.888 190.042 912.843 190.042 912.798 190.042C912.798 190.042 912.775 190.042 912.73 190.042C911.652 190.087 910.664 190.469 909.765 191.188C908.866 191.862 908.417 192.828 908.417 194.086C908.417 195.478 908.799 196.647 909.563 197.59C910.327 198.534 911.293 199.005 912.461 199.005C912.775 199.005 913.112 198.96 913.472 198.871C913.831 198.781 914.191 198.668 914.55 198.534C914.775 198.489 914.977 198.421 915.157 198.331C915.336 198.241 915.516 198.152 915.696 198.062V197.994Z" fill="white"/>
<path d="M857.924 179.664H870.392V196.984C870.392 197.748 870.549 198.355 870.863 198.804C871.223 199.208 871.605 199.433 872.009 199.478C872.054 199.478 872.077 199.478 872.077 199.478C872.121 199.478 872.166 199.478 872.211 199.478C872.301 199.478 872.391 199.478 872.481 199.478C872.571 199.433 872.661 199.41 872.75 199.41C873.155 199.276 873.514 199.006 873.829 198.602C874.188 198.152 874.368 197.636 874.368 197.052V179.664H886.903V197.456C886.903 201.679 885.421 204.914 882.455 207.161C879.535 209.407 876.322 210.62 872.818 210.8C872.683 210.8 872.548 210.8 872.413 210.8C872.324 210.8 872.211 210.8 872.077 210.8C868.527 210.8 865.27 209.699 862.304 207.498C859.384 205.296 857.924 201.971 857.924 197.523V179.664Z" fill="white"/>
<path d="M829.777 169.965H842.717V179.67H849.052V190.183H842.717V196.518C842.717 197.551 842.897 198.315 843.256 198.809C843.616 199.259 844.424 199.483 845.682 199.483L849.052 199.416V209.929H842.245C837.573 209.974 834.36 208.896 832.608 206.695C830.901 204.448 829.98 201.977 829.845 199.281C829.8 199.101 829.777 198.922 829.777 198.742C829.777 198.517 829.777 198.293 829.777 198.068V169.965Z" fill="white"/>
<path d="M798.73 209.923V179.663H810.255V183.505C811.153 182.426 812.074 181.573 813.018 180.944C813.961 180.27 814.905 179.753 815.849 179.394C816.927 179.034 818.005 178.832 819.083 178.787C820.207 178.697 821.285 178.652 822.318 178.652V189.233C822.094 189.278 821.847 189.301 821.577 189.301C821.307 189.301 821.06 189.301 820.836 189.301C818.409 189.39 816.185 189.885 814.164 190.783C812.187 191.682 811.198 193.771 811.198 197.051V209.923H798.73Z" fill="white"/>
<path d="M757.906 194.49C757.906 190.222 759.389 186.515 762.354 183.37C765.319 180.225 768.981 178.652 773.339 178.652C778.371 178.652 782.348 180.247 785.268 183.437C788.233 186.582 789.739 190.064 789.784 193.883C789.784 193.928 789.784 193.973 789.784 194.018C789.784 194.018 789.784 194.041 789.784 194.086C789.784 199.342 788.099 203.431 784.729 206.351C781.404 209.272 777.743 210.777 773.744 210.867C773.654 210.867 773.564 210.867 773.474 210.867C773.429 210.867 773.384 210.867 773.339 210.867C772.621 210.867 771.857 210.799 771.048 210.664C770.239 210.53 769.431 210.327 768.622 210.058C765.926 209.114 763.455 207.362 761.209 204.801C759.007 202.24 757.906 198.826 757.906 194.557V194.49ZM769.902 194.49C769.902 195.748 770.284 196.736 771.048 197.455C771.857 198.129 772.733 198.489 773.676 198.534C773.721 198.534 773.744 198.534 773.744 198.534C773.789 198.534 773.834 198.534 773.879 198.534C774.822 198.534 775.676 198.197 776.44 197.523C777.248 196.804 777.653 195.815 777.653 194.557C777.653 193.479 777.316 192.648 776.642 192.064C776.013 191.435 775.294 191.053 774.485 190.918C774.395 190.873 774.283 190.851 774.148 190.851C774.058 190.851 773.968 190.851 773.879 190.851C773.834 190.851 773.789 190.851 773.744 190.851C773.744 190.851 773.721 190.851 773.676 190.851C772.733 190.896 771.857 191.255 771.048 191.929C770.284 192.558 769.902 193.434 769.902 194.557V194.49Z" fill="white"/>
<path d="M717.658 209.934V180.618C717.658 179.854 717.748 179 717.928 178.057C718.152 177.113 718.467 176.147 718.871 175.159C719.815 172.867 721.365 170.778 723.521 168.891C725.723 166.959 728.599 165.903 732.148 165.724L733.226 165.656C737.315 165.701 740.999 167.004 744.279 169.565C747.559 172.126 749.288 175.833 749.468 180.685V181.966C749.468 182.145 749.468 182.325 749.468 182.505C749.468 182.64 749.468 182.797 749.468 182.976C749.288 186.526 747.963 189.783 745.492 192.749C743.066 195.714 739.089 197.197 733.563 197.197C733.518 197.197 733.451 197.197 733.361 197.197C733.271 197.152 733.181 197.129 733.091 197.129C733.002 197.129 732.912 197.129 732.822 197.129C732.732 197.084 732.665 197.062 732.62 197.062V184.931C732.665 184.976 732.709 185.021 732.754 185.066C732.799 185.066 732.844 185.066 732.889 185.066C732.889 185.066 732.912 185.088 732.957 185.133C733.002 185.133 733.046 185.133 733.091 185.133C734.215 185.133 735.091 184.819 735.72 184.19C736.349 183.516 736.708 182.774 736.798 181.966C736.798 181.921 736.798 181.876 736.798 181.831C736.798 181.741 736.798 181.674 736.798 181.629C736.798 181.584 736.798 181.539 736.798 181.494C736.798 181.404 736.798 181.337 736.798 181.292C736.708 180.618 736.439 180.011 735.989 179.472C735.54 178.933 734.889 178.663 734.035 178.663C732.642 178.663 731.721 179.09 731.272 179.944C730.867 180.752 730.665 182.123 730.665 184.055V209.934H717.658Z" fill="white"/>
<path d="M659.646 166.598H671.777V191.601C671.777 197.487 670.541 202.182 668.07 205.686C665.599 209.146 661.353 210.875 655.333 210.875C650.93 210.875 647.156 209.325 644.011 206.225C640.866 203.08 639.293 199.194 639.293 194.566C639.293 194.521 639.293 194.454 639.293 194.364C639.338 194.274 639.36 194.184 639.36 194.094C639.36 194.005 639.36 193.915 639.36 193.825C639.405 193.735 639.428 193.668 639.428 193.623C639.652 188.546 641.158 184.749 643.943 182.233C646.729 179.672 650.301 178.392 654.659 178.392C655.063 178.392 655.49 178.414 655.939 178.459C656.389 178.459 656.838 178.504 657.287 178.594C657.467 178.594 657.624 178.616 657.759 178.661C657.939 178.661 658.096 178.661 658.231 178.661V190.186C658.096 190.186 657.939 190.186 657.759 190.186C657.624 190.186 657.489 190.163 657.355 190.118C657.085 190.118 656.815 190.118 656.546 190.118C656.321 190.073 656.119 190.051 655.939 190.051C654.322 190.051 653.086 190.5 652.233 191.399C651.379 192.297 650.952 193.555 650.952 195.173C650.952 196.341 651.357 197.284 652.165 198.003C652.974 198.677 653.873 199.014 654.861 199.014C654.951 199.014 655.041 199.014 655.131 199.014C655.22 199.014 655.31 199.014 655.4 199.014C656.434 198.879 657.399 198.408 658.298 197.599C659.197 196.745 659.646 195.577 659.646 194.094V166.598Z" fill="white"/>
<path d="M616.797 197.994V209.923C616.573 210.013 616.325 210.058 616.056 210.058C615.786 210.058 615.539 210.058 615.315 210.058C614.865 210.103 614.438 210.125 614.034 210.125C613.63 210.17 613.248 210.193 612.888 210.193C608.351 210.193 604.577 208.8 601.566 206.014C598.556 203.229 597.051 199.41 597.051 194.557C597.051 189.301 598.713 185.347 602.038 182.696C605.363 180 609.339 178.652 613.967 178.652C619.134 178.652 623.155 180.225 626.03 183.37C628.906 186.47 630.591 189.907 631.085 193.681C631.175 194.086 631.22 194.49 631.22 194.894C631.265 195.299 631.287 195.703 631.287 196.107V209.923H618.752V194.49C618.752 193.052 618.302 191.974 617.404 191.255C616.505 190.536 615.494 190.132 614.371 190.042C614.326 190.042 614.259 190.042 614.169 190.042C614.124 190.042 614.079 190.042 614.034 190.042C613.989 190.042 613.944 190.042 613.899 190.042C613.899 190.042 613.877 190.042 613.832 190.042C612.754 190.087 611.765 190.469 610.867 191.188C609.968 191.862 609.519 192.828 609.519 194.086C609.519 195.478 609.901 196.647 610.664 197.59C611.428 198.534 612.394 199.005 613.562 199.005C613.877 199.005 614.214 198.96 614.573 198.871C614.933 198.781 615.292 198.668 615.652 198.534C615.876 198.489 616.078 198.421 616.258 198.331C616.438 198.241 616.618 198.152 616.797 198.062V197.994Z" fill="white"/>
<path d="M575.837 166.598H587.968V191.601C587.968 197.487 586.733 202.182 584.262 205.686C581.79 209.146 577.545 210.875 571.524 210.875C567.121 210.875 563.347 209.325 560.202 206.225C557.057 203.08 555.484 199.194 555.484 194.566C555.484 194.521 555.484 194.454 555.484 194.364C555.529 194.274 555.552 194.184 555.552 194.094C555.552 194.005 555.552 193.915 555.552 193.825C555.597 193.735 555.619 193.668 555.619 193.623C555.844 188.546 557.349 184.749 560.135 182.233C562.92 179.672 566.492 178.392 570.85 178.392C571.255 178.392 571.681 178.414 572.131 178.459C572.58 178.459 573.029 178.504 573.479 178.594C573.658 178.594 573.816 178.616 573.95 178.661C574.13 178.661 574.287 178.661 574.422 178.661V190.186C574.287 190.186 574.13 190.186 573.95 190.186C573.816 190.186 573.681 190.163 573.546 190.118C573.276 190.118 573.007 190.118 572.737 190.118C572.513 190.073 572.31 190.051 572.131 190.051C570.513 190.051 569.278 190.5 568.424 191.399C567.57 192.297 567.144 193.555 567.144 195.173C567.144 196.341 567.548 197.284 568.357 198.003C569.165 198.677 570.064 199.014 571.052 199.014C571.142 199.014 571.232 199.014 571.322 199.014C571.412 199.014 571.502 199.014 571.592 199.014C572.625 198.879 573.591 198.408 574.489 197.599C575.388 196.745 575.837 195.577 575.837 194.094V166.598Z" fill="white"/>
<path d="M545.598 190.177L530.165 198.938L526.66 192.603L532.524 189.233C532.254 189.009 531.94 188.784 531.58 188.559C531.266 188.335 530.929 188.177 530.569 188.087C530.434 188.043 530.3 188.02 530.165 188.02C530.03 187.975 529.895 187.953 529.761 187.953C529.671 187.953 529.558 187.975 529.424 188.02C529.334 188.02 529.221 188.02 529.087 188.02C528.008 188.245 527.02 188.941 526.121 190.109C525.223 191.233 524.773 192.558 524.773 194.086C524.773 196.152 525.335 197.792 526.458 199.005C527.626 200.173 529.042 200.758 530.704 200.758C531.333 200.758 532.007 200.668 532.726 200.488C533.445 200.263 534.164 199.971 534.882 199.612C535.556 199.252 536.208 198.826 536.837 198.331C537.511 197.837 538.14 197.253 538.724 196.579L545.598 203.251C544.07 205.498 542.026 207.272 539.465 208.575C536.904 209.878 534.231 210.664 531.445 210.934C531.131 210.934 530.816 210.934 530.502 210.934C530.232 210.979 529.94 211.001 529.626 211.001C525.762 211.001 522.19 209.788 518.91 207.362C515.675 204.936 513.945 201.027 513.721 195.636C513.721 195.591 513.698 195.546 513.653 195.501C513.653 195.411 513.653 195.321 513.653 195.231C513.653 195.141 513.631 195.074 513.586 195.029C513.586 194.939 513.586 194.872 513.586 194.827C513.586 190.199 514.866 186.582 517.427 183.976C519.988 181.371 522.796 179.731 525.852 179.057C526.391 178.922 526.93 178.832 527.469 178.787C528.053 178.697 528.615 178.652 529.154 178.652C533.961 178.652 537.601 179.82 540.072 182.157C542.543 184.448 544.385 187.144 545.598 190.244V190.177Z" fill="white"/>
<path d="M491.743 209.922V179.662H504.683V209.922H491.743ZM491.271 169.485C491.271 167.374 491.99 165.734 493.428 164.566C494.866 163.353 496.551 162.746 498.483 162.746C498.707 162.746 498.909 162.769 499.089 162.813C499.314 162.813 499.516 162.836 499.696 162.881C501.223 163.106 502.616 163.802 503.874 164.97C505.132 166.138 505.761 167.666 505.761 169.553V169.957C505.761 172.159 505.042 173.866 503.605 175.079C502.167 176.247 500.594 176.876 498.887 176.966C498.797 176.966 498.707 176.966 498.617 176.966C498.572 176.966 498.528 176.966 498.483 176.966C496.685 176.966 495.023 176.36 493.496 175.147C492.013 173.889 491.271 172.024 491.271 169.553V169.485Z" fill="white"/>
<path d="M483.004 209.916H477.275C471.704 209.961 467.503 208.389 464.673 205.199C461.887 202.009 460.494 198.504 460.494 194.685C460.494 194.55 460.494 194.438 460.494 194.348C460.494 194.214 460.494 194.079 460.494 193.944C460.674 190.125 462.201 186.62 465.077 183.43C467.997 180.241 472.221 178.646 477.747 178.646L483.004 178.578V189.698H477.275C476.062 189.743 475.074 190.215 474.31 191.113C473.546 192.012 473.097 192.978 472.962 194.011C472.962 194.101 472.962 194.191 472.962 194.281C472.962 194.371 472.962 194.461 472.962 194.55C472.962 194.595 472.962 194.663 472.962 194.753C472.962 194.798 472.962 194.843 472.962 194.887C473.052 195.921 473.456 196.864 474.175 197.718C474.939 198.572 475.972 198.998 477.275 198.998L483.004 198.931V209.916Z" fill="white"/>
<path d="M420.008 194.49C420.008 190.222 421.49 186.515 424.456 183.37C427.421 180.225 431.083 178.652 435.441 178.652C440.473 178.652 444.449 180.247 447.37 183.437C450.335 186.582 451.84 190.064 451.885 193.883C451.885 193.928 451.885 193.973 451.885 194.018C451.885 194.018 451.885 194.041 451.885 194.086C451.885 199.342 450.2 203.431 446.831 206.351C443.506 209.272 439.844 210.777 435.845 210.867C435.755 210.867 435.666 210.867 435.576 210.867C435.531 210.867 435.486 210.867 435.441 210.867C434.722 210.867 433.958 210.799 433.15 210.664C432.341 210.53 431.532 210.327 430.723 210.058C428.028 209.114 425.557 207.362 423.31 204.801C421.109 202.24 420.008 198.826 420.008 194.557V194.49ZM432.004 194.49C432.004 195.748 432.386 196.736 433.15 197.455C433.958 198.129 434.834 198.489 435.778 198.534C435.823 198.534 435.845 198.534 435.845 198.534C435.89 198.534 435.935 198.534 435.98 198.534C436.924 198.534 437.777 198.197 438.541 197.523C439.35 196.804 439.754 195.815 439.754 194.557C439.754 193.479 439.417 192.648 438.743 192.064C438.114 191.435 437.395 191.053 436.587 190.918C436.497 190.873 436.384 190.851 436.25 190.851C436.16 190.851 436.07 190.851 435.98 190.851C435.935 190.851 435.89 190.851 435.845 190.851C435.845 190.851 435.823 190.851 435.778 190.851C434.834 190.896 433.958 191.255 433.15 191.929C432.386 192.558 432.004 193.434 432.004 194.557V194.49Z" fill="white"/>
<path d="M383.002 209.933V197.465H392.572C392.752 197.51 392.931 197.532 393.111 197.532C393.336 197.487 393.56 197.442 393.785 197.398C394.459 197.308 395.065 197.106 395.605 196.791C396.144 196.477 396.413 196.095 396.413 195.645C396.413 195.466 396.323 195.241 396.144 194.971C395.964 194.657 395.694 194.342 395.335 194.028C395.29 193.938 395.223 193.871 395.133 193.826C395.088 193.736 395.021 193.668 394.931 193.623C394.392 193.264 393.852 192.905 393.313 192.545C392.819 192.141 392.347 191.736 391.898 191.332C389.292 189.355 387.158 187.311 385.496 185.199C383.833 183.088 383.002 180.594 383.002 177.719C383.002 177.674 382.979 177.629 382.935 177.584C382.935 177.539 382.935 177.471 382.935 177.382C382.935 177.337 382.912 177.292 382.867 177.247C382.867 177.202 382.867 177.157 382.867 177.112C382.867 174.416 383.698 172.372 385.361 170.979C387.023 169.586 388.843 168.598 390.82 168.014C391.943 167.654 393.044 167.43 394.122 167.34C395.2 167.205 396.121 167.138 396.885 167.138L409.892 167.07V178.595H400.794C399.806 178.64 398.997 178.819 398.368 179.134C397.784 179.448 397.492 179.808 397.492 180.212C397.492 180.392 397.559 180.616 397.694 180.886C397.873 181.156 398.121 181.425 398.435 181.695C398.48 181.74 398.547 181.807 398.637 181.897C398.727 181.942 398.817 182.009 398.907 182.099C399.132 182.279 399.356 182.459 399.581 182.638C399.85 182.818 400.12 182.998 400.39 183.177C400.524 183.312 400.659 183.447 400.794 183.582C400.974 183.672 401.131 183.762 401.266 183.851C403.737 185.693 405.983 187.625 408.005 189.647C410.027 191.669 411.15 194.14 411.375 197.061V198.476C411.375 202.34 409.915 205.193 406.994 207.035C404.119 208.832 400.951 209.82 397.492 210C397.312 210 397.132 210 396.952 210C396.773 210 396.593 210 396.413 210L383.002 209.933Z" fill="white"/>
<path d="M146.41 18H21V112.678H50.8596L99.8293 144.236L169.104 105.395C175.075 101.71 192.963 85.7483 189.408 56.842C185.825 27.7101 169.104 17.9998 146.41 18Z" fill="white"/>
<path d="M42.4989 129.67H21V210.996H189.408V129.67H159.548L99.8293 166.085L42.4989 129.67Z" fill="white"/>
</svg>
