<svg width="1214" height="224" viewBox="0 0 1214 224" fill="none" xmlns="http://www.w3.org/2000/svg">
<rect x="30" width="968" height="224" rx="12" fill="#1A1A1A"/>
<path d="M227 146.999V101.315C227 100.125 227.11 98.7943 227.33 97.324C227.605 95.8537 227.99 94.3484 228.485 92.8081C229.64 89.2373 231.538 85.9817 234.178 83.041C236.873 80.0304 240.393 78.3851 244.738 78.105L246.058 78C251.064 78.07 255.574 80.1004 259.589 84.0913C263.604 88.0821 265.722 93.8583 265.942 101.42V103.415C265.942 103.695 265.942 103.975 265.942 104.255C265.942 104.466 265.942 104.711 265.942 104.991C265.722 110.522 264.099 115.598 261.074 120.219C258.104 124.84 253.236 127.15 246.471 127.15C246.416 127.15 246.333 127.15 246.223 127.15C246.113 127.08 246.003 127.045 245.893 127.045C245.783 127.045 245.673 127.045 245.563 127.045C245.453 126.975 245.371 126.94 245.316 126.94V108.036C245.371 108.106 245.426 108.176 245.481 108.246C245.536 108.246 245.591 108.246 245.646 108.246C245.646 108.246 245.673 108.281 245.728 108.351C245.783 108.351 245.838 108.351 245.893 108.351C247.268 108.351 248.341 107.861 249.111 106.881C249.881 105.831 250.321 104.676 250.431 103.415C250.431 103.345 250.431 103.275 250.431 103.205C250.431 103.065 250.431 102.96 250.431 102.89C250.431 102.82 250.431 102.75 250.431 102.68C250.431 102.54 250.431 102.435 250.431 102.365C250.321 101.315 249.991 100.37 249.441 99.5295C248.891 98.6893 248.094 98.2692 247.048 98.2692C245.343 98.2692 244.216 98.9344 243.666 100.265C243.171 101.525 242.923 103.66 242.923 106.671V146.999H227Z" fill="white"/>
<path d="M274.49 97.9961H290.018V125.253C290.018 126.455 290.214 127.41 290.606 128.117C291.054 128.753 291.529 129.107 292.033 129.178C292.089 129.178 292.117 129.178 292.117 129.178C292.173 129.178 292.229 129.178 292.285 129.178C292.397 129.178 292.508 129.178 292.62 129.178C292.732 129.107 292.844 129.072 292.956 129.072C293.46 128.859 293.907 128.435 294.299 127.799C294.747 127.092 294.971 126.279 294.971 125.359V97.9961H310.583V125.996C310.583 132.642 308.736 137.733 305.043 141.268C301.406 144.804 297.405 146.713 293.04 146.996C292.872 146.996 292.704 146.996 292.536 146.996C292.425 146.996 292.285 146.996 292.117 146.996C287.696 146.996 283.639 145.263 279.946 141.799C276.309 138.334 274.49 133.102 274.49 126.102V97.9961Z" fill="white"/>
<path d="M358.073 115.452L339.299 128.723L335.036 119.127L342.168 114.023C341.84 113.683 341.458 113.342 341.02 113.002C340.638 112.662 340.228 112.424 339.791 112.288C339.627 112.22 339.463 112.186 339.299 112.186C339.135 112.117 338.971 112.083 338.807 112.083C338.697 112.083 338.561 112.117 338.397 112.186C338.288 112.186 338.151 112.186 337.987 112.186C336.675 112.526 335.473 113.581 334.38 115.35C333.287 117.051 332.74 119.059 332.74 121.373C332.74 124.503 333.423 126.987 334.79 128.825C336.211 130.594 337.932 131.479 339.955 131.479C340.72 131.479 341.54 131.343 342.414 131.071C343.289 130.731 344.163 130.288 345.037 129.744C345.857 129.199 346.65 128.553 347.415 127.804C348.235 127.056 349 126.171 349.71 125.15L358.073 135.256C356.214 138.659 353.728 141.347 350.612 143.321C347.497 145.294 344.245 146.485 340.856 146.894C340.474 146.894 340.091 146.894 339.709 146.894C339.381 146.962 339.025 146.996 338.643 146.996C333.942 146.996 329.597 145.158 325.608 141.483C321.672 137.808 319.568 131.887 319.295 123.721C319.295 123.653 319.267 123.585 319.213 123.517C319.213 123.381 319.213 123.244 319.213 123.108C319.213 122.972 319.186 122.87 319.131 122.802C319.131 122.666 319.131 122.564 319.131 122.496C319.131 115.486 320.689 110.008 323.804 106.061C326.919 102.113 330.335 99.6294 334.052 98.6086C334.708 98.4044 335.363 98.2683 336.019 98.2003C336.73 98.0641 337.413 97.9961 338.069 97.9961C343.917 97.9961 348.344 99.7655 351.35 103.304C354.356 106.775 356.597 110.858 358.073 115.554V115.452Z" fill="white"/>
<path d="M367.57 146.996V99.5801H381.492V105.599C382.577 103.91 383.69 102.572 384.83 101.587C385.969 100.531 387.109 99.7209 388.249 99.1577C389.551 98.5945 390.854 98.2777 392.157 98.2073C393.513 98.0665 394.816 97.9961 396.064 97.9961V114.576C395.793 114.646 395.494 114.681 395.169 114.681C394.843 114.681 394.545 114.681 394.273 114.681C391.343 114.822 388.656 115.597 386.214 117.005C383.825 118.413 382.631 121.686 382.631 126.826V146.996H367.57Z" fill="white"/>
<path d="M405.562 85.0039H420.228V100.059H427.408V116.368H420.228V126.196C420.228 127.799 420.432 128.984 420.839 129.751C421.246 130.448 422.163 130.796 423.589 130.796L427.408 130.692V147.001H419.693C414.397 147.071 410.757 145.398 408.771 141.983C406.836 138.498 405.792 134.664 405.639 130.483C405.588 130.204 405.562 129.925 405.562 129.646C405.562 129.298 405.562 128.949 405.562 128.601V85.0039Z" fill="white"/>
<path d="M436.906 122.086C436.906 115.594 438.762 109.956 442.473 105.172C446.183 100.388 450.766 97.9961 456.22 97.9961C462.517 97.9961 467.493 100.422 471.147 105.274C474.858 110.058 476.742 115.354 476.798 121.163C476.798 121.232 476.798 121.3 476.798 121.368C476.798 121.368 476.798 121.402 476.798 121.471C476.798 129.467 474.69 135.685 470.473 140.127C466.312 144.57 461.73 146.859 456.726 146.996C456.613 146.996 456.501 146.996 456.388 146.996C456.332 146.996 456.276 146.996 456.22 146.996C455.32 146.996 454.364 146.893 453.352 146.688C452.34 146.483 451.328 146.176 450.316 145.766C446.942 144.33 443.85 141.665 441.039 137.77C438.284 133.874 436.906 128.681 436.906 122.188V122.086ZM451.918 122.086C451.918 123.999 452.396 125.503 453.352 126.596C454.364 127.621 455.461 128.168 456.641 128.236C456.697 128.236 456.726 128.236 456.726 128.236C456.782 128.236 456.838 128.236 456.894 128.236C458.075 128.236 459.143 127.724 460.099 126.699C461.111 125.605 461.617 124.102 461.617 122.188C461.617 120.548 461.196 119.284 460.352 118.395C459.565 117.439 458.665 116.858 457.653 116.653C457.541 116.584 457.4 116.55 457.232 116.55C457.119 116.55 457.007 116.55 456.894 116.55C456.838 116.55 456.782 116.55 456.726 116.55C456.726 116.55 456.697 116.55 456.641 116.55C455.461 116.619 454.364 117.165 453.352 118.19C452.396 119.147 451.918 120.48 451.918 122.188V122.086Z" fill="white"/>
<path d="M522.603 78H536.791V116.963C536.791 126.135 535.346 133.452 532.456 138.913C529.566 144.304 524.6 146.999 517.558 146.999C512.409 146.999 507.995 144.584 504.316 139.753C500.638 134.852 498.799 128.796 498.799 121.584C498.799 121.514 498.799 121.409 498.799 121.269C498.851 121.129 498.878 120.989 498.878 120.849C498.878 120.709 498.878 120.569 498.878 120.429C498.93 120.289 498.956 120.184 498.956 120.114C499.219 112.202 500.98 106.286 504.238 102.365C507.496 98.3742 511.673 96.3788 516.77 96.3788C517.243 96.3788 517.742 96.4138 518.268 96.4838C518.793 96.4838 519.319 96.5539 519.844 96.6939C520.054 96.6939 520.238 96.7289 520.396 96.7989C520.606 96.7989 520.79 96.7989 520.948 96.7989V114.758C520.79 114.758 520.606 114.758 520.396 114.758C520.238 114.758 520.081 114.723 519.923 114.653C519.608 114.653 519.292 114.653 518.977 114.653C518.714 114.583 518.478 114.548 518.268 114.548C516.376 114.548 514.931 115.248 513.933 116.648C512.934 118.048 512.435 120.009 512.435 122.529C512.435 124.35 512.908 125.82 513.854 126.94C514.8 127.99 515.851 128.515 517.007 128.515C517.112 128.515 517.217 128.515 517.322 128.515C517.427 128.515 517.532 128.515 517.637 128.515C518.846 128.305 519.976 127.57 521.027 126.31C522.077 124.98 522.603 123.159 522.603 120.849V78Z" fill="white"/>
<path d="M584.281 115.452L565.965 128.723L561.806 119.127L568.764 114.023C568.444 113.683 568.071 113.342 567.645 113.002C567.271 112.662 566.871 112.424 566.445 112.288C566.285 112.22 566.125 112.186 565.965 112.186C565.805 112.117 565.645 112.083 565.485 112.083C565.378 112.083 565.245 112.117 565.085 112.186C564.978 112.186 564.845 112.186 564.685 112.186C563.405 112.526 562.232 113.581 561.166 115.35C560.1 117.051 559.566 119.059 559.566 121.373C559.566 124.503 560.233 126.987 561.566 128.825C562.952 130.594 564.632 131.479 566.605 131.479C567.351 131.479 568.151 131.343 569.004 131.071C569.857 130.731 570.711 130.288 571.564 129.744C572.364 129.199 573.137 128.553 573.883 127.804C574.683 127.056 575.43 126.171 576.123 125.15L584.281 135.256C582.468 138.659 580.042 141.347 577.003 143.321C573.963 145.294 570.791 146.485 567.485 146.894C567.111 146.894 566.738 146.894 566.365 146.894C566.045 146.962 565.698 146.996 565.325 146.996C560.739 146.996 556.5 145.158 552.608 141.483C548.769 137.808 546.716 131.887 546.449 123.721C546.449 123.653 546.422 123.585 546.369 123.517C546.369 123.381 546.369 123.244 546.369 123.108C546.369 122.972 546.342 122.87 546.289 122.802C546.289 122.666 546.289 122.564 546.289 122.496C546.289 115.486 547.809 110.008 550.848 106.061C553.887 102.113 557.22 99.6294 560.846 98.6086C561.486 98.4044 562.126 98.2683 562.766 98.2003C563.459 98.0641 564.125 97.9961 564.765 97.9961C570.471 97.9961 574.79 99.7655 577.722 103.304C580.655 106.775 582.841 110.858 584.281 115.554V115.452Z" fill="white"/>
<path d="M606.279 145.846L609.645 89.6397C609.805 86.2841 610.927 83.5577 613.011 81.4605C615.148 79.3632 617.445 78.2097 619.902 78C620.009 78 620.116 78 620.223 78C620.383 78 620.517 78 620.624 78C620.73 78 620.837 78 620.944 78C621.051 78 621.158 78 621.265 78C623.348 78.1398 625.325 79.0486 627.195 80.7264C629.064 82.3343 630.293 84.851 630.881 88.2765L634.888 109.878L639.455 86.5987C639.99 84.1519 641.245 82.1595 643.222 80.6216C645.252 79.0836 647.389 78.2796 649.633 78.2097C649.686 78.2097 649.739 78.2097 649.793 78.2097C649.846 78.2097 649.9 78.2097 649.953 78.2097C650.113 78.2097 650.274 78.2097 650.434 78.2097C650.594 78.2097 650.754 78.2097 650.915 78.2097C653.265 78.4894 655.429 79.6428 657.406 81.6702C659.382 83.6276 660.504 86.8084 660.771 91.2126L664.217 145.846H648.671L646.988 106.942L640.737 141.442C640.524 143.05 639.963 144.308 639.055 145.217C638.2 146.056 637.265 146.615 636.25 146.894C636.036 146.894 635.823 146.894 635.609 146.894C635.449 146.964 635.288 146.999 635.128 146.999C635.021 146.999 634.888 146.999 634.727 146.999C634.621 146.999 634.514 146.964 634.407 146.894C633.499 146.755 632.617 146.3 631.762 145.531C630.961 144.762 630.48 143.679 630.32 142.281L623.508 106.942L621.665 145.846H606.279Z" fill="white"/>
<path d="M697.963 128.045V146.577C697.677 146.716 697.361 146.786 697.017 146.786C696.673 146.786 696.358 146.786 696.071 146.786C695.498 146.856 694.953 146.891 694.437 146.891C693.921 146.961 693.434 146.996 692.975 146.996C687.184 146.996 682.368 144.832 678.526 140.504C674.684 136.177 672.764 130.244 672.764 122.705C672.764 114.539 674.885 108.396 679.128 104.278C683.371 100.09 688.445 97.9961 694.351 97.9961C700.945 97.9961 706.076 100.439 709.746 105.325C713.416 110.141 715.566 115.481 716.196 121.344C716.311 121.972 716.369 122.601 716.369 123.229C716.426 123.857 716.455 124.485 716.455 125.113V146.577H700.457V122.601C700.457 120.367 699.884 118.692 698.737 117.575C697.591 116.458 696.301 115.83 694.867 115.69C694.81 115.69 694.724 115.69 694.609 115.69C694.552 115.69 694.494 115.69 694.437 115.69C694.38 115.69 694.322 115.69 694.265 115.69C694.265 115.69 694.236 115.69 694.179 115.69C692.803 115.76 691.542 116.353 690.395 117.47C689.248 118.517 688.675 120.018 688.675 121.972C688.675 124.136 689.162 125.951 690.137 127.417C691.111 128.883 692.344 129.615 693.835 129.615C694.236 129.615 694.666 129.546 695.125 129.406C695.584 129.266 696.043 129.092 696.501 128.883C696.788 128.813 697.046 128.708 697.275 128.568C697.505 128.429 697.734 128.289 697.963 128.15V128.045Z" fill="white"/>
<path d="M745.338 146.996V119.738C745.338 118.395 745.095 117.334 744.609 116.557C744.123 115.779 743.61 115.355 743.07 115.284C743.016 115.284 742.962 115.284 742.908 115.284C742.908 115.284 742.881 115.284 742.827 115.284C742.719 115.284 742.611 115.284 742.503 115.284C742.449 115.284 742.368 115.319 742.26 115.39C741.719 115.602 741.206 116.132 740.72 116.981C740.234 117.759 739.991 118.713 739.991 119.844V146.996H725.004V118.147C725.004 111.43 726.489 106.481 729.46 103.299C732.484 100.117 735.806 98.385 739.424 98.1022C739.64 98.0314 739.856 97.9961 740.072 97.9961C740.288 97.9961 740.504 97.9961 740.72 97.9961C743.259 97.9961 745.635 98.6325 747.849 99.9052C750.118 101.107 751.765 102.733 752.791 104.784C754.033 103.016 755.6 101.602 757.49 100.542C759.38 99.4102 761.325 98.7032 763.323 98.4203C763.647 98.4203 763.944 98.4203 764.214 98.4203C764.538 98.3496 764.862 98.3143 765.186 98.3143C768.913 98.3143 772.315 99.8345 775.394 102.875C778.526 105.915 780.092 110.794 780.092 117.511V146.996H765.024V118.996C765.024 117.865 764.808 116.981 764.376 116.344C763.998 115.708 763.566 115.355 763.08 115.284C763.026 115.284 762.972 115.284 762.918 115.284C762.918 115.284 762.891 115.284 762.837 115.284C762.783 115.284 762.702 115.284 762.594 115.284C762.54 115.284 762.486 115.319 762.432 115.39C761.946 115.531 761.487 116.026 761.054 116.875C760.622 117.723 760.406 118.961 760.406 120.587V146.996H745.338Z" fill="white"/>
<path d="M788.641 122.086C788.641 115.594 790.496 109.956 794.207 105.172C797.918 100.388 802.5 97.9961 807.954 97.9961C814.251 97.9961 819.227 100.422 822.882 105.274C826.593 110.058 828.476 115.354 828.532 121.163C828.532 121.232 828.532 121.3 828.532 121.368C828.532 121.368 828.532 121.402 828.532 121.471C828.532 129.467 826.424 135.685 822.207 140.127C818.046 144.57 813.464 146.859 808.46 146.996C808.347 146.996 808.235 146.996 808.123 146.996C808.066 146.996 808.01 146.996 807.954 146.996C807.054 146.996 806.098 146.893 805.086 146.688C804.074 146.483 803.062 146.176 802.05 145.766C798.677 144.33 795.584 141.665 792.773 137.77C790.018 133.874 788.641 128.681 788.641 122.188V122.086ZM803.653 122.086C803.653 123.999 804.131 125.503 805.086 126.596C806.098 127.621 807.195 128.168 808.376 128.236C808.432 128.236 808.46 128.236 808.46 128.236C808.516 128.236 808.572 128.236 808.629 128.236C809.809 128.236 810.878 127.724 811.833 126.699C812.845 125.605 813.351 124.102 813.351 122.188C813.351 120.548 812.93 119.284 812.086 118.395C811.299 117.439 810.4 116.858 809.388 116.653C809.275 116.584 809.135 116.55 808.966 116.55C808.854 116.55 808.741 116.55 808.629 116.55C808.572 116.55 808.516 116.55 808.46 116.55C808.46 116.55 808.432 116.55 808.376 116.55C807.195 116.619 806.098 117.165 805.086 118.19C804.131 119.147 803.653 120.48 803.653 122.188V122.086Z" fill="white"/>
<path d="M837.08 147V117.457C837.08 111.672 838.925 107.334 842.614 104.442C846.303 101.481 850.377 100 854.837 100C855.002 100 855.14 100 855.25 100C855.415 100 855.58 100 855.746 100C860.096 100.207 864.088 101.825 867.722 104.855C871.356 107.885 873.173 112.361 873.173 118.283V147H857.232V119.729C857.232 118.834 857.04 118.146 856.654 117.664C856.324 117.113 855.938 116.768 855.498 116.631C855.443 116.562 855.36 116.527 855.25 116.527C855.195 116.527 855.113 116.527 855.002 116.527C854.892 116.527 854.782 116.562 854.672 116.631C854.562 116.631 854.452 116.631 854.342 116.631C853.846 116.837 853.378 117.25 852.938 117.87C852.552 118.421 852.359 119.075 852.359 119.833V147H837.08Z" fill="white"/>
<path d="M905.277 128.045V146.577C905.009 146.716 904.714 146.786 904.393 146.786C904.071 146.786 903.776 146.786 903.508 146.786C902.972 146.856 902.463 146.891 901.981 146.891C901.498 146.961 901.043 146.996 900.614 146.996C895.2 146.996 890.698 144.832 887.107 140.504C883.516 136.177 881.721 130.244 881.721 122.705C881.721 114.539 883.704 108.396 887.67 104.278C891.636 100.09 896.38 97.9961 901.9 97.9961C908.064 97.9961 912.861 100.439 916.291 105.325C919.721 110.141 921.731 115.481 922.321 121.344C922.428 121.972 922.482 122.601 922.482 123.229C922.535 123.857 922.562 124.485 922.562 125.113V146.577H907.608V122.601C907.608 120.367 907.072 118.692 906 117.575C904.929 116.458 903.723 115.83 902.383 115.69C902.329 115.69 902.249 115.69 902.141 115.69C902.088 115.69 902.034 115.69 901.981 115.69C901.927 115.69 901.873 115.69 901.82 115.69C901.82 115.69 901.793 115.69 901.739 115.69C900.453 115.76 899.274 116.353 898.202 117.47C897.13 118.517 896.594 120.018 896.594 121.972C896.594 124.136 897.05 125.951 897.961 127.417C898.872 128.883 900.024 129.615 901.418 129.615C901.793 129.615 902.195 129.546 902.624 129.406C903.053 129.266 903.481 129.092 903.91 128.883C904.178 128.813 904.419 128.708 904.634 128.568C904.848 128.429 905.062 128.289 905.277 128.15V128.045Z" fill="white"/>
<path d="M932.061 146.995V79.9961H948.207V146.995H932.061Z" fill="white"/>
<path d="M162.433 53H80V111.378H99.6269L131.815 130.836L177.349 106.887C181.275 104.615 193.032 94.7732 190.696 76.9497C188.34 58.9872 177.349 52.9999 162.433 53Z" fill="white"/>
<path d="M94.1313 121.855H80V172H190.696V121.855H171.069L131.815 144.308L94.1313 121.855Z" fill="white"/>
</svg>
