<svg width="1214" height="193" viewBox="0 0 1214 193" fill="none" xmlns="http://www.w3.org/2000/svg">
<path d="M1194.96 106.742C1194.96 104.096 1195.84 102.042 1197.58 100.578C1199.38 99.1146 1201.49 98.3828 1203.91 98.3828C1204.19 98.3828 1204.48 98.411 1204.76 98.4672C1205.04 98.4672 1205.32 98.4954 1205.6 98.5517C1207.46 98.8894 1209.18 99.7619 1210.75 101.169C1212.33 102.576 1213.12 104.462 1213.12 106.826V107.333C1213.12 110.035 1212.22 112.09 1210.41 113.497C1208.67 114.904 1206.73 115.692 1204.59 115.861C1204.48 115.861 1204.36 115.861 1204.25 115.861C1204.14 115.861 1204.03 115.861 1203.91 115.861C1201.66 115.861 1199.61 115.129 1197.75 113.666C1195.89 112.202 1194.96 109.922 1194.96 106.826V106.742Z" fill="black"/>
<path d="M1138.33 115.111V80.7459C1138.33 75.6235 1140.1 70.9514 1143.65 66.7296C1147.19 62.4515 1152.29 60.3125 1158.93 60.3125C1159.04 60.3125 1159.16 60.3125 1159.27 60.3125C1159.38 60.3125 1159.52 60.3125 1159.69 60.3125C1164.59 60.4814 1169.09 62.1982 1173.2 65.4631C1177.37 68.7279 1179.45 74.0755 1179.45 81.5058V115.111H1162.48V99.4906H1157.66V84.9677H1162.48V79.5638C1162.48 78.438 1162.11 77.5937 1161.38 77.0308C1160.65 76.4116 1159.83 76.102 1158.93 76.102C1158.03 76.102 1157.19 76.4116 1156.4 77.0308C1155.67 77.5937 1155.3 78.4662 1155.3 79.6483V115.111H1138.33Z" fill="black"/>
<path d="M1108.52 106.742C1108.52 104.096 1109.39 102.042 1111.14 100.578C1112.94 99.1146 1115.05 98.3828 1117.47 98.3828C1117.75 98.3828 1118.03 98.411 1118.31 98.4672C1118.59 98.4672 1118.88 98.4954 1119.16 98.5517C1121.01 98.8894 1122.73 99.7619 1124.31 101.169C1125.88 102.576 1126.67 104.462 1126.67 106.826V107.333C1126.67 110.035 1125.77 112.09 1123.97 113.497C1122.22 114.904 1120.28 115.692 1118.14 115.861C1118.03 115.861 1117.92 115.861 1117.81 115.861C1117.69 115.861 1117.58 115.861 1117.47 115.861C1115.22 115.861 1113.16 115.129 1111.3 113.666C1109.45 112.202 1108.52 109.922 1108.52 106.826V106.742Z" fill="black"/>
<path d="M1061.65 115.107V99.4867H1073.64C1073.86 99.543 1074.09 99.5711 1074.31 99.5711C1074.59 99.5149 1074.87 99.4586 1075.16 99.4023C1076 99.2897 1076.76 99.0364 1077.43 98.6424C1078.11 98.2483 1078.45 97.7699 1078.45 97.207C1078.45 96.9818 1078.34 96.7003 1078.11 96.3626C1077.89 95.9686 1077.55 95.5745 1077.1 95.1805C1077.04 95.0679 1076.96 94.9835 1076.84 94.9272C1076.79 94.8146 1076.7 94.7302 1076.59 94.6739C1075.91 94.2236 1075.24 93.7732 1074.56 93.3229C1073.94 92.8163 1073.35 92.3097 1072.79 91.8031C1069.53 89.3263 1066.85 86.7651 1064.77 84.1194C1062.69 81.4738 1061.65 78.3497 1061.65 74.7471C1061.65 74.6908 1061.62 74.6345 1061.56 74.5782C1061.56 74.5219 1061.56 74.4375 1061.56 74.3249C1061.56 74.2686 1061.53 74.2123 1061.48 74.156C1061.48 74.0997 1061.48 74.0434 1061.48 73.9872C1061.48 70.6097 1062.52 68.0485 1064.6 66.3035C1066.68 64.5585 1068.96 63.3201 1071.44 62.5883C1072.85 62.138 1074.23 61.8566 1075.58 61.744C1076.93 61.5751 1078.08 61.4907 1079.04 61.4907L1095.34 61.4062V75.8447H1083.94C1082.7 75.901 1081.68 76.1262 1080.9 76.5202C1080.16 76.9143 1079.8 77.3646 1079.8 77.8712C1079.8 78.0964 1079.88 78.3778 1080.05 78.7155C1080.28 79.0533 1080.59 79.391 1080.98 79.7288C1081.04 79.7851 1081.12 79.8695 1081.23 79.9821C1081.35 80.0384 1081.46 80.1228 1081.57 80.2354C1081.85 80.4606 1082.14 80.6857 1082.42 80.9109C1082.75 81.136 1083.09 81.3612 1083.43 81.5864C1083.6 81.7552 1083.77 81.9241 1083.94 82.093C1084.16 82.2055 1084.36 82.3181 1084.53 82.4307C1087.62 84.7386 1090.44 87.1591 1092.97 89.6922C1095.5 92.2252 1096.91 95.3212 1097.19 98.9801V100.753C1097.19 105.594 1095.36 109.169 1091.7 111.477C1088.1 113.728 1084.13 114.967 1079.8 115.192C1079.57 115.192 1079.35 115.192 1079.12 115.192C1078.9 115.192 1078.67 115.192 1078.45 115.192L1061.65 115.107Z" fill="black"/>
<path d="M1001.92 115.787V62.0859H1018.13V115.787H1001.92Z" fill="black"/>
<path d="M971.708 100.85V115.795C971.427 115.908 971.117 115.964 970.78 115.964C970.442 115.964 970.132 115.964 969.851 115.964C969.288 116.02 968.753 116.049 968.247 116.049C967.74 116.105 967.261 116.133 966.811 116.133C961.126 116.133 956.397 114.388 952.626 110.898C948.854 107.408 946.969 102.623 946.969 96.544C946.969 89.958 949.051 85.0045 953.217 81.6833C957.382 78.3059 962.364 76.6172 968.162 76.6172C974.635 76.6172 979.673 78.5873 983.276 82.5277C986.879 86.4117 988.989 90.7179 989.609 95.4463C989.721 95.9529 989.778 96.4596 989.778 96.9662C989.834 97.4728 989.862 97.9794 989.862 98.486V115.795H974.157V96.4596C974.157 94.6583 973.594 93.3073 972.468 92.4066C971.342 91.506 970.076 90.9994 968.669 90.8868C968.612 90.8868 968.528 90.8868 968.415 90.8868C968.359 90.8868 968.303 90.8868 968.247 90.8868C968.19 90.8868 968.134 90.8868 968.078 90.8868C968.078 90.8868 968.049 90.8868 967.993 90.8868C966.642 90.9431 965.404 91.4216 964.278 92.3222C963.152 93.1666 962.589 94.3768 962.589 95.9529C962.589 97.6979 963.068 99.1615 964.025 100.344C964.982 101.526 966.192 102.117 967.655 102.117C968.049 102.117 968.472 102.06 968.922 101.948C969.372 101.835 969.823 101.695 970.273 101.526C970.554 101.469 970.808 101.385 971.033 101.272C971.258 101.16 971.483 101.047 971.708 100.935V100.85Z" fill="black"/>
<path d="M898.006 115.785V91.6368C898.006 86.9084 899.892 83.3621 903.663 80.9979C907.434 78.5774 911.6 77.3672 916.159 77.3672C916.328 77.3672 916.469 77.3672 916.582 77.3672C916.75 77.3672 916.919 77.3672 917.088 77.3672C921.535 77.5361 925.616 78.8589 929.331 81.3357C933.047 83.8124 934.904 87.4713 934.904 92.3123V115.785H918.608V93.4944C918.608 92.7626 918.411 92.1997 918.017 91.8057C917.679 91.3554 917.285 91.0739 916.835 90.9613C916.779 90.905 916.694 90.8769 916.582 90.8769C916.525 90.8769 916.441 90.8769 916.328 90.8769C916.216 90.8769 916.103 90.905 915.991 90.9613C915.878 90.9613 915.765 90.9613 915.653 90.9613C915.146 91.1302 914.668 91.4679 914.217 91.9745C913.823 92.4249 913.626 92.9596 913.626 93.5788V115.785H898.006Z" fill="black"/>
<path d="M846.006 96.4596C846.006 91.112 847.863 86.468 851.579 82.5277C855.294 78.5873 859.881 76.6172 865.342 76.6172C871.646 76.6172 876.628 78.6155 880.287 82.6121C884.002 86.5524 885.888 90.915 885.944 95.6996C885.944 95.7559 885.944 95.8122 885.944 95.8685C885.944 95.8685 885.944 95.8967 885.944 95.9529C885.944 102.539 883.833 107.661 879.611 111.32C875.446 114.979 870.858 116.865 865.848 116.977C865.736 116.977 865.623 116.977 865.51 116.977C865.454 116.977 865.398 116.977 865.342 116.977C864.441 116.977 863.484 116.893 862.471 116.724C861.458 116.555 860.444 116.302 859.431 115.964C856.054 114.782 852.958 112.587 850.143 109.378C847.385 106.17 846.006 101.892 846.006 96.544V96.4596ZM861.035 96.4596C861.035 98.0357 861.514 99.2741 862.471 100.175C863.484 101.019 864.582 101.469 865.764 101.526C865.82 101.526 865.848 101.526 865.848 101.526C865.904 101.526 865.961 101.526 866.017 101.526C867.199 101.526 868.269 101.104 869.226 100.259C870.239 99.3585 870.745 98.1201 870.745 96.544C870.745 95.193 870.323 94.1517 869.479 93.4199C868.691 92.6318 867.79 92.1533 866.777 91.9845C866.664 91.9282 866.524 91.9 866.355 91.9C866.242 91.9 866.13 91.9 866.017 91.9C865.961 91.9 865.904 91.9 865.848 91.9C865.848 91.9 865.82 91.9 865.764 91.9C864.582 91.9563 863.484 92.4067 862.471 93.251C861.514 94.0391 861.035 95.1367 861.035 96.544V96.4596Z" fill="black"/>
<path d="M797.853 115.791V94.0906C797.853 93.021 797.6 92.1767 797.094 91.5575C796.587 90.9383 796.052 90.6005 795.489 90.5443C795.433 90.5443 795.377 90.5443 795.32 90.5443C795.32 90.5443 795.292 90.5443 795.236 90.5443C795.123 90.5443 795.011 90.5443 794.898 90.5443C794.842 90.5443 794.757 90.5724 794.645 90.6287C794.082 90.7976 793.547 91.2197 793.041 91.8952C792.534 92.5144 792.281 93.2743 792.281 94.175V115.791H776.66V92.824C776.66 87.4764 778.208 83.5361 781.304 81.003C784.456 78.47 787.918 77.0908 791.69 76.8657C791.915 76.8094 792.14 76.7812 792.365 76.7812C792.59 76.7812 792.815 76.7812 793.041 76.7812C795.686 76.7812 798.163 77.2879 800.471 78.3011C802.835 79.258 804.552 80.5527 805.621 82.1851C806.916 80.7779 808.549 79.6521 810.519 78.8077C812.489 77.9071 814.515 77.3442 816.598 77.119C816.936 77.119 817.246 77.119 817.527 77.119C817.865 77.0627 818.202 77.0346 818.54 77.0346C822.424 77.0346 825.971 78.2448 829.179 80.6653C832.444 83.0858 834.076 86.9698 834.076 92.3174V115.791H818.371V93.4995C818.371 92.5989 818.146 91.8952 817.696 91.3886C817.302 90.882 816.852 90.6005 816.345 90.5443C816.289 90.5443 816.232 90.5443 816.176 90.5443C816.176 90.5443 816.148 90.5443 816.092 90.5443C816.035 90.5443 815.951 90.5443 815.838 90.5443C815.782 90.5443 815.726 90.5724 815.669 90.6287C815.163 90.7413 814.684 91.1353 814.234 91.8108C813.784 92.4863 813.559 93.4714 813.559 94.766V115.791H797.853Z" fill="black"/>
<path d="M748.902 100.85V115.795C748.62 115.908 748.311 115.964 747.973 115.964C747.635 115.964 747.326 115.964 747.044 115.964C746.481 116.02 745.947 116.049 745.44 116.049C744.933 116.105 744.455 116.133 744.004 116.133C738.319 116.133 733.591 114.388 729.819 110.898C726.048 107.408 724.162 102.623 724.162 96.544C724.162 89.958 726.245 85.0045 730.41 81.6833C734.576 78.3059 739.557 76.6172 745.355 76.6172C751.829 76.6172 756.867 78.5873 760.469 82.5277C764.072 86.4117 766.183 90.7179 766.802 95.4463C766.915 95.9529 766.971 96.4596 766.971 96.9662C767.027 97.4728 767.055 97.9794 767.055 98.486V115.795H751.35V96.4596C751.35 94.6583 750.787 93.3073 749.662 92.4066C748.536 91.506 747.269 90.9994 745.862 90.8868C745.806 90.8868 745.721 90.8868 745.609 90.8868C745.552 90.8868 745.496 90.8868 745.44 90.8868C745.384 90.8868 745.327 90.8868 745.271 90.8868C745.271 90.8868 745.243 90.8868 745.187 90.8868C743.836 90.9431 742.597 91.4216 741.471 92.3222C740.346 93.1666 739.783 94.3768 739.783 95.9529C739.783 97.6979 740.261 99.1615 741.218 100.344C742.175 101.526 743.385 102.117 744.849 102.117C745.243 102.117 745.665 102.06 746.115 101.948C746.566 101.835 747.016 101.695 747.466 101.526C747.748 101.469 748.001 101.385 748.226 101.272C748.451 101.16 748.677 101.047 748.902 100.935V100.85Z" fill="black"/>
<path d="M651.135 115.79L654.681 70.5325C654.85 67.8306 656.032 65.6352 658.227 63.9465C660.479 62.2578 662.899 61.329 665.489 61.1602C665.601 61.1602 665.714 61.1602 665.826 61.1602C665.995 61.1602 666.136 61.1602 666.249 61.1602C666.361 61.1602 666.474 61.1602 666.586 61.1602C666.699 61.1602 666.812 61.1602 666.924 61.1602C669.12 61.2727 671.202 62.0045 673.172 63.3555C675.143 64.6502 676.437 66.6766 677.056 69.4348L681.278 86.8286L686.091 68.0839C686.654 66.1137 687.977 64.5094 690.06 63.271C692.199 62.0327 694.45 61.3853 696.814 61.329C696.871 61.329 696.927 61.329 696.983 61.329C697.04 61.329 697.096 61.329 697.152 61.329C697.321 61.329 697.49 61.329 697.659 61.329C697.828 61.329 697.996 61.329 698.165 61.329C700.642 61.5542 702.922 62.483 705.005 64.1154C707.087 65.6915 708.269 68.2527 708.551 71.799L712.182 115.79H695.801L694.028 84.4644L687.442 112.244C687.217 113.538 686.626 114.552 685.669 115.283C684.768 115.959 683.783 116.409 682.714 116.634C682.488 116.634 682.263 116.634 682.038 116.634C681.869 116.691 681.7 116.719 681.532 116.719C681.419 116.719 681.278 116.719 681.109 116.719C680.997 116.719 680.884 116.691 680.772 116.634C679.815 116.522 678.886 116.156 677.985 115.537C677.141 114.918 676.634 114.045 676.465 112.919L669.288 84.4644L667.346 115.79H651.135Z" fill="black"/>
<path d="M606.476 91.0557L587.14 102.032L582.75 94.0954L590.096 89.8736C589.758 89.5921 589.364 89.3107 588.913 89.0292C588.519 88.7478 588.097 88.5508 587.647 88.4382C587.478 88.3819 587.309 88.3537 587.14 88.3537C586.971 88.2974 586.803 88.2693 586.634 88.2693C586.521 88.2693 586.38 88.2974 586.212 88.3537C586.099 88.3537 585.958 88.3537 585.789 88.3537C584.438 88.6352 583.2 89.5077 582.074 90.9712C580.948 92.3785 580.385 94.0391 580.385 95.9529C580.385 98.5423 581.089 100.597 582.496 102.117C583.96 103.58 585.733 104.312 587.816 104.312C588.604 104.312 589.448 104.2 590.349 103.974C591.249 103.693 592.15 103.327 593.051 102.877C593.895 102.426 594.711 101.892 595.499 101.272C596.344 100.653 597.132 99.9214 597.864 99.0771L606.476 107.436C604.562 110.251 602.001 112.474 598.792 114.107C595.584 115.739 592.235 116.724 588.745 117.062C588.351 117.062 587.957 117.062 587.562 117.062C587.225 117.118 586.859 117.146 586.465 117.146C581.624 117.146 577.149 115.626 573.04 112.587C568.987 109.547 566.819 104.65 566.538 97.895C566.538 97.8387 566.51 97.7824 566.454 97.7261C566.454 97.6135 566.454 97.5009 566.454 97.3883C566.454 97.2758 566.425 97.1913 566.369 97.135C566.369 97.0225 566.369 96.938 566.369 96.8817C566.369 91.0838 567.973 86.5524 571.182 83.2876C574.391 80.0228 577.909 77.9682 581.736 77.1238C582.412 76.9549 583.087 76.8423 583.763 76.7861C584.495 76.6735 585.198 76.6172 585.874 76.6172C591.897 76.6172 596.456 78.0807 599.552 81.0078C602.648 83.8786 604.956 87.2561 606.476 91.1401V91.0557Z" fill="black"/>
<path d="M539.369 61.5H554.567V92.8256C554.567 100.2 553.019 106.082 549.923 110.473C546.827 114.807 541.508 116.974 533.965 116.974C528.448 116.974 523.72 115.032 519.78 111.148C515.839 107.208 513.869 102.339 513.869 96.5408C513.869 96.4845 513.869 96.4001 513.869 96.2875C513.925 96.1749 513.954 96.0623 513.954 95.9497C513.954 95.8372 513.954 95.7246 513.954 95.612C514.01 95.4994 514.038 95.415 514.038 95.3587C514.319 88.9979 516.205 84.2413 519.695 81.0891C523.185 77.8805 527.66 76.2762 533.12 76.2762C533.627 76.2762 534.162 76.3044 534.725 76.3607C535.288 76.3607 535.851 76.417 536.413 76.5295C536.639 76.5295 536.836 76.5577 537.004 76.614C537.23 76.614 537.427 76.614 537.596 76.614V91.0525C537.427 91.0525 537.23 91.0525 537.004 91.0525C536.836 91.0525 536.667 91.0243 536.498 90.968C536.16 90.968 535.822 90.968 535.485 90.968C535.203 90.9117 534.95 90.8836 534.725 90.8836C532.698 90.8836 531.15 91.4465 530.081 92.5723C529.011 93.6981 528.477 95.2742 528.477 97.3007C528.477 98.7643 528.983 99.9464 529.996 100.847C531.01 101.691 532.135 102.114 533.374 102.114C533.486 102.114 533.599 102.114 533.712 102.114C533.824 102.114 533.937 102.114 534.049 102.114C535.344 101.945 536.554 101.354 537.68 100.34C538.806 99.2709 539.369 97.8073 539.369 95.9497V61.5Z" fill="black"/>
<path d="M441.672 96.4596C441.672 91.112 443.529 86.468 447.245 82.5277C450.96 78.5873 455.547 76.6172 461.008 76.6172C467.312 76.6172 472.294 78.6155 475.953 82.6121C479.668 86.5524 481.554 90.915 481.61 95.6996C481.61 95.7559 481.61 95.8122 481.61 95.8685C481.61 95.8685 481.61 95.8967 481.61 95.9529C481.61 102.539 479.499 107.661 475.277 111.32C471.112 114.979 466.524 116.865 461.514 116.977C461.402 116.977 461.289 116.977 461.177 116.977C461.12 116.977 461.064 116.977 461.008 116.977C460.107 116.977 459.15 116.893 458.137 116.724C457.124 116.555 456.11 116.302 455.097 115.964C451.72 114.782 448.624 112.587 445.809 109.378C443.051 106.17 441.672 101.892 441.672 96.544V96.4596ZM456.701 96.4596C456.701 98.0357 457.18 99.2741 458.137 100.175C459.15 101.019 460.248 101.469 461.43 101.526C461.486 101.526 461.514 101.526 461.514 101.526C461.571 101.526 461.627 101.526 461.683 101.526C462.865 101.526 463.935 101.104 464.892 100.259C465.905 99.3585 466.412 98.1201 466.412 96.544C466.412 95.193 465.989 94.1517 465.145 93.4199C464.357 92.6318 463.456 92.1533 462.443 91.9845C462.33 91.9282 462.19 91.9 462.021 91.9C461.908 91.9 461.796 91.9 461.683 91.9C461.627 91.9 461.571 91.9 461.514 91.9C461.514 91.9 461.486 91.9 461.43 91.9C460.248 91.9563 459.15 92.4067 458.137 93.251C457.18 94.0391 456.701 95.1367 456.701 96.544V96.4596Z" fill="black"/>
<path d="M405.062 65.7188H421.274V77.8775H429.211V91.0494H421.274V98.9864C421.274 100.281 421.499 101.238 421.95 101.857C422.4 102.42 423.413 102.702 424.989 102.702L429.211 102.617V115.789H420.683C414.829 115.845 410.804 114.494 408.609 111.736C406.47 108.922 405.316 105.826 405.147 102.448C405.091 102.223 405.062 101.998 405.062 101.773C405.062 101.491 405.062 101.21 405.062 100.928V65.7188Z" fill="black"/>
<path d="M366.164 115.795V77.8837H380.603V82.6965C381.728 81.3456 382.882 80.2761 384.064 79.488C385.247 78.6436 386.429 77.9963 387.611 77.546C388.962 77.0957 390.313 76.8423 391.664 76.7861C393.071 76.6735 394.422 76.6172 395.717 76.6172V89.8736C395.435 89.9299 395.125 89.958 394.788 89.958C394.45 89.958 394.14 89.958 393.859 89.958C390.819 90.0706 388.033 90.6898 385.5 91.8156C383.023 92.9414 381.785 95.5589 381.785 99.6681V115.795H366.164Z" fill="black"/>
<path d="M354.365 91.0557L335.029 102.032L330.638 94.0954L337.984 89.8736C337.646 89.5921 337.252 89.3107 336.802 89.0292C336.408 88.7478 335.986 88.5508 335.536 88.4382C335.367 88.3819 335.198 88.3537 335.029 88.3537C334.86 88.2974 334.691 88.2693 334.522 88.2693C334.41 88.2693 334.269 88.2974 334.1 88.3537C333.988 88.3537 333.847 88.3537 333.678 88.3537C332.327 88.6352 331.089 89.5077 329.963 90.9712C328.837 92.3785 328.274 94.0391 328.274 95.9529C328.274 98.5423 328.978 100.597 330.385 102.117C331.849 103.58 333.622 104.312 335.704 104.312C336.493 104.312 337.337 104.2 338.238 103.974C339.138 103.693 340.039 103.327 340.939 102.877C341.784 102.426 342.6 101.892 343.388 101.272C344.232 100.653 345.021 99.9214 345.752 99.0771L354.365 107.436C352.451 110.251 349.89 112.474 346.681 114.107C343.473 115.739 340.123 116.724 336.633 117.062C336.239 117.062 335.845 117.062 335.451 117.062C335.113 117.118 334.748 117.146 334.353 117.146C329.513 117.146 325.037 115.626 320.928 112.587C316.875 109.547 314.708 104.65 314.427 97.895C314.427 97.8387 314.399 97.7824 314.342 97.7261C314.342 97.6135 314.342 97.5009 314.342 97.3883C314.342 97.2758 314.314 97.1913 314.258 97.135C314.258 97.0225 314.258 96.938 314.258 96.8817C314.258 91.0838 315.862 86.5524 319.071 83.2876C322.279 80.0228 325.797 77.9682 329.625 77.1238C330.301 76.9549 330.976 76.8423 331.652 76.7861C332.383 76.6735 333.087 76.6172 333.762 76.6172C339.786 76.6172 344.345 78.0807 347.441 81.0078C350.537 83.8786 352.845 87.2561 354.365 91.1401V91.0557Z" fill="black"/>
<path d="M266.197 77.875H281.818V99.575C281.818 100.532 282.015 101.292 282.409 101.855C282.859 102.361 283.338 102.643 283.844 102.699C283.901 102.699 283.929 102.699 283.929 102.699C283.985 102.699 284.041 102.699 284.098 102.699C284.21 102.699 284.323 102.699 284.435 102.699C284.548 102.643 284.661 102.615 284.773 102.615C285.28 102.446 285.73 102.108 286.124 101.601C286.574 101.039 286.8 100.391 286.8 99.6594V77.875H302.505V100.166C302.505 105.457 300.647 109.51 296.932 112.325C293.273 115.139 289.248 116.659 284.858 116.884C284.689 116.884 284.52 116.884 284.351 116.884C284.238 116.884 284.098 116.884 283.929 116.884C279.482 116.884 275.401 115.505 271.686 112.747C268.027 109.989 266.197 105.823 266.197 100.25V77.875Z" fill="black"/>
<path d="M217.119 115.787V79.0572C217.119 78.1003 217.232 77.0308 217.457 75.8487C217.738 74.6666 218.132 73.4563 218.639 72.2179C219.821 69.3471 221.763 66.7296 224.465 64.3654C227.223 61.9449 230.826 60.6221 235.273 60.3969L236.624 60.3125C241.746 60.3688 246.362 62.0012 250.471 65.2098C254.58 68.4183 256.748 73.0623 256.973 79.1416V80.7459C256.973 80.9711 256.973 81.1962 256.973 81.4214C256.973 81.5903 256.973 81.7873 256.973 82.0125C256.748 86.4594 255.087 90.5405 251.991 94.2556C248.951 97.9708 243.97 99.8284 237.046 99.8284C236.99 99.8284 236.905 99.8284 236.793 99.8284C236.68 99.7721 236.567 99.7439 236.455 99.7439C236.342 99.7439 236.23 99.7439 236.117 99.7439C236.005 99.6876 235.92 99.6595 235.864 99.6595V84.4611C235.92 84.5174 235.976 84.5737 236.033 84.63C236.089 84.63 236.145 84.63 236.202 84.63C236.202 84.63 236.23 84.6581 236.286 84.7144C236.342 84.7144 236.399 84.7144 236.455 84.7144C237.862 84.7144 238.96 84.3204 239.748 83.5323C240.536 82.6879 240.986 81.7591 241.099 80.7459C241.099 80.6896 241.099 80.6333 241.099 80.577C241.099 80.4645 241.099 80.38 241.099 80.3237C241.099 80.2674 241.099 80.2112 241.099 80.1549C241.099 80.0423 241.099 79.9579 241.099 79.9016C240.986 79.0572 240.649 78.2973 240.086 77.6218C239.523 76.9463 238.706 76.6086 237.637 76.6086C235.892 76.6086 234.738 77.1433 234.175 78.2129C233.669 79.2261 233.415 80.9429 233.415 83.3634V115.787H217.119Z" fill="black"/>
<path d="M988.873 179.994V191.923C988.649 192.013 988.402 192.058 988.132 192.058C987.862 192.058 987.615 192.058 987.391 192.058C986.941 192.103 986.515 192.125 986.11 192.125C985.706 192.17 985.324 192.193 984.965 192.193C980.427 192.193 976.653 190.8 973.642 188.014C970.632 185.229 969.127 181.41 969.127 176.557C969.127 171.301 970.789 167.347 974.114 164.696C977.439 162 981.415 160.652 986.043 160.652C991.21 160.652 995.231 162.225 998.106 165.37C1000.98 168.47 1002.67 171.907 1003.16 175.681C1003.25 176.086 1003.3 176.49 1003.3 176.894C1003.34 177.299 1003.36 177.703 1003.36 178.107V191.923H990.828V176.49C990.828 175.052 990.378 173.974 989.48 173.255C988.581 172.536 987.571 172.132 986.447 172.042C986.402 172.042 986.335 172.042 986.245 172.042C986.2 172.042 986.155 172.042 986.11 172.042C986.065 172.042 986.02 172.042 985.975 172.042C985.975 172.042 985.953 172.042 985.908 172.042C984.83 172.087 983.841 172.469 982.943 173.188C982.044 173.862 981.595 174.828 981.595 176.086C981.595 177.478 981.977 178.647 982.741 179.59C983.504 180.534 984.47 181.005 985.639 181.005C985.953 181.005 986.29 180.96 986.649 180.871C987.009 180.781 987.368 180.668 987.728 180.534C987.952 180.489 988.155 180.421 988.334 180.331C988.514 180.241 988.694 180.152 988.873 180.062V179.994Z" fill="black"/>
<path d="M947.624 191.922V161.662H960.564V191.922H947.624ZM947.152 151.485C947.152 149.374 947.871 147.734 949.309 146.566C950.747 145.353 952.431 144.746 954.363 144.746C954.588 144.746 954.79 144.769 954.97 144.813C955.195 144.813 955.397 144.836 955.577 144.881C957.104 145.106 958.497 145.802 959.755 146.97C961.013 148.138 961.642 149.666 961.642 151.553V151.957C961.642 154.159 960.923 155.866 959.485 157.079C958.048 158.247 956.475 158.876 954.768 158.966C954.678 158.966 954.588 158.966 954.498 158.966C954.453 158.966 954.408 158.966 954.363 158.966C952.566 158.966 950.904 158.36 949.376 157.147C947.894 155.889 947.152 154.024 947.152 151.553V151.485Z" fill="black"/>
<path d="M916.715 191.923V161.663H928.239V165.505C929.138 164.426 930.059 163.573 931.002 162.944C931.946 162.27 932.889 161.753 933.833 161.394C934.911 161.034 935.989 160.832 937.068 160.787C938.191 160.697 939.269 160.652 940.303 160.652V171.233C940.078 171.278 939.831 171.301 939.561 171.301C939.292 171.301 939.045 171.301 938.82 171.301C936.394 171.39 934.17 171.885 932.148 172.783C930.171 173.682 929.183 175.771 929.183 179.051V191.923H916.715Z" fill="black"/>
<path d="M894.696 179.994V191.923C894.471 192.013 894.224 192.058 893.954 192.058C893.685 192.058 893.438 192.058 893.213 192.058C892.764 192.103 892.337 192.125 891.933 192.125C891.528 192.17 891.146 192.193 890.787 192.193C886.249 192.193 882.475 190.8 879.465 188.014C876.454 185.229 874.949 181.41 874.949 176.557C874.949 171.301 876.612 167.347 879.936 164.696C883.261 162 887.237 160.652 891.865 160.652C897.032 160.652 901.053 162.225 903.929 165.37C906.804 168.47 908.489 171.907 908.983 175.681C909.073 176.086 909.118 176.49 909.118 176.894C909.163 177.299 909.185 177.703 909.185 178.107V191.923H896.65V176.49C896.65 175.052 896.201 173.974 895.302 173.255C894.404 172.536 893.393 172.132 892.27 172.042C892.225 172.042 892.157 172.042 892.067 172.042C892.022 172.042 891.977 172.042 891.933 172.042C891.888 172.042 891.843 172.042 891.798 172.042C891.798 172.042 891.775 172.042 891.73 172.042C890.652 172.087 889.664 172.469 888.765 173.188C887.866 173.862 887.417 174.828 887.417 176.086C887.417 177.478 887.799 178.647 888.563 179.59C889.327 180.534 890.293 181.005 891.461 181.005C891.775 181.005 892.112 180.96 892.472 180.871C892.831 180.781 893.191 180.668 893.55 180.534C893.775 180.489 893.977 180.421 894.157 180.331C894.336 180.241 894.516 180.152 894.696 180.062V179.994Z" fill="black"/>
<path d="M836.924 161.664H849.392V178.984C849.392 179.748 849.549 180.355 849.863 180.804C850.223 181.208 850.605 181.433 851.009 181.478C851.054 181.478 851.077 181.478 851.077 181.478C851.121 181.478 851.166 181.478 851.211 181.478C851.301 181.478 851.391 181.478 851.481 181.478C851.571 181.433 851.661 181.41 851.75 181.41C852.155 181.276 852.514 181.006 852.829 180.602C853.188 180.152 853.368 179.636 853.368 179.052V161.664H865.903V179.456C865.903 183.679 864.421 186.914 861.455 189.161C858.535 191.407 855.322 192.62 851.818 192.8C851.683 192.8 851.548 192.8 851.413 192.8C851.324 192.8 851.211 192.8 851.077 192.8C847.527 192.8 844.27 191.699 841.304 189.498C838.384 187.296 836.924 183.971 836.924 179.523V161.664Z" fill="black"/>
<path d="M808.777 151.965H821.717V161.67H828.052V172.183H821.717V178.518C821.717 179.551 821.897 180.315 822.256 180.809C822.616 181.259 823.424 181.483 824.682 181.483L828.052 181.416V191.929H821.245C816.573 191.974 813.36 190.896 811.608 188.695C809.901 186.448 808.98 183.977 808.845 181.281C808.8 181.101 808.777 180.922 808.777 180.742C808.777 180.517 808.777 180.293 808.777 180.068V151.965Z" fill="black"/>
<path d="M777.73 191.923V161.663H789.255V165.505C790.153 164.426 791.074 163.573 792.018 162.944C792.961 162.27 793.905 161.753 794.849 161.394C795.927 161.034 797.005 160.832 798.083 160.787C799.207 160.697 800.285 160.652 801.318 160.652V171.233C801.094 171.278 800.847 171.301 800.577 171.301C800.307 171.301 800.06 171.301 799.836 171.301C797.409 171.39 795.185 171.885 793.164 172.783C791.187 173.682 790.198 175.771 790.198 179.051V191.923H777.73Z" fill="black"/>
<path d="M736.906 176.49C736.906 172.222 738.389 168.515 741.354 165.37C744.319 162.225 747.981 160.652 752.339 160.652C757.371 160.652 761.348 162.247 764.268 165.437C767.233 168.582 768.739 172.064 768.784 175.883C768.784 175.928 768.784 175.973 768.784 176.018C768.784 176.018 768.784 176.041 768.784 176.086C768.784 181.342 767.099 185.431 763.729 188.351C760.404 191.272 756.743 192.777 752.744 192.867C752.654 192.867 752.564 192.867 752.474 192.867C752.429 192.867 752.384 192.867 752.339 192.867C751.621 192.867 750.857 192.799 750.048 192.664C749.239 192.53 748.431 192.327 747.622 192.058C744.926 191.114 742.455 189.362 740.209 186.801C738.007 184.24 736.906 180.826 736.906 176.557V176.49ZM748.902 176.49C748.902 177.748 749.284 178.736 750.048 179.455C750.857 180.129 751.733 180.489 752.676 180.534C752.721 180.534 752.744 180.534 752.744 180.534C752.789 180.534 752.834 180.534 752.879 180.534C753.822 180.534 754.676 180.197 755.44 179.523C756.248 178.804 756.653 177.815 756.653 176.557C756.653 175.479 756.316 174.648 755.642 174.064C755.013 173.435 754.294 173.053 753.485 172.918C753.395 172.873 753.283 172.851 753.148 172.851C753.058 172.851 752.968 172.851 752.879 172.851C752.834 172.851 752.789 172.851 752.744 172.851C752.744 172.851 752.721 172.851 752.676 172.851C751.733 172.896 750.857 173.255 750.048 173.929C749.284 174.558 748.902 175.434 748.902 176.557V176.49Z" fill="black"/>
<path d="M696.658 191.934V162.618C696.658 161.854 696.748 161 696.928 160.057C697.152 159.113 697.467 158.147 697.871 157.159C698.815 154.867 700.365 152.778 702.521 150.891C704.723 148.959 707.599 147.903 711.148 147.724L712.226 147.656C716.315 147.701 719.999 149.004 723.279 151.565C726.559 154.126 728.288 157.833 728.468 162.685V163.966C728.468 164.145 728.468 164.325 728.468 164.505C728.468 164.64 728.468 164.797 728.468 164.976C728.288 168.526 726.963 171.783 724.492 174.749C722.066 177.714 718.089 179.197 712.563 179.197C712.518 179.197 712.451 179.197 712.361 179.197C712.271 179.152 712.181 179.129 712.091 179.129C712.002 179.129 711.912 179.129 711.822 179.129C711.732 179.084 711.665 179.062 711.62 179.062V166.931C711.665 166.976 711.709 167.021 711.754 167.066C711.799 167.066 711.844 167.066 711.889 167.066C711.889 167.066 711.912 167.088 711.957 167.133C712.002 167.133 712.046 167.133 712.091 167.133C713.215 167.133 714.091 166.819 714.72 166.19C715.349 165.516 715.708 164.774 715.798 163.966C715.798 163.921 715.798 163.876 715.798 163.831C715.798 163.741 715.798 163.674 715.798 163.629C715.798 163.584 715.798 163.539 715.798 163.494C715.798 163.404 715.798 163.337 715.798 163.292C715.708 162.618 715.439 162.011 714.989 161.472C714.54 160.933 713.889 160.663 713.035 160.663C711.642 160.663 710.721 161.09 710.272 161.944C709.867 162.752 709.665 164.123 709.665 166.055V191.934H696.658Z" fill="black"/>
<path d="M638.646 148.598H650.777V173.601C650.777 179.487 649.541 184.182 647.07 187.686C644.599 191.146 640.353 192.875 634.333 192.875C629.93 192.875 626.156 191.325 623.011 188.225C619.866 185.08 618.293 181.194 618.293 176.566C618.293 176.521 618.293 176.454 618.293 176.364C618.338 176.274 618.36 176.184 618.36 176.094C618.36 176.004 618.36 175.915 618.36 175.825C618.405 175.735 618.428 175.668 618.428 175.623C618.652 170.546 620.158 166.749 622.943 164.233C625.729 161.672 629.301 160.392 633.659 160.392C634.063 160.392 634.49 160.414 634.939 160.459C635.389 160.459 635.838 160.504 636.287 160.594C636.467 160.594 636.624 160.616 636.759 160.661C636.939 160.661 637.096 160.661 637.231 160.661V172.186C637.096 172.186 636.939 172.186 636.759 172.186C636.624 172.186 636.489 172.163 636.355 172.118C636.085 172.118 635.815 172.118 635.546 172.118C635.321 172.073 635.119 172.051 634.939 172.051C633.322 172.051 632.086 172.5 631.233 173.399C630.379 174.297 629.952 175.555 629.952 177.173C629.952 178.341 630.357 179.284 631.165 180.003C631.974 180.677 632.873 181.014 633.861 181.014C633.951 181.014 634.041 181.014 634.131 181.014C634.22 181.014 634.31 181.014 634.4 181.014C635.434 180.879 636.399 180.408 637.298 179.599C638.197 178.745 638.646 177.577 638.646 176.094V148.598Z" fill="black"/>
<path d="M595.797 179.994V191.923C595.573 192.013 595.325 192.058 595.056 192.058C594.786 192.058 594.539 192.058 594.315 192.058C593.865 192.103 593.438 192.125 593.034 192.125C592.63 192.17 592.248 192.193 591.888 192.193C587.351 192.193 583.577 190.8 580.566 188.014C577.556 185.229 576.051 181.41 576.051 176.557C576.051 171.301 577.713 167.347 581.038 164.696C584.363 162 588.339 160.652 592.967 160.652C598.134 160.652 602.155 162.225 605.03 165.37C607.906 168.47 609.591 171.907 610.085 175.681C610.175 176.086 610.22 176.49 610.22 176.894C610.265 177.299 610.287 177.703 610.287 178.107V191.923H597.752V176.49C597.752 175.052 597.302 173.974 596.404 173.255C595.505 172.536 594.494 172.132 593.371 172.042C593.326 172.042 593.259 172.042 593.169 172.042C593.124 172.042 593.079 172.042 593.034 172.042C592.989 172.042 592.944 172.042 592.899 172.042C592.899 172.042 592.877 172.042 592.832 172.042C591.754 172.087 590.765 172.469 589.867 173.188C588.968 173.862 588.519 174.828 588.519 176.086C588.519 177.478 588.901 178.647 589.664 179.59C590.428 180.534 591.394 181.005 592.562 181.005C592.877 181.005 593.214 180.96 593.573 180.871C593.933 180.781 594.292 180.668 594.652 180.534C594.876 180.489 595.078 180.421 595.258 180.331C595.438 180.241 595.618 180.152 595.797 180.062V179.994Z" fill="black"/>
<path d="M554.837 148.598H566.968V173.601C566.968 179.487 565.733 184.182 563.262 187.686C560.79 191.146 556.545 192.875 550.524 192.875C546.121 192.875 542.347 191.325 539.202 188.225C536.057 185.08 534.484 181.194 534.484 176.566C534.484 176.521 534.484 176.454 534.484 176.364C534.529 176.274 534.552 176.184 534.552 176.094C534.552 176.004 534.552 175.915 534.552 175.825C534.597 175.735 534.619 175.668 534.619 175.623C534.844 170.546 536.349 166.749 539.135 164.233C541.92 161.672 545.492 160.392 549.85 160.392C550.255 160.392 550.681 160.414 551.131 160.459C551.58 160.459 552.029 160.504 552.479 160.594C552.658 160.594 552.816 160.616 552.95 160.661C553.13 160.661 553.287 160.661 553.422 160.661V172.186C553.287 172.186 553.13 172.186 552.95 172.186C552.816 172.186 552.681 172.163 552.546 172.118C552.276 172.118 552.007 172.118 551.737 172.118C551.513 172.073 551.31 172.051 551.131 172.051C549.513 172.051 548.278 172.5 547.424 173.399C546.57 174.297 546.144 175.555 546.144 177.173C546.144 178.341 546.548 179.284 547.357 180.003C548.165 180.677 549.064 181.014 550.052 181.014C550.142 181.014 550.232 181.014 550.322 181.014C550.412 181.014 550.502 181.014 550.592 181.014C551.625 180.879 552.591 180.408 553.489 179.599C554.388 178.745 554.837 177.577 554.837 176.094V148.598Z" fill="black"/>
<path d="M524.598 172.177L509.165 180.938L505.66 174.603L511.524 171.233C511.254 171.009 510.94 170.784 510.58 170.559C510.266 170.335 509.929 170.177 509.569 170.087C509.434 170.043 509.3 170.02 509.165 170.02C509.03 169.975 508.895 169.953 508.761 169.953C508.671 169.953 508.558 169.975 508.424 170.02C508.334 170.02 508.221 170.02 508.087 170.02C507.008 170.245 506.02 170.941 505.121 172.109C504.223 173.233 503.773 174.558 503.773 176.086C503.773 178.152 504.335 179.792 505.458 181.005C506.626 182.173 508.042 182.758 509.704 182.758C510.333 182.758 511.007 182.668 511.726 182.488C512.445 182.263 513.164 181.971 513.882 181.612C514.556 181.252 515.208 180.826 515.837 180.331C516.511 179.837 517.14 179.253 517.724 178.579L524.598 185.251C523.07 187.498 521.026 189.272 518.465 190.575C515.904 191.878 513.231 192.664 510.445 192.934C510.131 192.934 509.816 192.934 509.502 192.934C509.232 192.979 508.94 193.001 508.626 193.001C504.762 193.001 501.19 191.788 497.91 189.362C494.675 186.936 492.945 183.027 492.721 177.636C492.721 177.591 492.698 177.546 492.653 177.501C492.653 177.411 492.653 177.321 492.653 177.231C492.653 177.141 492.631 177.074 492.586 177.029C492.586 176.939 492.586 176.872 492.586 176.827C492.586 172.199 493.866 168.582 496.427 165.976C498.988 163.371 501.796 161.731 504.852 161.057C505.391 160.922 505.93 160.832 506.469 160.787C507.053 160.697 507.615 160.652 508.154 160.652C512.961 160.652 516.601 161.82 519.072 164.157C521.543 166.448 523.385 169.144 524.598 172.244V172.177Z" fill="black"/>
<path d="M470.743 191.922V161.662H483.683V191.922H470.743ZM470.271 151.485C470.271 149.374 470.99 147.734 472.428 146.566C473.866 145.353 475.551 144.746 477.483 144.746C477.707 144.746 477.909 144.769 478.089 144.813C478.314 144.813 478.516 144.836 478.696 144.881C480.223 145.106 481.616 145.802 482.874 146.97C484.132 148.138 484.761 149.666 484.761 151.553V151.957C484.761 154.159 484.042 155.866 482.605 157.079C481.167 158.247 479.594 158.876 477.887 158.966C477.797 158.966 477.707 158.966 477.617 158.966C477.572 158.966 477.528 158.966 477.483 158.966C475.685 158.966 474.023 158.36 472.496 157.147C471.013 155.889 470.271 154.024 470.271 151.553V151.485Z" fill="black"/>
<path d="M462.004 191.916H456.275C450.704 191.961 446.503 190.389 443.673 187.199C440.887 184.009 439.494 180.504 439.494 176.685C439.494 176.55 439.494 176.438 439.494 176.348C439.494 176.214 439.494 176.079 439.494 175.944C439.674 172.125 441.201 168.62 444.077 165.43C446.997 162.241 451.221 160.646 456.747 160.646L462.004 160.578V171.698H456.275C455.062 171.743 454.074 172.215 453.31 173.113C452.546 174.012 452.097 174.978 451.962 176.011C451.962 176.101 451.962 176.191 451.962 176.281C451.962 176.371 451.962 176.461 451.962 176.55C451.962 176.595 451.962 176.663 451.962 176.753C451.962 176.798 451.962 176.843 451.962 176.887C452.052 177.921 452.456 178.864 453.175 179.718C453.939 180.572 454.972 180.998 456.275 180.998L462.004 180.931V191.916Z" fill="black"/>
<path d="M399.008 176.49C399.008 172.222 400.49 168.515 403.456 165.37C406.421 162.225 410.083 160.652 414.441 160.652C419.473 160.652 423.449 162.247 426.37 165.437C429.335 168.582 430.84 172.064 430.885 175.883C430.885 175.928 430.885 175.973 430.885 176.018C430.885 176.018 430.885 176.041 430.885 176.086C430.885 181.342 429.2 185.431 425.831 188.351C422.506 191.272 418.844 192.777 414.845 192.867C414.755 192.867 414.666 192.867 414.576 192.867C414.531 192.867 414.486 192.867 414.441 192.867C413.722 192.867 412.958 192.799 412.15 192.664C411.341 192.53 410.532 192.327 409.723 192.058C407.028 191.114 404.557 189.362 402.31 186.801C400.109 184.24 399.008 180.826 399.008 176.557V176.49ZM411.004 176.49C411.004 177.748 411.386 178.736 412.15 179.455C412.958 180.129 413.834 180.489 414.778 180.534C414.823 180.534 414.845 180.534 414.845 180.534C414.89 180.534 414.935 180.534 414.98 180.534C415.924 180.534 416.777 180.197 417.541 179.523C418.35 178.804 418.754 177.815 418.754 176.557C418.754 175.479 418.417 174.648 417.743 174.064C417.114 173.435 416.395 173.053 415.587 172.918C415.497 172.873 415.384 172.851 415.25 172.851C415.16 172.851 415.07 172.851 414.98 172.851C414.935 172.851 414.89 172.851 414.845 172.851C414.845 172.851 414.823 172.851 414.778 172.851C413.834 172.896 412.958 173.255 412.15 173.929C411.386 174.558 411.004 175.434 411.004 176.557V176.49Z" fill="black"/>
<path d="M362.002 191.933V179.465H371.572C371.752 179.51 371.931 179.532 372.111 179.532C372.336 179.487 372.56 179.442 372.785 179.398C373.459 179.308 374.065 179.106 374.605 178.791C375.144 178.477 375.413 178.095 375.413 177.645C375.413 177.466 375.323 177.241 375.144 176.971C374.964 176.657 374.694 176.342 374.335 176.028C374.29 175.938 374.223 175.871 374.133 175.826C374.088 175.736 374.021 175.668 373.931 175.623C373.392 175.264 372.852 174.905 372.313 174.545C371.819 174.141 371.347 173.736 370.898 173.332C368.292 171.355 366.158 169.311 364.496 167.199C362.833 165.088 362.002 162.594 362.002 159.719C362.002 159.674 361.979 159.629 361.935 159.584C361.935 159.539 361.935 159.471 361.935 159.382C361.935 159.337 361.912 159.292 361.867 159.247C361.867 159.202 361.867 159.157 361.867 159.112C361.867 156.416 362.698 154.372 364.361 152.979C366.023 151.586 367.843 150.598 369.82 150.014C370.943 149.654 372.044 149.43 373.122 149.34C374.2 149.205 375.121 149.138 375.885 149.138L388.892 149.07V160.595H379.794C378.806 160.64 377.997 160.819 377.368 161.134C376.784 161.448 376.492 161.808 376.492 162.212C376.492 162.392 376.559 162.616 376.694 162.886C376.873 163.156 377.121 163.425 377.435 163.695C377.48 163.74 377.547 163.807 377.637 163.897C377.727 163.942 377.817 164.009 377.907 164.099C378.132 164.279 378.356 164.459 378.581 164.638C378.85 164.818 379.12 164.998 379.39 165.177C379.524 165.312 379.659 165.447 379.794 165.582C379.974 165.672 380.131 165.762 380.266 165.851C382.737 167.693 384.983 169.625 387.005 171.647C389.027 173.669 390.15 176.14 390.375 179.061V180.476C390.375 184.34 388.915 187.193 385.994 189.035C383.119 190.832 379.951 191.82 376.492 192C376.312 192 376.132 192 375.952 192C375.773 192 375.593 192 375.413 192L362.002 191.933Z" fill="black"/>
<path d="M125.41 0H0V94.6775H29.8596L78.8293 126.236L148.104 87.3947C154.075 83.7097 171.963 67.7483 168.408 38.842C164.825 9.71014 148.104 -0.00024023 125.41 0Z" fill="#28282A"/>
<path d="M21.4989 111.67H0V192.996H168.408V111.67H138.548L78.8293 148.085L21.4989 111.67Z" fill="#28282A"/>
</svg>
