<svg width="1214" height="215" viewBox="0 0 1214 215" fill="none" xmlns="http://www.w3.org/2000/svg">
<rect x="17" width="899" height="215" rx="6" fill="black"/>
<path d="M343.104 167.962V160.992H350.489C350.628 161.017 350.767 161.03 350.905 161.03C351.079 161.005 351.252 160.98 351.425 160.954C351.946 160.904 352.414 160.791 352.83 160.615C353.246 160.44 353.454 160.226 353.454 159.975C353.454 159.874 353.385 159.749 353.246 159.598C353.107 159.422 352.899 159.246 352.622 159.071C352.587 159.02 352.535 158.983 352.466 158.958C352.431 158.907 352.379 158.87 352.31 158.845C351.894 158.644 351.478 158.443 351.061 158.242C350.68 158.016 350.316 157.79 349.969 157.564C347.958 156.458 346.311 155.316 345.028 154.135C343.745 152.954 343.104 151.56 343.104 149.953C343.104 149.928 343.087 149.903 343.052 149.878C343.052 149.852 343.052 149.815 343.052 149.765C343.052 149.739 343.035 149.714 343 149.689C343 149.664 343 149.639 343 149.614C343 148.107 343.641 146.964 344.924 146.185C346.207 145.407 347.611 144.854 349.137 144.527C350.004 144.327 350.853 144.201 351.686 144.151C352.518 144.075 353.228 144.038 353.818 144.038L363.856 144V150.443H356.835C356.072 150.468 355.448 150.568 354.962 150.744C354.511 150.92 354.286 151.121 354.286 151.347C354.286 151.447 354.338 151.573 354.442 151.724C354.581 151.874 354.771 152.025 355.014 152.176C355.049 152.201 355.101 152.239 355.17 152.289C355.24 152.314 355.309 152.352 355.378 152.402C355.552 152.502 355.725 152.603 355.898 152.703C356.106 152.804 356.314 152.904 356.522 153.005C356.626 153.08 356.73 153.155 356.835 153.231C356.973 153.281 357.095 153.331 357.199 153.381C359.106 154.411 360.839 155.491 362.4 156.622C363.96 157.752 364.827 159.133 365 160.766V161.557C365 163.717 363.873 165.312 361.619 166.342C359.4 167.347 356.956 167.9 354.286 168C354.147 168 354.009 168 353.87 168C353.731 168 353.593 168 353.454 168L343.104 167.962Z" fill="white"/>
<path d="M370 158.341C370 155.824 371.116 153.637 373.349 151.782C375.581 149.927 378.338 149 381.619 149C385.408 149 388.402 149.941 390.6 151.822C392.833 153.677 393.966 155.731 394 157.983C394 158.01 394 158.036 394 158.063C394 158.063 394 158.076 394 158.103C394 161.203 392.731 163.614 390.194 165.337C387.691 167.059 384.934 167.947 381.924 168C381.856 168 381.789 168 381.721 168C381.687 168 381.653 168 381.619 168C381.078 168 380.503 167.96 379.894 167.881C379.285 167.801 378.677 167.682 378.068 167.523C376.038 166.967 374.178 165.933 372.486 164.423C370.829 162.912 370 160.898 370 158.381V158.341ZM379.032 158.341C379.032 159.083 379.319 159.666 379.894 160.09C380.503 160.487 381.163 160.699 381.873 160.726C381.907 160.726 381.924 160.726 381.924 160.726C381.958 160.726 381.992 160.726 382.025 160.726C382.736 160.726 383.378 160.527 383.953 160.13C384.562 159.706 384.867 159.123 384.867 158.381C384.867 157.745 384.613 157.255 384.106 156.91C383.632 156.539 383.091 156.314 382.482 156.234C382.414 156.208 382.33 156.195 382.228 156.195C382.161 156.195 382.093 156.195 382.025 156.195C381.992 156.195 381.958 156.195 381.924 156.195C381.924 156.195 381.907 156.195 381.873 156.195C381.163 156.221 380.503 156.433 379.894 156.831C379.319 157.202 379.032 157.718 379.032 158.381V158.341Z" fill="white"/>
<path d="M416 167.999H411.674C407.466 168.025 404.293 167.122 402.156 165.29C400.052 163.458 399 161.445 399 159.251C399 159.174 399 159.109 399 159.058C399 158.98 399 158.903 399 158.826C399.136 156.632 400.289 154.619 402.461 152.787C404.667 150.955 407.856 150.039 412.03 150.039L416 150V156.387H411.674C410.758 156.413 410.011 156.684 409.434 157.2C408.857 157.716 408.518 158.271 408.416 158.864C408.416 158.916 408.416 158.967 408.416 159.019C408.416 159.071 408.416 159.122 408.416 159.174C408.416 159.2 408.416 159.238 408.416 159.29C408.416 159.316 408.416 159.342 408.416 159.367C408.484 159.961 408.789 160.503 409.332 160.993C409.909 161.484 410.69 161.729 411.674 161.729L416 161.69V167.999Z" fill="white"/>
<path d="M420.358 168V150.681H430.181V168H420.358ZM420 144.857C420 143.649 420.546 142.71 421.637 142.041C422.729 141.347 424.008 141 425.474 141C425.645 141 425.798 141.013 425.935 141.039C426.105 141.039 426.259 141.051 426.395 141.077C427.555 141.206 428.612 141.604 429.567 142.273C430.522 142.941 431 143.816 431 144.896V145.127C431 146.387 430.454 147.364 429.363 148.059C428.271 148.727 427.078 149.087 425.781 149.139C425.713 149.139 425.645 149.139 425.577 149.139C425.543 149.139 425.509 149.139 425.474 149.139C424.11 149.139 422.848 148.791 421.688 148.097C420.563 147.377 420 146.31 420 144.896V144.857Z" fill="white"/>
<path d="M461 155.769L448.947 160.915L446.211 157.194L450.789 155.215C450.579 155.083 450.333 154.951 450.053 154.819C449.807 154.687 449.544 154.594 449.263 154.542C449.158 154.515 449.053 154.502 448.947 154.502C448.842 154.476 448.737 154.462 448.632 154.462C448.561 154.462 448.474 154.476 448.368 154.502C448.298 154.502 448.211 154.502 448.105 154.502C447.263 154.634 446.491 155.043 445.789 155.729C445.088 156.389 444.737 157.167 444.737 158.065C444.737 159.278 445.175 160.242 446.053 160.954C446.965 161.64 448.07 161.983 449.368 161.983C449.86 161.983 450.386 161.931 450.947 161.825C451.509 161.693 452.07 161.522 452.632 161.31C453.158 161.099 453.667 160.849 454.158 160.558C454.684 160.268 455.176 159.925 455.632 159.529L461 163.448C459.807 164.767 458.211 165.81 456.211 166.575C454.211 167.34 452.123 167.802 449.947 167.96C449.702 167.96 449.456 167.96 449.211 167.96C449 167.987 448.772 168 448.526 168C445.509 168 442.719 167.287 440.158 165.862C437.632 164.437 436.281 162.142 436.105 158.975C436.105 158.949 436.088 158.922 436.053 158.896C436.053 158.843 436.053 158.79 436.053 158.737C436.053 158.685 436.035 158.645 436 158.619C436 158.566 436 158.526 436 158.5C436 155.782 437 153.658 439 152.127C441 150.597 443.193 149.633 445.579 149.237C446 149.158 446.421 149.106 446.842 149.079C447.298 149.026 447.737 149 448.158 149C451.912 149 454.754 149.686 456.684 151.058C458.614 152.404 460.053 153.988 461 155.808V155.769Z" fill="white"/>
<path d="M481.29 142H491V156.682C491 160.138 490.011 162.895 488.033 164.953C486.055 166.984 482.657 168 477.838 168C474.314 168 471.293 167.09 468.776 165.269C466.259 163.423 465 161.141 465 158.423C465 158.397 465 158.357 465 158.304C465.036 158.252 465.054 158.199 465.054 158.146C465.054 158.093 465.054 158.041 465.054 157.988C465.09 157.935 465.108 157.895 465.108 157.869C465.288 154.888 466.492 152.659 468.722 151.181C470.952 149.677 473.811 148.925 477.299 148.925C477.622 148.925 477.964 148.939 478.324 148.965C478.683 148.965 479.043 148.991 479.402 149.044C479.546 149.044 479.672 149.057 479.78 149.084C479.924 149.084 480.05 149.084 480.158 149.084V155.851C480.05 155.851 479.924 155.851 479.78 155.851C479.672 155.851 479.564 155.838 479.456 155.811C479.241 155.811 479.025 155.811 478.809 155.811C478.629 155.785 478.467 155.772 478.324 155.772C477.029 155.772 476.04 156.036 475.357 156.563C474.674 157.091 474.332 157.83 474.332 158.779C474.332 159.465 474.656 160.019 475.303 160.441C475.95 160.837 476.669 161.035 477.461 161.035C477.533 161.035 477.604 161.035 477.676 161.035C477.748 161.035 477.82 161.035 477.892 161.035C478.719 160.956 479.492 160.679 480.212 160.204C480.931 159.703 481.29 159.017 481.29 158.146V142Z" fill="white"/>
<path d="M509.996 161.038V167.846C509.826 167.897 509.638 167.923 509.433 167.923C509.228 167.923 509.041 167.923 508.87 167.923C508.529 167.949 508.205 167.962 507.898 167.962C507.591 167.987 507.301 168 507.028 168C503.581 168 500.715 167.205 498.429 165.615C496.143 164.026 495 161.846 495 159.077C495 156.077 496.263 153.821 498.787 152.308C501.312 150.769 504.332 150 507.846 150C511.77 150 514.824 150.897 517.008 152.692C519.192 154.462 520.471 156.423 520.846 158.577C520.915 158.808 520.949 159.038 520.949 159.269C520.983 159.5 521 159.731 521 159.962V167.846H511.48V159.038C511.48 158.218 511.139 157.603 510.457 157.192C509.774 156.782 509.007 156.551 508.154 156.5C508.12 156.5 508.068 156.5 508 156.5C507.966 156.5 507.932 156.5 507.898 156.5C507.864 156.5 507.829 156.5 507.795 156.5C507.795 156.5 507.778 156.5 507.744 156.5C506.925 156.526 506.175 156.744 505.492 157.154C504.81 157.538 504.468 158.09 504.468 158.808C504.468 159.603 504.759 160.269 505.339 160.808C505.919 161.346 506.652 161.615 507.539 161.615C507.778 161.615 508.034 161.59 508.307 161.538C508.58 161.487 508.853 161.423 509.126 161.346C509.297 161.321 509.45 161.282 509.587 161.231C509.723 161.179 509.86 161.128 509.996 161.077V161.038Z" fill="white"/>
<path d="M540.664 142H550V156.682C550 160.138 549.049 162.895 547.147 164.953C545.245 166.984 541.978 168 537.344 168C533.956 168 531.051 167.09 528.631 165.269C526.21 163.423 525 161.141 525 158.423C525 158.397 525 158.357 525 158.304C525.035 158.252 525.052 158.199 525.052 158.146C525.052 158.093 525.052 158.041 525.052 157.988C525.086 157.935 525.104 157.895 525.104 157.869C525.277 154.888 526.435 152.659 528.579 151.181C530.723 149.677 533.472 148.925 536.826 148.925C537.137 148.925 537.465 148.939 537.811 148.965C538.157 148.965 538.503 148.991 538.849 149.044C538.987 149.044 539.108 149.057 539.212 149.084C539.35 149.084 539.471 149.084 539.575 149.084V155.851C539.471 155.851 539.35 155.851 539.212 155.851C539.108 155.851 539.004 155.838 538.9 155.811C538.693 155.811 538.486 155.811 538.278 155.811C538.105 155.785 537.95 155.772 537.811 155.772C536.566 155.772 535.615 156.036 534.958 156.563C534.301 157.091 533.973 157.83 533.973 158.779C533.973 159.465 534.284 160.019 534.907 160.441C535.529 160.837 536.221 161.035 536.981 161.035C537.05 161.035 537.12 161.035 537.189 161.035C537.258 161.035 537.327 161.035 537.396 161.035C538.192 160.956 538.935 160.679 539.627 160.204C540.318 159.703 540.664 159.017 540.664 158.146V142Z" fill="white"/>
<path d="M577 171V153.785C577 153.337 577.068 152.836 577.203 152.282C577.373 151.728 577.61 151.16 577.915 150.58C578.627 149.234 579.797 148.008 581.424 146.9C583.085 145.765 585.254 145.145 587.932 145.04L588.746 145C591.831 145.026 594.61 145.791 597.085 147.295C599.559 148.799 600.864 150.976 601 153.825V154.577C601 154.682 601 154.788 601 154.893C601 154.973 601 155.065 601 155.17C600.864 157.255 599.864 159.167 598 160.909C596.169 162.65 593.169 163.521 589 163.521C588.966 163.521 588.915 163.521 588.847 163.521C588.78 163.494 588.712 163.481 588.644 163.481C588.576 163.481 588.508 163.481 588.441 163.481C588.373 163.455 588.322 163.441 588.288 163.441V156.318C588.322 156.344 588.356 156.371 588.39 156.397C588.424 156.397 588.458 156.397 588.492 156.397C588.492 156.397 588.509 156.41 588.542 156.437C588.576 156.437 588.61 156.437 588.644 156.437C589.491 156.437 590.152 156.252 590.627 155.883C591.102 155.487 591.373 155.052 591.441 154.577C591.441 154.55 591.441 154.524 591.441 154.498C591.441 154.445 591.441 154.405 591.441 154.379C591.441 154.353 591.441 154.326 591.441 154.3C591.441 154.247 591.441 154.208 591.441 154.181C591.373 153.785 591.169 153.429 590.83 153.113C590.491 152.796 590 152.638 589.356 152.638C588.305 152.638 587.61 152.888 587.271 153.39C586.966 153.865 586.814 154.669 586.814 155.804V171H577Z" fill="white"/>
<path d="M606 161.341C606 158.824 607.07 156.637 609.209 154.782C611.349 152.927 613.991 152 617.135 152C620.766 152 623.635 152.941 625.742 154.822C627.882 156.677 628.968 158.731 629 160.983C629 161.01 629 161.036 629 161.063C629 161.063 629 161.076 629 161.103C629 164.203 627.784 166.614 625.353 168.337C622.954 170.059 620.312 170.947 617.427 171C617.362 171 617.297 171 617.233 171C617.2 171 617.168 171 617.135 171C616.617 171 616.065 170.96 615.482 170.881C614.898 170.801 614.315 170.682 613.731 170.523C611.786 169.967 610.004 168.933 608.383 167.423C606.794 165.912 606 163.898 606 161.381V161.341ZM614.655 161.341C614.655 162.083 614.931 162.666 615.482 163.09C616.065 163.487 616.698 163.699 617.378 163.726C617.411 163.726 617.427 163.726 617.427 163.726C617.459 163.726 617.492 163.726 617.524 163.726C618.205 163.726 618.821 163.527 619.372 163.13C619.956 162.706 620.247 162.123 620.247 161.381C620.247 160.745 620.004 160.255 619.518 159.91C619.064 159.539 618.545 159.314 617.962 159.234C617.897 159.208 617.816 159.195 617.719 159.195C617.654 159.195 617.589 159.195 617.524 159.195C617.492 159.195 617.459 159.195 617.427 159.195C617.427 159.195 617.411 159.195 617.378 159.195C616.698 159.221 616.065 159.433 615.482 159.831C614.931 160.202 614.655 160.718 614.655 161.381V161.341Z" fill="white"/>
<path d="M634 171V153.582H642.794V155.793C643.48 155.172 644.183 154.681 644.903 154.319C645.623 153.931 646.343 153.634 647.063 153.427C647.886 153.22 648.709 153.103 649.531 153.078C650.389 153.026 651.211 153 652 153V159.091C651.829 159.116 651.64 159.129 651.434 159.129C651.229 159.129 651.04 159.129 650.869 159.129C649.017 159.181 647.32 159.466 645.777 159.983C644.269 160.5 643.514 161.703 643.514 163.591V171H634Z" fill="white"/>
<path d="M657 148H666.399V153.585H671V159.635H666.399V163.281C666.399 163.876 666.529 164.315 666.79 164.6C667.051 164.858 667.639 164.988 668.553 164.988L671 164.949V170.999H666.056C662.662 171.025 660.329 170.405 659.056 169.138C657.816 167.845 657.147 166.423 657.049 164.871C657.016 164.768 657 164.664 657 164.561C657 164.432 657 164.302 657 164.173V148Z" fill="white"/>
<path d="M676 153H685.035V163.013C685.035 163.455 685.149 163.805 685.377 164.065C685.637 164.299 685.914 164.429 686.207 164.455C686.24 164.455 686.256 164.455 686.256 164.455C686.288 164.455 686.321 164.455 686.353 164.455C686.419 164.455 686.484 164.455 686.549 164.455C686.614 164.429 686.679 164.416 686.744 164.416C687.037 164.338 687.298 164.182 687.526 163.948C687.786 163.688 687.916 163.39 687.916 163.052V153H697V163.286C697 165.727 695.926 167.597 693.777 168.896C691.661 170.195 689.333 170.896 686.793 171C686.695 171 686.598 171 686.5 171C686.435 171 686.354 171 686.256 171C683.684 171 681.323 170.364 679.174 169.091C677.058 167.818 676 165.896 676 163.325V153Z" fill="white"/>
<path d="M716.419 164.038V170.846C716.255 170.897 716.075 170.923 715.878 170.923C715.681 170.923 715.501 170.923 715.337 170.923C715.009 170.949 714.697 170.962 714.402 170.962C714.106 170.987 713.827 171 713.565 171C710.251 171 707.495 170.205 705.297 168.615C703.099 167.026 702 164.846 702 162.077C702 159.077 703.214 156.821 705.642 155.308C708.07 153.769 710.973 153 714.352 153C718.125 153 721.062 153.897 723.161 155.692C725.261 157.462 726.491 159.423 726.852 161.577C726.918 161.808 726.951 162.038 726.951 162.269C726.984 162.5 727 162.731 727 162.962V170.846H717.846V162.038C717.846 161.218 717.518 160.603 716.862 160.192C716.206 159.782 715.468 159.551 714.648 159.5C714.615 159.5 714.566 159.5 714.5 159.5C714.467 159.5 714.434 159.5 714.402 159.5C714.369 159.5 714.336 159.5 714.303 159.5C714.303 159.5 714.287 159.5 714.254 159.5C713.467 159.526 712.745 159.744 712.089 160.154C711.432 160.538 711.104 161.09 711.104 161.808C711.104 162.603 711.383 163.269 711.941 163.808C712.499 164.346 713.204 164.615 714.057 164.615C714.287 164.615 714.533 164.59 714.795 164.538C715.058 164.487 715.32 164.423 715.583 164.346C715.747 164.321 715.894 164.282 716.026 164.231C716.157 164.179 716.288 164.128 716.419 164.077V164.038Z" fill="white"/>
<path d="M732 171V153.582H740.794V155.793C741.48 155.172 742.183 154.681 742.903 154.319C743.623 153.931 744.343 153.634 745.063 153.427C745.886 153.22 746.709 153.103 747.531 153.078C748.389 153.026 749.211 153 750 153V159.091C749.829 159.116 749.64 159.129 749.434 159.129C749.229 159.129 749.04 159.129 748.869 159.129C747.017 159.181 745.32 159.466 743.777 159.983C742.269 160.5 741.514 161.703 741.514 163.591V171H732Z" fill="white"/>
<path d="M755.358 171V153.681H765.181V171H755.358ZM755 147.857C755 146.649 755.546 145.71 756.637 145.041C757.729 144.347 759.008 144 760.474 144C760.645 144 760.798 144.013 760.935 144.039C761.105 144.039 761.259 144.051 761.395 144.077C762.555 144.206 763.612 144.604 764.567 145.273C765.522 145.941 766 146.816 766 147.896V148.127C766 149.387 765.454 150.364 764.363 151.059C763.271 151.727 762.078 152.087 760.781 152.139C760.713 152.139 760.645 152.139 760.577 152.139C760.543 152.139 760.509 152.139 760.474 152.139C759.11 152.139 757.848 151.791 756.688 151.097C755.563 150.377 755 149.31 755 147.896V147.857Z" fill="white"/>
<path d="M785.419 164.038V170.846C785.255 170.897 785.075 170.923 784.878 170.923C784.681 170.923 784.501 170.923 784.337 170.923C784.009 170.949 783.697 170.962 783.402 170.962C783.106 170.987 782.827 171 782.565 171C779.251 171 776.495 170.205 774.297 168.615C772.099 167.026 771 164.846 771 162.077C771 159.077 772.214 156.821 774.642 155.308C777.07 153.769 779.973 153 783.352 153C787.125 153 790.062 153.897 792.161 155.692C794.261 157.462 795.491 159.423 795.852 161.577C795.918 161.808 795.951 162.038 795.951 162.269C795.984 162.5 796 162.731 796 162.962V170.846H786.846V162.038C786.846 161.218 786.518 160.603 785.862 160.192C785.206 159.782 784.468 159.551 783.648 159.5C783.615 159.5 783.566 159.5 783.5 159.5C783.467 159.5 783.434 159.5 783.402 159.5C783.369 159.5 783.336 159.5 783.303 159.5C783.303 159.5 783.287 159.5 783.254 159.5C782.467 159.526 781.745 159.744 781.089 160.154C780.432 160.538 780.104 161.09 780.104 161.808C780.104 162.603 780.383 163.269 780.941 163.808C781.499 164.346 782.204 164.615 783.057 164.615C783.287 164.615 783.533 164.59 783.795 164.538C784.058 164.487 784.32 164.423 784.583 164.346C784.747 164.321 784.894 164.282 785.026 164.231C785.157 164.179 785.288 164.128 785.419 164.077V164.038Z" fill="white"/>
<path d="M217.119 117.312V81.5591C217.119 80.6276 217.218 79.5865 217.416 78.4358C217.663 77.2851 218.009 76.107 218.454 74.9015C219.492 72.107 221.198 69.5591 223.57 67.2577C225.993 64.9015 229.157 63.6139 233.062 63.3947L234.248 63.3125C238.747 63.3673 242.801 64.9563 246.409 68.0796C250.018 71.2029 251.921 75.7235 252.119 81.6413V83.2029C252.119 83.4221 252.119 83.6413 252.119 83.8604C252.119 84.0248 252.119 84.2166 252.119 84.4358C251.921 88.7646 250.463 92.7372 247.744 96.3536C245.075 99.97 240.7 101.778 234.619 101.778C234.57 101.778 234.496 101.778 234.397 101.778C234.298 101.723 234.199 101.696 234.1 101.696C234.001 101.696 233.902 101.696 233.803 101.696C233.705 101.641 233.63 101.614 233.581 101.614V86.8193C233.63 86.8741 233.68 86.9289 233.729 86.9837C233.779 86.9837 233.828 86.9837 233.878 86.9837C233.878 86.9837 233.902 87.0111 233.952 87.0659C234.001 87.0659 234.051 87.0659 234.1 87.0659C235.336 87.0659 236.3 86.6824 236.992 85.9152C237.684 85.0933 238.08 84.1892 238.178 83.2029C238.178 83.1481 238.178 83.0933 238.178 83.0385C238.178 82.9289 238.178 82.8467 238.178 82.7919C238.178 82.7372 238.178 82.6824 238.178 82.6276C238.178 82.518 238.178 82.4358 238.178 82.381C238.08 81.5591 237.783 80.8193 237.289 80.1618C236.794 79.5043 236.077 79.1755 235.138 79.1755C233.606 79.1755 232.592 79.6961 232.098 80.7372C231.653 81.7235 231.431 83.3947 231.431 85.7509V117.312H217.119Z" fill="white"/>
<path d="M260.119 79.3125H273.887V100.451C273.887 101.383 274.06 102.123 274.408 102.672C274.804 103.165 275.226 103.439 275.673 103.494C275.722 103.494 275.747 103.494 275.747 103.494C275.797 103.494 275.846 103.494 275.896 103.494C275.995 103.494 276.094 103.494 276.194 103.494C276.293 103.439 276.392 103.412 276.491 103.412C276.938 103.248 277.335 102.919 277.682 102.425C278.079 101.877 278.277 101.246 278.277 100.533V79.3125H292.119V101.027C292.119 106.181 290.482 110.129 287.207 112.871C283.983 115.613 280.435 117.093 276.566 117.312C276.417 117.312 276.268 117.312 276.119 117.312C276.02 117.312 275.896 117.312 275.747 117.312C271.828 117.312 268.231 115.969 264.956 113.282C261.732 110.595 260.119 106.538 260.119 101.109V79.3125Z" fill="white"/>
<path d="M336.119 92.2062L318.763 102.769L314.822 95.1313L321.416 91.0688C321.113 90.7979 320.759 90.5271 320.355 90.2563C320.001 89.9854 319.622 89.7958 319.218 89.6875C319.067 89.6333 318.915 89.6062 318.763 89.6062C318.612 89.5521 318.46 89.525 318.309 89.525C318.208 89.525 318.081 89.5521 317.93 89.6062C317.829 89.6062 317.702 89.6062 317.551 89.6062C316.338 89.8771 315.227 90.7167 314.216 92.125C313.205 93.4792 312.7 95.0771 312.7 96.9187C312.7 99.4104 313.332 101.387 314.595 102.85C315.909 104.258 317.5 104.963 319.37 104.963C320.077 104.963 320.835 104.854 321.643 104.638C322.452 104.367 323.26 104.015 324.069 103.581C324.827 103.148 325.559 102.633 326.267 102.037C327.024 101.442 327.732 100.738 328.389 99.925L336.119 107.969C334.401 110.677 332.102 112.817 329.222 114.388C326.342 115.958 323.336 116.906 320.203 117.231C319.85 117.231 319.496 117.231 319.142 117.231C318.839 117.285 318.511 117.313 318.157 117.313C313.812 117.313 309.795 115.85 306.107 112.925C302.469 110 300.523 105.288 300.271 98.7875C300.271 98.7333 300.245 98.6792 300.195 98.625C300.195 98.5167 300.195 98.4083 300.195 98.3C300.195 98.1917 300.17 98.1104 300.119 98.0562C300.119 97.9479 300.119 97.8667 300.119 97.8125C300.119 92.2333 301.559 87.8729 304.439 84.7312C307.319 81.5896 310.477 79.6125 313.913 78.8C314.519 78.6375 315.125 78.5292 315.732 78.475C316.389 78.3667 317.02 78.3125 317.627 78.3125C323.033 78.3125 327.125 79.7208 329.904 82.5375C332.683 85.3 334.755 88.55 336.119 92.2875V92.2062Z" fill="white"/>
<path d="M344.119 117.312V80.5409H356.822V85.209C357.812 83.8987 358.828 82.8613 359.868 82.097C360.908 81.278 361.948 80.6501 362.988 80.2134C364.176 79.7766 365.365 79.5309 366.553 79.4763C367.792 79.3671 368.98 79.3125 370.119 79.3125V92.1703C369.872 92.2249 369.599 92.2522 369.302 92.2522C369.005 92.2522 368.732 92.2522 368.485 92.2522C365.811 92.3613 363.359 92.9619 361.131 94.0539C358.952 95.1458 357.862 97.6846 357.862 101.67V117.312H344.119Z" fill="white"/>
<path d="M378.119 69.3125H392.217V80.9681H399.119V93.595H392.217V101.204C392.217 102.445 392.413 103.362 392.804 103.956C393.196 104.495 394.077 104.765 395.448 104.765L399.119 104.684V117.311H391.703C386.612 117.365 383.112 116.07 381.203 113.426C379.343 110.728 378.339 107.76 378.193 104.522C378.144 104.306 378.119 104.09 378.119 103.875C378.119 103.605 378.119 103.335 378.119 103.065V69.3125Z" fill="white"/>
<path d="M407.119 97.4861C407.119 92.3188 408.794 87.8313 412.142 84.0238C415.491 80.2163 419.627 78.3125 424.548 78.3125C430.231 78.3125 434.722 80.2435 438.02 84.1054C441.369 87.9129 443.068 92.1284 443.119 96.7518C443.119 96.8062 443.119 96.8606 443.119 96.915C443.119 96.915 443.119 96.9422 443.119 96.9966C443.119 103.361 441.216 108.31 437.411 111.846C433.656 115.382 429.521 117.204 425.005 117.312C424.903 117.312 424.802 117.312 424.701 117.312C424.65 117.312 424.599 117.312 424.548 117.312C423.736 117.312 422.874 117.231 421.961 117.068C421.047 116.905 420.134 116.66 419.221 116.333C416.176 115.191 413.386 113.07 410.849 109.969C408.362 106.869 407.119 102.735 407.119 97.5677V97.4861ZM420.667 97.4861C420.667 99.0091 421.098 100.206 421.961 101.076C422.874 101.892 423.863 102.327 424.929 102.382C424.98 102.382 425.005 102.382 425.005 102.382C425.056 102.382 425.106 102.382 425.157 102.382C426.223 102.382 427.187 101.974 428.049 101.158C428.963 100.287 429.419 99.0907 429.419 97.5677C429.419 96.2623 429.039 95.256 428.278 94.5489C427.567 93.7874 426.756 93.325 425.842 93.1619C425.741 93.1075 425.614 93.0803 425.462 93.0803C425.36 93.0803 425.259 93.0803 425.157 93.0803C425.106 93.0803 425.056 93.0803 425.005 93.0803C425.005 93.0803 424.98 93.0803 424.929 93.0803C423.863 93.1347 422.874 93.5698 421.961 94.3857C421.098 95.1472 420.667 96.2079 420.667 97.5677V97.4861Z" fill="white"/>
<path d="M491.049 63.3125H504.119V93.8057C504.119 100.984 502.788 106.71 500.125 110.984C497.463 115.203 492.888 117.312 486.401 117.312C481.657 117.312 477.591 115.422 474.202 111.641C470.813 107.806 469.119 103.066 469.119 97.4221C469.119 97.3673 469.119 97.2851 469.119 97.1755C469.168 97.0659 469.192 96.9563 469.192 96.8467C469.192 96.7372 469.192 96.6276 469.192 96.518C469.24 96.4084 469.264 96.3262 469.264 96.2714C469.506 90.0796 471.128 85.4495 474.13 82.381C477.131 79.2577 480.979 77.6961 485.675 77.6961C486.111 77.6961 486.571 77.7235 487.055 77.7783C487.539 77.7783 488.023 77.8331 488.507 77.9426C488.701 77.9426 488.87 77.97 489.015 78.0248C489.209 78.0248 489.379 78.0248 489.524 78.0248V92.0796C489.379 92.0796 489.209 92.0796 489.015 92.0796C488.87 92.0796 488.725 92.0522 488.58 91.9974C488.289 91.9974 487.999 91.9974 487.708 91.9974C487.466 91.9426 487.248 91.9152 487.055 91.9152C485.312 91.9152 483.981 92.4632 483.061 93.5591C482.141 94.655 481.681 96.1892 481.681 98.1618C481.681 99.5865 482.117 100.737 482.988 101.614C483.86 102.436 484.828 102.847 485.893 102.847C485.99 102.847 486.087 102.847 486.183 102.847C486.28 102.847 486.377 102.847 486.474 102.847C487.587 102.682 488.628 102.107 489.596 101.121C490.564 100.08 491.049 98.655 491.049 96.8467V63.3125Z" fill="white"/>
<path d="M547.119 92.2062L530.245 102.769L526.414 95.1313L532.824 91.0688C532.53 90.7979 532.186 90.5271 531.793 90.2563C531.449 89.9854 531.081 89.7958 530.688 89.6875C530.54 89.6333 530.393 89.6062 530.245 89.6062C530.098 89.5521 529.951 89.525 529.803 89.525C529.705 89.525 529.582 89.5521 529.435 89.6062C529.337 89.6062 529.214 89.6062 529.066 89.6062C527.888 89.8771 526.807 90.7167 525.824 92.125C524.842 93.4792 524.351 95.0771 524.351 96.9187C524.351 99.4104 524.965 101.387 526.193 102.85C527.47 104.258 529.017 104.963 530.835 104.963C531.523 104.963 532.259 104.854 533.045 104.638C533.831 104.367 534.617 104.015 535.403 103.581C536.14 103.148 536.852 102.633 537.54 102.037C538.277 101.442 538.965 100.738 539.603 99.925L547.119 107.969C545.449 110.677 543.214 112.817 540.414 114.388C537.614 115.958 534.691 116.906 531.645 117.231C531.302 117.231 530.958 117.231 530.614 117.231C530.319 117.285 530 117.313 529.656 117.313C525.431 117.313 521.526 115.85 517.94 112.925C514.403 110 512.512 105.288 512.267 98.7875C512.267 98.7333 512.242 98.6792 512.193 98.625C512.193 98.5167 512.193 98.4083 512.193 98.3C512.193 98.1917 512.168 98.1104 512.119 98.0562C512.119 97.9479 512.119 97.8667 512.119 97.8125C512.119 92.2333 513.519 87.8729 516.319 84.7312C519.119 81.5896 522.189 79.6125 525.53 78.8C526.119 78.6375 526.709 78.5292 527.298 78.475C527.937 78.3667 528.551 78.3125 529.14 78.3125C534.396 78.3125 538.375 79.7208 541.077 82.5375C543.779 85.3 545.793 88.55 547.119 92.2875V92.2062Z" fill="white"/>
<path d="M573.119 116.41L576.14 72.4219C576.284 69.7958 577.291 67.662 579.161 66.0207C581.079 64.3794 583.14 63.4766 585.346 63.3125C585.442 63.3125 585.538 63.3125 585.634 63.3125C585.777 63.3125 585.897 63.3125 585.993 63.3125C586.089 63.3125 586.185 63.3125 586.281 63.3125C586.377 63.3125 586.473 63.3125 586.569 63.3125C588.439 63.4219 590.213 64.1332 591.891 65.4462C593.569 66.7046 594.672 68.6742 595.199 71.3551L598.796 88.2608L602.895 70.042C603.375 68.1271 604.501 66.5678 606.275 65.3642C608.097 64.1605 610.015 63.5313 612.029 63.4766C612.077 63.4766 612.125 63.4766 612.173 63.4766C612.221 63.4766 612.269 63.4766 612.317 63.4766C612.461 63.4766 612.605 63.4766 612.748 63.4766C612.892 63.4766 613.036 63.4766 613.18 63.4766C615.29 63.6955 617.232 64.5982 619.006 66.1848C620.78 67.7168 621.787 70.2061 622.026 73.6529L625.119 116.41H611.166L609.656 85.963L604.046 112.963C603.854 114.221 603.351 115.206 602.535 115.917C601.768 116.574 600.929 117.012 600.018 117.23C599.826 117.23 599.635 117.23 599.443 117.23C599.299 117.285 599.155 117.313 599.011 117.313C598.915 117.313 598.796 117.313 598.652 117.313C598.556 117.313 598.46 117.285 598.364 117.23C597.549 117.121 596.758 116.765 595.991 116.164C595.271 115.562 594.84 114.714 594.696 113.619L588.582 85.963L586.928 116.41H573.119Z" fill="white"/>
<path d="M655.613 102.616V116.988C655.357 117.096 655.076 117.15 654.769 117.15C654.462 117.15 654.18 117.15 653.924 117.15C653.412 117.204 652.926 117.231 652.466 117.231C652.005 117.285 651.57 117.312 651.16 117.312C645.991 117.312 641.692 115.634 638.263 112.278C634.834 108.922 633.119 104.321 633.119 98.4749C633.119 92.1416 635.013 87.378 638.8 84.1843C642.588 80.9364 647.117 79.3125 652.389 79.3125C658.275 79.3125 662.855 81.2071 666.131 84.9963C669.406 88.7313 671.326 92.8723 671.889 97.4193C671.991 97.9065 672.042 98.3937 672.042 98.8809C672.094 99.368 672.119 99.8552 672.119 100.342V116.988H657.84V98.3937C657.84 96.6615 657.328 95.3623 656.304 94.4962C655.281 93.6302 654.129 93.143 652.849 93.0347C652.798 93.0347 652.722 93.0347 652.619 93.0347C652.568 93.0347 652.517 93.0347 652.466 93.0347C652.414 93.0347 652.363 93.0347 652.312 93.0347C652.312 93.0347 652.286 93.0347 652.235 93.0347C651.007 93.0888 649.881 93.549 648.857 94.4151C647.834 95.227 647.322 96.3908 647.322 97.9065C647.322 99.5846 647.757 100.992 648.627 102.129C649.497 103.265 650.597 103.834 651.928 103.834C652.286 103.834 652.67 103.78 653.08 103.671C653.489 103.563 653.899 103.428 654.308 103.265C654.564 103.211 654.794 103.13 654.999 103.022C655.204 102.914 655.408 102.805 655.613 102.697V102.616Z" fill="white"/>
<path d="M698.575 117.312V96.174C698.575 95.1321 698.354 94.3096 697.913 93.7064C697.472 93.1033 697.006 92.7743 696.516 92.7194C696.467 92.7194 696.418 92.7194 696.369 92.7194C696.369 92.7194 696.345 92.7194 696.296 92.7194C696.198 92.7194 696.099 92.7194 696.001 92.7194C695.952 92.7194 695.879 92.7468 695.781 92.8017C695.291 92.9662 694.825 93.3774 694.384 94.0354C693.943 94.6386 693.722 95.3789 693.722 96.2562V117.312H680.119V94.9402C680.119 89.731 681.467 85.8926 684.163 83.425C686.908 80.9575 689.923 79.6141 693.207 79.3948C693.403 79.3399 693.599 79.3125 693.796 79.3125C693.992 79.3125 694.188 79.3125 694.384 79.3125C696.688 79.3125 698.845 79.806 700.854 80.793C702.913 81.7252 704.408 82.9864 705.34 84.5766C706.467 83.2057 707.889 82.109 709.604 81.2865C711.32 80.4092 713.085 79.8608 714.899 79.6415C715.193 79.6415 715.462 79.6415 715.707 79.6415C716.002 79.5867 716.296 79.5593 716.59 79.5593C719.972 79.5593 723.06 80.7382 725.854 83.0961C728.698 85.4539 730.119 89.2375 730.119 94.4467V117.312H716.443V95.5982C716.443 94.7209 716.247 94.0354 715.854 93.5419C715.511 93.0484 715.119 92.7743 714.678 92.7194C714.629 92.7194 714.58 92.7194 714.531 92.7194C714.531 92.7194 714.506 92.7194 714.457 92.7194C714.408 92.7194 714.335 92.7194 714.237 92.7194C714.188 92.7194 714.139 92.7468 714.09 92.8017C713.649 92.9113 713.232 93.2952 712.84 93.9532C712.448 94.6112 712.252 95.5708 712.252 96.832V117.312H698.575Z" fill="white"/>
<path d="M738.119 97.4861C738.119 92.3188 739.794 87.8313 743.142 84.0238C746.491 80.2163 750.627 78.3125 755.548 78.3125C761.231 78.3125 765.722 80.2435 769.02 84.1054C772.369 87.9129 774.068 92.1284 774.119 96.7518C774.119 96.8062 774.119 96.8606 774.119 96.915C774.119 96.915 774.119 96.9422 774.119 96.9966C774.119 103.361 772.216 108.31 768.411 111.846C764.656 115.382 760.521 117.204 756.005 117.312C755.903 117.312 755.802 117.312 755.701 117.312C755.65 117.312 755.599 117.312 755.548 117.312C754.736 117.312 753.874 117.231 752.961 117.068C752.047 116.905 751.134 116.66 750.221 116.333C747.176 115.191 744.385 113.07 741.848 109.969C739.362 106.869 738.119 102.735 738.119 97.5677V97.4861ZM751.667 97.4861C751.667 99.0091 752.098 100.206 752.961 101.076C753.874 101.892 754.863 102.327 755.929 102.382C755.98 102.382 756.005 102.382 756.005 102.382C756.056 102.382 756.106 102.382 756.157 102.382C757.223 102.382 758.187 101.974 759.049 101.158C759.963 100.287 760.419 99.0907 760.419 97.5677C760.419 96.2623 760.039 95.256 759.278 94.5489C758.567 93.7874 757.756 93.325 756.842 93.1619C756.741 93.1075 756.614 93.0803 756.462 93.0803C756.36 93.0803 756.259 93.0803 756.157 93.0803C756.106 93.0803 756.056 93.0803 756.005 93.0803C756.005 93.0803 755.98 93.0803 755.929 93.0803C754.863 93.1347 753.874 93.5698 752.961 94.3857C752.098 95.1472 751.667 96.2079 751.667 97.5677V97.4861Z" fill="white"/>
<path d="M782.119 117.312V94.0554C782.119 89.5015 783.754 86.0861 787.025 83.8092C790.296 81.4781 793.909 80.3125 797.863 80.3125C798.009 80.3125 798.131 80.3125 798.229 80.3125C798.375 80.3125 798.522 80.3125 798.668 80.3125C802.525 80.4751 806.064 81.7491 809.286 84.1345C812.508 86.5198 814.119 90.0436 814.119 94.7059V117.312H799.986V95.8444C799.986 95.1396 799.816 94.5975 799.474 94.218C799.181 93.7843 798.839 93.5132 798.449 93.4048C798.4 93.3506 798.327 93.3235 798.229 93.3235C798.18 93.3235 798.107 93.3235 798.009 93.3235C797.912 93.3235 797.814 93.3506 797.716 93.4048C797.619 93.4048 797.521 93.4048 797.423 93.4048C796.984 93.5674 796.569 93.8927 796.179 94.3806C795.837 94.8143 795.666 95.3294 795.666 95.9257V117.312H782.119Z" fill="white"/>
<path d="M843.46 102.616V116.988C843.217 117.096 842.95 117.15 842.659 117.15C842.367 117.15 842.1 117.15 841.857 117.15C841.372 117.204 840.91 117.231 840.473 117.231C840.036 117.285 839.624 117.312 839.235 117.312C834.331 117.312 830.252 115.634 826.999 112.278C823.746 108.922 822.119 104.321 822.119 98.4749C822.119 92.1416 823.916 87.378 827.509 84.1843C831.102 80.9364 835.399 79.3125 840.401 79.3125C845.985 79.3125 850.33 81.2071 853.438 84.9963C856.546 88.7313 858.366 92.8723 858.901 97.4193C858.998 97.9065 859.046 98.3937 859.046 98.8809C859.095 99.368 859.119 99.8552 859.119 100.342V116.988H845.572V98.3937C845.572 96.6615 845.086 95.3623 844.115 94.4962C843.144 93.6302 842.052 93.143 840.838 93.0347C840.789 93.0347 840.716 93.0347 840.619 93.0347C840.571 93.0347 840.522 93.0347 840.473 93.0347C840.425 93.0347 840.376 93.0347 840.328 93.0347C840.328 93.0347 840.303 93.0347 840.255 93.0347C839.09 93.0888 838.021 93.549 837.05 94.4151C836.079 95.227 835.594 96.3908 835.594 97.9065C835.594 99.5846 836.006 100.992 836.832 102.129C837.657 103.265 838.701 103.834 839.964 103.834C840.303 103.834 840.668 103.78 841.056 103.671C841.445 103.563 841.833 103.428 842.221 103.265C842.464 103.211 842.683 103.13 842.877 103.022C843.071 102.914 843.265 102.805 843.46 102.697V102.616Z" fill="white"/>
<path d="M867.119 117.312V65.3125H882.119V117.312H867.119Z" fill="white"/>
<path d="M154.484 25H52V101.038H76.401L116.419 126.384L173.029 95.189C177.909 92.2295 192.527 79.4105 189.621 56.195C186.693 32.7985 173.029 24.9998 154.484 25Z" fill="white"/>
<path d="M69.5687 114.685H52V180H189.621V114.685H165.22L116.419 143.931L69.5687 114.685Z" fill="white"/>
</svg>
