<svg version="1.1" id="Layer_1" xmlns="http://www.w3.org/2000/svg" xmlns:xlink="http://www.w3.org/1999/xlink" x="0px" y="0px"
	 width="100%" viewBox="0 0 2252 477" enable-background="new 0 0 2252 477" xml:space="preserve">
<path fill="#FDF200" opacity="1.000000" stroke="none" 
	d="
M1641.000000,478.000000 
	C1094.049927,478.000000 547.599915,478.000000 1.074953,478.000000 
	C1.074953,319.064545 1.074953,160.129028 1.074953,1.096760 
	C751.666687,1.096760 1502.333374,1.096760 2252.971680,1.096760 
	C2252.971680,160.067017 2252.971680,319.033508 2252.971680,478.000000 
	C2049.128662,478.000000 1845.314331,478.000000 1641.000000,478.000000 
M307.875214,223.389969 
	C317.630585,217.065598 327.727386,211.206100 337.081787,204.335800 
	C376.103271,175.676651 367.647308,121.412262 347.758667,97.486107 
	C338.755524,86.655350 327.921478,80.492737 312.871002,80.614235 
	C249.066650,81.129349 185.255737,80.833153 121.447227,80.833389 
	C119.502853,80.833397 117.558472,80.833389 115.395271,80.833389 
	C115.395271,125.803680 115.395271,170.202118 115.395271,215.167694 
	C126.892746,215.167694 138.170074,215.051361 149.441513,215.257507 
	C151.952835,215.303436 154.767532,215.944534 156.894073,217.223511 
	C181.835556,232.224640 206.711288,247.336624 231.487228,262.609406 
	C234.577164,264.514130 236.742828,264.640930 239.916504,262.780029 
	C262.291656,249.660339 284.799011,236.766144 307.875214,223.389969 
M182.430771,258.052094 
	C172.041489,252.105423 161.185547,246.831894 151.384155,240.037186 
	C139.817429,232.018707 127.479431,236.242355 115.457489,234.903595 
	C115.457489,278.176880 115.457489,320.593719 115.457489,363.164551 
	C200.622726,363.164551 285.493530,363.164551 370.482056,363.164551 
	C370.482056,320.298859 370.482056,277.763916 370.482056,234.999695 
	C357.143341,234.999695 344.156250,234.873901 331.175171,235.098602 
	C328.346802,235.147568 325.218872,235.881180 322.772491,237.262268 
	C294.553619,253.192719 266.410217,269.257935 238.340439,285.449768 
	C235.349380,287.175140 233.248276,287.211365 230.239304,285.447968 
	C214.605072,276.285431 198.808670,267.399506 182.430771,258.052094 
M1249.000366,232.500000 
	C1249.000366,219.503693 1248.949829,206.506973 1249.051514,193.511444 
	C1249.068115,191.408844 1249.344482,189.090210 1250.297241,187.293854 
	C1250.880371,186.194641 1253.027710,185.330322 1254.386353,185.438843 
	C1255.350342,185.515839 1256.663940,187.279541 1256.947754,188.494446 
	C1257.469849,190.729996 1257.472168,193.115585 1257.476318,195.439011 
	C1257.512817,215.933365 1257.496338,236.427795 1257.515381,256.922211 
	C1257.517090,258.671234 1257.662964,260.420166 1257.746582,262.273407 
	C1268.429932,262.273407 1278.538696,262.273407 1288.540527,262.273407 
	C1288.794312,261.755371 1289.059814,261.466766 1289.059448,261.178528 
	C1289.024658,234.691681 1290.055420,208.145233 1288.604736,181.735168 
	C1287.207031,156.291153 1267.787964,150.093979 1249.178711,155.430145 
	C1242.987427,157.205444 1237.904175,162.845093 1232.213013,166.788376 
	C1222.590942,155.441132 1214.144775,151.861755 1201.357300,154.205948 
	C1186.505371,156.928619 1176.984741,169.087784 1176.873657,186.098328 
	C1176.714722,210.423981 1176.830322,234.751465 1176.844604,259.078156 
	C1176.845215,260.053070 1177.008789,261.027954 1177.115845,262.218811 
	C1187.509399,262.218811 1197.759277,262.218811 1208.495605,262.218811 
	C1208.495605,260.133087 1208.494995,258.332031 1208.495728,256.530945 
	C1208.503296,235.703323 1208.416626,214.874786 1208.614380,194.048965 
	C1208.646240,190.694016 1207.910522,185.497406 1213.018921,185.424240 
	C1218.573120,185.344681 1217.053467,190.632538 1217.078857,193.898438 
	C1217.242188,214.891434 1217.162476,235.886337 1217.162598,256.880615 
	C1217.162598,258.627441 1217.162720,260.374268 1217.162720,262.226379 
	C1228.173706,262.226379 1238.439941,262.226379 1249.000366,262.226379 
	C1249.000366,252.466049 1249.000366,242.983032 1249.000366,232.500000 
M2034.000732,258.234192 
	C2034.000732,251.304688 2034.000732,244.375198 2034.000732,237.142181 
	C2037.282837,237.142181 2039.892334,237.142181 2042.674561,237.142181 
	C2042.674561,227.607193 2042.674561,218.394897 2042.674561,208.729828 
	C2039.612305,208.729828 2036.875488,208.729828 2034.477905,208.729828 
	C2034.477905,202.465729 2034.116455,196.630447 2034.608765,190.868118 
	C2034.921631,187.205429 2037.612183,185.014221 2041.603027,185.181915 
	C2045.251343,185.335220 2046.919678,187.565414 2047.321289,190.932297 
	C2047.576660,193.072845 2047.805542,195.232803 2047.809570,197.384506 
	C2047.846680,217.214676 2047.832153,237.044968 2047.832642,256.875214 
	C2047.832642,258.630432 2047.832642,260.385620 2047.832642,262.114319 
	C2058.750488,262.114319 2068.977051,262.114319 2079.507324,262.114319 
	C2079.507324,257.740265 2079.529541,253.758026 2079.503418,249.776123 
	C2079.362061,228.286926 2079.706055,206.779282 2078.905029,185.314468 
	C2078.243164,167.577332 2068.607910,157.128937 2052.003662,154.355759 
	C2048.258057,153.730148 2044.363525,153.817703 2040.540649,153.859573 
	C2017.909790,154.107590 2002.720947,168.570465 2002.270874,191.238663 
	C2001.811279,214.392242 2002.183228,237.562363 2002.213501,260.725220 
	C2002.214111,261.169464 2002.493530,261.613312 2002.789307,262.492432 
	C2012.383911,262.492432 2022.019653,262.571777 2031.648315,262.348328 
	C2032.456665,262.329590 2033.217651,260.276367 2034.000732,258.234192 
M1498.725098,193.832062 
	C1494.061157,188.227127 1488.131470,185.058273 1480.922241,183.751251 
	C1469.470825,181.675125 1460.702271,186.874756 1452.596802,193.779800 
	C1451.676636,193.008514 1451.025146,192.491119 1450.405151,191.938278 
	C1440.713379,183.296326 1429.686157,180.533524 1417.653564,185.849930 
	C1405.326904,191.296234 1399.449219,201.552673 1399.222778,214.828049 
	C1398.967041,229.813690 1399.160400,244.807053 1399.178345,259.797028 
	C1399.179199,260.566956 1399.366455,261.336700 1399.478882,262.196899 
	C1409.221924,262.196899 1418.625000,262.196899 1428.506836,262.196899 
	C1428.506836,249.271011 1428.472778,236.651855 1428.534546,224.033173 
	C1428.547485,221.381638 1428.409912,218.547348 1429.291138,216.145645 
	C1429.885986,214.524368 1432.043091,212.725510 1433.697388,212.509720 
	C1434.787354,212.367569 1436.675659,214.698990 1437.380737,216.288925 
	C1438.073486,217.850616 1437.812012,219.874878 1437.815552,221.696442 
	C1437.841919,235.144409 1437.829834,248.592453 1437.829834,262.092102 
	C1447.864502,262.092102 1457.388184,262.092102 1467.170166,262.092102 
	C1467.170166,257.693054 1467.167847,253.707321 1467.170776,249.721588 
	C1467.178467,239.395309 1467.081421,229.067154 1467.263794,218.743942 
	C1467.317017,215.730179 1468.051392,212.333801 1472.020874,212.296616 
	C1475.919312,212.260117 1476.189819,215.516235 1476.227905,218.414841 
	C1476.368042,229.068161 1476.418579,239.722733 1476.486328,250.376938 
	C1476.511230,254.303848 1476.490356,258.231079 1476.490356,262.187042 
	C1486.646729,262.187042 1496.065674,262.187042 1505.348267,262.187042 
	C1505.348267,245.077194 1505.865479,228.266159 1505.065063,211.518112 
	C1504.788452,205.731888 1501.234497,200.102280 1498.725098,193.832062 
M962.788086,197.301254 
	C951.400940,210.897156 949.535034,229.764954 958.145508,244.248779 
	C967.099976,259.311462 984.881287,266.876678 1002.437012,263.093018 
	C1021.725464,258.935913 1033.834961,243.514542 1033.971680,222.541916 
	C1034.107422,201.728058 1034.008423,180.912643 1033.984985,160.097916 
	C1033.983521,158.844040 1033.740723,157.590424 1033.615479,156.387817 
	C1023.947937,156.387817 1014.678040,156.387817 1004.832764,156.387817 
	C1004.832764,158.382278 1004.832703,160.157837 1004.832703,161.933395 
	C1004.832520,180.749908 1004.884460,199.566727 1004.780945,218.382675 
	C1004.763733,221.513245 1004.437134,224.741028 1003.609985,227.746811 
	C1002.078552,233.312073 997.353149,235.963623 991.642700,234.969284 
	C986.205566,234.022537 982.184143,228.971710 982.550659,223.550034 
	C982.906128,218.291946 987.292725,213.432602 992.395996,213.324448 
	C994.898743,213.271408 997.425232,214.341171 1000.223267,214.965805 
	C1000.223267,204.706329 1000.223267,194.489944 1000.223267,183.999451 
	C985.438354,181.556778 973.235657,185.939133 962.788086,197.301254 
M464.489227,176.173874 
	C463.380798,182.348206 461.436188,188.506393 461.316437,194.699829 
	C460.914276,215.502045 461.162628,236.316803 461.161987,257.126770 
	C461.161957,258.740448 461.161957,260.354095 461.161957,262.143982 
	C472.040100,262.143982 482.406891,262.143982 493.002563,262.143982 
	C493.002563,239.312149 492.978790,216.846191 493.041443,194.380463 
	C493.047333,192.264038 493.213928,189.998657 493.973724,188.064804 
	C495.554199,184.042023 499.060822,183.626053 502.734253,184.476364 
	C506.238220,185.287415 507.323547,187.839340 507.179260,191.265259 
	C506.926331,197.269897 501.844910,197.049820 498.164368,198.293533 
	C498.164368,207.619644 498.164368,216.683624 498.164368,225.949097 
	C500.970947,225.949097 503.450409,226.045822 505.920471,225.934311 
	C533.945129,224.669250 549.029663,198.047714 535.458252,173.387344 
	C528.183533,160.168655 516.620972,153.556274 501.438324,153.860840 
	C485.230286,154.185974 472.608826,160.796341 464.489227,176.173874 
M1305.437256,206.076920 
	C1299.059814,221.808548 1299.918213,236.830978 1311.007690,250.141754 
	C1320.745239,261.829895 1333.746582,265.496307 1348.750000,263.604858 
	C1348.750000,253.478058 1348.750000,243.748611 1348.750000,233.759811 
	C1347.345459,234.180832 1346.260376,234.577560 1345.142456,234.829529 
	C1338.176880,236.399567 1332.605957,232.805008 1331.464111,226.035858 
	C1330.471191,220.150345 1335.224976,214.012955 1341.374756,213.240555 
	C1347.226440,212.505600 1352.428833,217.082413 1353.048096,223.643707 
	C1353.250977,225.792892 1353.153320,227.972534 1353.155029,230.138260 
	C1353.163330,240.751877 1353.158813,251.365479 1353.158813,262.207642 
	C1363.262939,262.207642 1372.843750,262.207642 1381.884766,262.207642 
	C1381.884766,246.122147 1382.324707,230.328918 1381.690552,214.578934 
	C1381.393921,207.210037 1377.537354,200.727036 1372.513916,195.035675 
	C1358.413696,179.060318 1320.715698,176.274857 1305.437256,206.076920 
M1702.691162,250.777679 
	C1712.708618,261.696106 1725.170288,265.415405 1739.889526,263.618439 
	C1739.889526,253.571960 1739.889526,243.829636 1739.889526,233.864105 
	C1738.252930,234.281876 1736.847778,234.749786 1735.404541,234.989670 
	C1729.874390,235.908783 1725.016724,233.278336 1723.291626,228.509933 
	C1721.388794,223.249924 1723.489990,217.565536 1728.378174,214.749359 
	C1736.124023,210.286896 1744.185425,215.564972 1744.427246,225.578033 
	C1744.680542,236.061981 1744.479370,246.556656 1744.503540,257.046570 
	C1744.507568,258.796570 1744.647461,260.546234 1744.721924,262.236023 
	C1754.794556,262.236023 1764.237671,262.236023 1773.737061,262.236023 
	C1773.737061,247.668045 1774.272949,233.346329 1773.579102,219.084457 
	C1772.948242,206.116669 1767.270142,195.348572 1755.599854,188.626053 
	C1738.433228,178.737610 1715.188477,182.531464 1702.707031,197.082214 
	C1689.555664,212.413773 1689.357300,233.934555 1702.691162,250.777679 
M851.853149,185.158585 
	C833.757568,191.985565 823.653564,205.985016 823.841309,223.969925 
	C824.018188,240.905884 834.762512,256.057220 850.659851,261.788269 
	C867.040527,267.693512 885.307556,262.597443 896.620422,248.966354 
	C907.271240,236.132843 908.531433,216.300903 899.582397,202.350174 
	C889.278748,186.287796 871.783752,179.821793 851.853149,185.158585 
M1518.099731,217.015228 
	C1518.009644,219.844757 1517.791748,222.676941 1517.850220,225.503403 
	C1518.184448,241.659378 1529.402588,256.604675 1545.121460,261.937988 
	C1561.682739,267.557098 1579.418335,262.442566 1590.615723,248.818405 
	C1600.732300,236.509338 1602.284546,217.531509 1594.297485,203.805450 
	C1585.213257,188.194534 1569.939209,181.180450 1551.007812,183.969162 
	C1537.095459,186.018524 1521.493774,197.772156 1518.099731,217.015228 
M1649.955688,183.470779 
	C1630.828857,181.519516 1614.096436,193.747940 1612.003662,212.838882 
	C1610.540771,226.183762 1611.351929,239.778641 1611.165161,253.262100 
	C1611.124390,256.196472 1611.159180,259.131927 1611.159180,262.208435 
	C1621.195923,262.208435 1630.604248,262.208435 1640.509888,262.208435 
	C1640.509888,260.294647 1640.509888,258.665344 1640.510010,257.036072 
	C1640.511353,244.537476 1640.494629,232.038849 1640.524658,219.540329 
	C1640.533447,215.830200 1641.013672,212.145050 1645.902344,212.247894 
	C1650.707886,212.348984 1651.157471,215.989822 1651.156982,219.724655 
	C1651.156372,224.890747 1651.158813,230.056824 1651.158936,235.222916 
	C1651.159424,244.158707 1651.159180,253.094498 1651.159180,262.222992 
	C1661.162598,262.222992 1670.572388,262.222992 1680.139648,262.222992 
	C1680.286255,261.336792 1680.486450,260.705902 1680.480713,260.076813 
	C1680.343750,244.920624 1680.655151,229.741257 1679.904541,214.614777 
	C1679.062866,197.656860 1667.668823,186.017853 1649.955688,183.470779 
M609.452576,254.945511 
	C614.602844,249.901428 618.628845,243.824860 618.865906,236.722412 
	C619.424011,219.996445 619.044739,203.239197 619.044739,186.343597 
	C609.844299,186.343597 600.330383,186.343597 590.484497,186.343597 
	C590.484497,200.815186 590.531616,214.943115 590.452515,229.070358 
	C590.431824,232.772858 589.711060,236.343933 584.784912,236.104935 
	C580.184326,235.881729 579.840698,232.468872 579.840820,228.935776 
	C579.841187,216.285965 579.839905,203.636169 579.839294,190.986359 
	C579.839233,189.396683 579.839294,187.807007 579.839294,186.282501 
	C569.709717,186.282501 560.297852,186.282501 550.890198,186.282501 
	C550.890198,202.345535 550.367981,218.146042 551.048767,233.894562 
	C551.635803,247.475296 558.665161,257.787018 571.520020,262.622101 
	C585.103821,267.731384 598.023499,265.936523 609.452576,254.945511 
M1926.161499,229.422516 
	C1926.656982,218.738663 1921.932983,209.790909 1916.783813,200.954208 
	C1914.505737,197.044693 1913.293579,192.883957 1916.261963,188.777832 
	C1919.130981,184.809341 1923.125244,184.572189 1927.457031,185.918610 
	C1927.659180,185.981461 1927.995239,185.613831 1928.508667,185.300323 
	C1928.508667,176.618896 1928.405762,167.793503 1928.567505,158.972977 
	C1928.620239,156.101181 1927.235962,155.440445 1924.823975,154.820526 
	C1899.899414,148.414764 1876.198120,169.495087 1879.405396,195.016815 
	C1880.604004,204.554855 1884.825439,212.736313 1889.177124,220.970093 
	C1890.742676,223.931992 1891.942871,227.405197 1889.097412,229.665344 
	C1886.611938,231.639511 1883.087158,232.725357 1879.872070,233.208237 
	C1877.836670,233.513901 1875.527222,231.994476 1873.000000,231.184418 
	C1873.000000,240.628479 1872.861328,249.932129 1873.157593,259.221893 
	C1873.199341,260.531860 1875.128052,262.415405 1876.582397,262.951813 
	C1899.699219,271.478119 1924.513550,255.078369 1926.161499,229.422516 
M1088.868530,206.346680 
	C1092.782471,207.356598 1095.165039,209.754028 1095.912964,214.434021 
	C1090.958252,214.434021 1086.227661,214.434021 1080.842041,214.434021 
	C1080.842041,219.445511 1080.842041,223.874191 1080.842041,228.225189 
	C1096.107300,228.225189 1110.532104,228.225189 1124.895874,228.225189 
	C1128.442627,210.332581 1117.319092,191.586945 1099.729248,185.428970 
	C1080.291260,178.623962 1058.572388,186.925186 1049.223267,204.732986 
	C1039.844727,222.596786 1045.194824,245.137268 1061.589844,256.835327 
	C1076.239624,267.288147 1099.834229,266.233368 1111.099854,254.438171 
	C1105.719238,247.970413 1100.319946,241.480209 1094.933350,235.005280 
	C1085.797363,241.827805 1077.355591,239.221802 1075.369995,228.756042 
	C1074.535645,224.358398 1074.869141,219.429642 1075.941528,215.053513 
	C1077.489380,208.736938 1081.454224,206.381683 1088.868530,206.346680 
M667.622559,237.097519 
	C660.570435,229.891907 659.803833,216.635895 666.109070,209.830887 
	C669.204773,206.489792 673.005310,205.244431 677.408691,206.780365 
	C680.772095,207.953506 682.929932,210.157166 682.866516,214.488800 
	C680.670715,214.488800 678.702087,214.488113 676.733521,214.488892 
	C667.645325,214.492493 666.359619,216.031952 667.762390,225.293549 
	C667.907410,226.250595 668.201599,227.185074 668.447876,228.219894 
	C683.217590,228.219894 697.810242,228.219894 712.347290,228.219894 
	C715.684326,209.966110 704.243408,191.047913 686.546265,185.174423 
	C666.851746,178.638000 645.016846,187.506073 636.039001,205.687561 
	C627.190247,223.607590 633.006592,245.915329 649.449097,257.119843 
	C664.420349,267.321869 687.866333,266.066223 698.418640,254.349625 
	C693.041931,247.918365 687.647644,241.466110 682.130798,234.867218 
	C677.753601,238.900665 673.389648,240.692764 667.622559,237.097519 
M814.511963,199.512711 
	C814.511963,195.085129 814.511963,190.657532 814.511963,185.895508 
	C809.881775,185.895508 805.930542,185.895508 801.384583,185.895508 
	C801.384583,175.840485 801.384583,166.122635 801.384583,156.497955 
	C791.369812,156.497955 781.961914,156.497955 772.394775,156.497955 
	C772.299805,157.625916 772.173157,158.431732 772.172729,159.237595 
	C772.161926,180.206558 771.876526,201.181885 772.338379,222.140671 
	C772.478271,228.487808 773.859253,235.106323 776.120728,241.049149 
	C781.751282,255.845474 800.962463,266.464355 814.794922,263.052002 
	C814.794922,253.169052 814.794922,243.233093 814.794922,233.313263 
	C803.727966,231.161011 801.240723,228.064194 801.976746,216.905426 
	C806.000916,216.905426 810.077087,216.905426 814.511902,216.905426 
	C814.511902,211.110123 814.511902,205.808075 814.511963,199.512711 
M1790.486938,188.499725 
	C1790.486938,213.066376 1790.486938,237.633041 1790.486938,262.174835 
	C1800.696777,262.174835 1810.118530,262.174835 1819.545044,262.174835 
	C1819.545044,226.771286 1819.545044,191.707718 1819.545044,156.403198 
	C1809.847534,156.403198 1800.447754,156.403198 1790.487061,156.403198 
	C1790.487061,166.925934 1790.487061,177.212814 1790.486938,188.499725 
M1100.449219,392.780273 
	C1103.345093,396.966705 1105.543823,401.961395 1109.274780,405.179504 
	C1118.409668,413.058685 1129.084961,414.085846 1140.056274,409.117310 
	C1150.969482,404.175079 1155.649170,394.934204 1155.908813,383.480804 
	C1156.237061,369.003418 1156.003540,354.513123 1155.990479,340.028412 
	C1155.989502,338.941071 1155.813599,337.853851 1155.718994,336.767700 
	C1148.874756,336.767700 1142.453857,336.767700 1135.725342,336.767700 
	C1135.638794,338.649475 1135.502319,340.270325 1135.499756,341.891388 
	C1135.480713,353.878784 1135.524292,365.866394 1135.459595,377.853485 
	C1135.445190,380.504944 1135.358643,383.214081 1134.810913,385.791626 
	C1133.889282,390.128387 1130.372559,392.286743 1126.294556,391.423187 
	C1121.964844,390.506317 1119.304932,386.734406 1120.094116,382.630157 
	C1120.896606,378.455994 1124.658813,375.975281 1129.037354,376.775482 
	C1130.086060,376.967133 1131.109253,377.298828 1132.342773,377.617371 
	C1132.342773,370.277313 1132.342773,363.322418 1132.342773,356.017548 
	C1124.498169,354.613770 1117.354248,355.803436 1111.062500,360.610168 
	C1100.551270,368.640442 1097.180420,379.246490 1100.449219,392.780273 
M1261.828491,411.625549 
	C1277.413818,408.006317 1285.256836,398.386139 1285.476685,382.222473 
	C1285.637451,370.408569 1285.509155,358.590729 1285.509521,346.774658 
	C1285.509644,343.498749 1285.509644,340.222839 1285.509644,336.829407 
	C1278.333984,336.829407 1271.786377,336.829407 1265.318237,336.829407 
	C1265.169189,337.490631 1265.032837,337.813965 1265.032349,338.137482 
	C1265.013428,351.950562 1265.045166,365.763855 1264.960327,379.576447 
	C1264.946167,381.869995 1264.733521,384.251373 1264.080811,386.433105 
	C1262.781982,390.775024 1259.341309,392.498047 1255.208618,391.259521 
	C1251.074829,390.020721 1248.936279,386.557037 1249.787354,382.479370 
	C1250.636963,378.408875 1254.102539,376.021545 1258.291870,376.705719 
	C1259.485107,376.900574 1260.639771,377.331848 1261.892578,377.676849 
	C1261.892578,370.255615 1261.892578,363.168274 1261.892578,355.938904 
	C1254.283569,354.737122 1247.434570,355.816193 1241.239136,360.150452 
	C1230.193604,367.877930 1225.826294,381.287781 1230.327271,393.634766 
	C1234.766968,405.813599 1246.552979,412.785156 1261.828491,411.625549 
M1346.002930,375.503357 
	C1346.035522,370.509521 1345.642822,365.455841 1346.332520,360.554474 
	C1346.572510,358.849518 1349.311890,356.747131 1351.249268,356.301208 
	C1352.481079,356.017639 1355.756836,358.654205 1355.617432,359.621155 
	C1355.331909,361.602051 1353.482300,363.442474 1352.027954,365.126068 
	C1351.481934,365.758148 1350.245605,365.793945 1349.392822,366.078613 
	C1349.392822,372.411194 1349.392822,378.516968 1349.392822,384.575867 
	C1363.825073,387.107086 1375.334473,380.379608 1378.040894,367.831024 
	C1380.372803,357.018158 1377.800659,347.556793 1369.021362,340.522705 
	C1359.929688,333.238495 1349.675659,333.048065 1339.387573,337.523590 
	C1329.290161,341.916168 1323.999146,349.973450 1323.874023,361.042236 
	C1323.719727,374.693695 1323.831543,388.348145 1323.828491,402.001312 
	C1323.827881,404.784332 1323.828491,407.567383 1323.828491,410.587952 
	C1331.418579,410.587952 1338.481201,410.587952 1346.002930,410.587952 
	C1346.002930,399.061646 1346.002930,387.781860 1346.002930,375.503357 
M767.170715,210.278107 
	C767.170715,201.648514 767.170715,193.018906 767.170715,184.487030 
	C743.776306,179.563278 726.445374,191.944260 724.884033,215.317657 
	C723.909058,229.914047 724.560852,244.619522 724.508606,259.276154 
	C724.505188,260.221832 724.725098,261.168304 724.853088,262.212524 
	C734.575317,262.212524 743.992004,262.212524 753.837952,262.212524 
	C753.837952,249.794907 753.787415,237.670441 753.853333,225.546600 
	C753.909363,215.248840 756.859314,212.816376 766.980713,214.677917 
	C767.044800,213.508148 767.107605,212.362198 767.170715,210.278107 
M1713.884277,396.446106 
	C1720.484863,408.388702 1732.613770,414.298187 1744.519531,410.986847 
	C1744.519531,407.841034 1744.519409,404.541595 1744.519409,401.242126 
	C1744.519409,397.823456 1744.519531,394.404816 1744.519531,390.606964 
	C1742.962891,391.000305 1742.195068,391.232239 1741.412109,391.385986 
	C1736.733032,392.304443 1732.831909,389.842651 1732.083496,385.516815 
	C1731.397827,381.553894 1734.345459,377.367218 1738.324219,376.652832 
	C1742.799927,375.849213 1746.415527,378.557343 1746.997925,383.388062 
	C1747.275146,385.688538 1747.143677,388.041656 1747.148926,390.371002 
	C1747.163818,397.116943 1747.154053,403.862976 1747.154053,410.416809 
	C1754.534180,410.416809 1761.090698,410.416809 1767.846558,410.416809 
	C1767.846558,401.837921 1767.847412,393.687042 1767.846069,385.536133 
	C1767.845947,384.037872 1767.923462,382.533508 1767.818604,381.042267 
	C1766.978271,369.094788 1760.485718,359.994537 1750.072266,356.998016 
	C1738.424438,353.646423 1727.457397,354.930878 1718.796875,364.215912 
	C1710.213745,373.418091 1709.127686,384.218048 1713.884277,396.446106 
M1212.960327,363.557098 
	C1206.614136,356.820251 1198.492188,355.063965 1189.710815,355.521667 
	C1173.882935,356.346588 1162.572021,369.573975 1163.495605,385.983307 
	C1164.353027,401.217743 1177.263062,412.787109 1192.655029,411.905365 
	C1194.079224,411.823761 1196.580322,410.496765 1196.627930,409.639679 
	C1196.971680,403.442230 1196.812378,397.216888 1196.812378,390.621429 
	C1195.284546,390.996460 1194.504028,391.218933 1193.710815,391.377686 
	C1188.978027,392.324799 1185.282837,390.004639 1184.379395,385.533905 
	C1183.583862,381.597168 1186.493774,377.405243 1190.531372,376.671539 
	C1195.129883,375.835907 1198.496826,378.317535 1199.241943,383.334625 
	C1199.557251,385.458435 1199.469727,387.649353 1199.477539,389.810089 
	C1199.502808,396.742889 1199.486938,403.675842 1199.486938,410.586182 
	C1206.687256,410.586182 1213.121582,410.586182 1220.004272,410.586182 
	C1220.004272,401.217804 1220.001099,392.098480 1220.005371,382.979187 
	C1220.008545,375.920319 1218.081909,369.531158 1212.960327,363.557098 
M1614.156860,392.545349 
	C1614.156860,398.483856 1614.156860,404.422394 1614.156860,410.532532 
	C1621.294922,410.532532 1627.844604,410.532532 1633.989136,410.532532 
	C1633.989136,398.957581 1634.374512,387.680237 1633.770264,376.456238 
	C1633.571411,372.762756 1631.353760,368.825043 1629.122314,365.659485 
	C1622.133545,355.745300 1606.408447,352.443451 1594.336914,357.908478 
	C1582.536255,363.250854 1575.843384,376.427368 1578.411133,389.261719 
	C1581.516479,404.782898 1596.703735,415.054413 1611.176392,411.056305 
	C1611.176392,407.860779 1611.176392,404.555450 1611.176392,401.250153 
	C1611.176392,397.844727 1611.176392,394.439331 1611.176392,390.804962 
	C1609.846558,391.041870 1609.201660,391.146881 1608.560791,391.272461 
	C1603.572876,392.250122 1599.904175,390.145447 1599.051392,385.812805 
	C1598.198975,381.481903 1601.073975,377.308655 1605.384277,376.620148 
	C1609.781494,375.917725 1613.304810,378.662842 1613.926636,383.590302 
	C1614.258057,386.216797 1614.095947,388.905518 1614.156860,392.545349 
M881.100098,379.015533 
	C881.039612,381.006866 880.860352,383.002808 880.938171,384.988739 
	C881.389587,396.520386 889.169800,406.851654 900.066833,410.485260 
	C911.702881,414.365265 924.458923,410.628937 931.924988,401.153717 
	C939.280090,391.819244 940.108521,378.978210 934.003296,368.938202 
	C927.786133,358.713928 917.000244,353.740753 904.511230,355.892212 
	C891.902649,358.064301 884.214905,365.733124 881.100098,379.015533 
M1383.880859,391.370270 
	C1388.112671,404.389893 1399.245605,412.455505 1412.344849,411.991943 
	C1424.944458,411.546082 1436.052002,402.822296 1439.042969,391.023346 
	C1442.084595,379.025055 1437.875732,367.523651 1427.796143,360.288910 
	C1418.864014,353.877777 1405.345947,353.675751 1395.812500,359.810944 
	C1385.323242,366.561279 1381.064087,377.318604 1383.880859,391.370270 
M1541.511841,370.521912 
	C1541.511841,366.129425 1541.511841,361.736908 1541.511841,357.470459 
	C1534.162842,357.470459 1527.741211,357.470459 1520.997070,357.470459 
	C1520.997070,366.905701 1520.990967,376.035614 1521.002197,385.165527 
	C1521.004517,386.995087 1520.946777,388.837433 1521.131470,390.652039 
	C1522.440552,403.518463 1531.177490,411.952820 1543.990234,412.791077 
	C1555.154419,413.521515 1567.044189,405.578583 1568.362427,394.190613 
	C1569.760742,382.108765 1568.676514,369.739594 1568.676514,357.495850 
	C1562.268066,357.495850 1555.696655,357.495850 1548.830444,357.495850 
	C1548.830444,367.468018 1548.826416,377.108002 1548.833252,386.747986 
	C1548.835083,389.352142 1548.782349,392.107971 1545.308105,392.224823 
	C1541.806030,392.342590 1541.535767,389.625916 1541.522461,386.994537 
	C1541.496338,381.834961 1541.512817,376.675140 1541.511841,370.521912 
M980.063171,379.001801 
	C986.315552,379.001801 992.567993,379.001801 998.939880,379.001801 
	C997.283264,364.830261 984.040527,354.396942 970.343567,355.364716 
	C954.788696,356.463806 943.233276,368.284119 943.158752,383.172638 
	C943.081970,398.527649 954.827393,411.172974 969.915710,411.979553 
	C985.893494,412.833679 997.835693,402.194244 999.622620,385.483154 
	C994.180664,385.483154 988.726562,385.253998 983.311401,385.612610 
	C981.517883,385.731415 979.428467,386.999054 978.163574,388.375031 
	C975.022888,391.791534 971.605164,392.748474 968.023438,390.582458 
	C964.706421,388.576538 963.224060,384.127655 964.684204,380.560577 
	C966.257690,376.716675 969.960144,374.802246 974.069031,376.092102 
	C975.893433,376.664825 977.482178,377.988434 980.063171,379.001801 
M841.386963,368.872131 
	C843.158020,372.795105 845.216919,376.620911 846.587402,380.679169 
	C847.355164,382.952515 848.037659,386.791534 846.881653,387.824432 
	C845.061279,389.450928 841.674255,389.403564 838.915771,389.850464 
	C838.126282,389.978363 837.217041,389.366608 835.996399,388.977081 
	C835.996399,394.896637 836.329468,400.399506 835.889099,405.839813 
	C835.547607,410.057953 837.567749,411.343292 841.072327,412.035187 
	C851.857483,414.164398 860.921448,411.122375 867.759094,402.612152 
	C874.441833,394.294739 874.653748,384.928223 870.637695,375.360596 
	C869.422729,372.466064 867.598206,369.833618 866.241455,366.991089 
	C863.310364,360.849976 865.962524,356.826080 872.702759,357.014038 
	C873.307617,357.030914 873.915955,356.919739 874.605103,356.860992 
	C874.605103,349.844116 874.605103,343.077301 874.605103,336.147736 
	C864.598450,333.424316 855.734253,334.502380 848.143616,341.966156 
	C840.645996,349.338531 838.955872,358.166504 841.386963,368.872131 
M1062.277100,384.256287 
	C1063.027344,385.166351 1063.763306,386.854401 1064.530029,386.868469 
	C1074.290283,387.047577 1084.055054,386.986481 1093.737061,386.986481 
	C1095.322876,372.422485 1087.813843,360.498688 1075.028809,356.547760 
	C1061.482422,352.361572 1046.854858,358.340912 1040.559448,370.637939 
	C1034.440552,382.590210 1037.635864,397.600677 1048.048584,405.818512 
	C1058.701294,414.225739 1074.056396,414.045715 1084.114380,405.175323 
	C1080.308350,400.647827 1076.499146,396.116486 1072.672241,391.564148 
	C1068.766602,394.547089 1065.189331,395.792389 1061.584961,392.141602 
	C1057.381714,387.884216 1057.254272,377.634979 1061.816406,373.858856 
	C1063.575317,372.403015 1066.682373,371.810028 1069.025024,372.088135 
	C1070.652100,372.281281 1072.022705,374.633057 1073.507935,376.020416 
	C1073.236572,376.415039 1072.965088,376.809662 1072.693726,377.204285 
	C1069.569702,377.204285 1066.445679,377.204285 1063.029907,377.204285 
	C1062.714600,379.491302 1062.444946,381.446808 1062.277100,384.256287 
M1502.001221,352.381622 
	C1502.001221,347.254974 1502.001221,342.128357 1502.001221,336.804718 
	C1495.069458,336.804718 1488.516479,336.804718 1482.170532,336.804718 
	C1482.170532,354.532959 1481.300537,372.000763 1482.458008,389.333130 
	C1483.315552,402.173676 1494.868652,411.015167 1507.915649,411.718201 
	C1510.551147,411.860199 1511.570679,411.118774 1511.532471,408.481689 
	C1511.445557,402.504791 1511.505127,396.525757 1511.505127,390.618622 
	C1503.257690,388.401123 1501.781982,386.451538 1502.711060,378.793549 
	C1505.409912,378.793549 1508.159424,378.793549 1510.899658,378.793549 
	C1510.899658,371.466797 1510.899658,364.554871 1510.899658,357.163483 
	C1509.017090,357.163483 1507.374634,356.986420 1505.785278,357.201080 
	C1502.672363,357.621521 1501.466064,356.400146 1502.001221,352.381622 
M1453.744629,363.282349 
	C1451.882202,368.506836 1449.035400,373.613464 1448.392212,378.983917 
	C1447.469971,386.685455 1448.155518,394.579590 1448.154785,402.391479 
	C1448.154541,405.133209 1448.154663,407.874969 1448.154663,410.425964 
	C1455.536743,410.425964 1462.086060,410.425964 1468.847778,410.425964 
	C1468.847778,401.701721 1468.798828,393.399017 1468.862549,385.097168 
	C1468.918701,377.787598 1470.634399,376.326569 1477.709473,377.265594 
	C1477.709473,370.206604 1477.709473,363.147400 1477.709473,356.000488 
	C1468.549438,354.374054 1460.588867,355.816254 1453.744629,363.282349 
M1666.848999,403.383179 
	C1666.849243,397.564636 1666.671143,391.738098 1666.931763,385.931244 
	C1667.046021,383.387787 1667.344971,380.241638 1668.870605,378.553650 
	C1670.248413,377.029083 1673.412476,377.118958 1676.180176,376.394470 
	C1676.180176,373.381348 1676.180298,369.903656 1676.180298,366.425995 
	C1676.180298,362.990906 1676.180176,359.555817 1676.180176,356.251801 
	C1661.554565,353.304840 1649.125977,359.733917 1647.475342,372.778351 
	C1645.912964,385.126038 1647.139404,397.826599 1647.139404,410.532837 
	C1653.312134,410.532837 1659.857056,410.532837 1666.848999,410.532837 
	C1666.848999,408.263641 1666.848999,406.305573 1666.848999,403.383179 
M1027.154785,410.828094 
	C1027.772095,409.395874 1028.903564,407.971191 1028.924561,406.530273 
	C1029.077515,396.064178 1029.006714,385.594849 1029.006714,375.126526 
	C1029.006714,369.043030 1029.006592,362.959503 1029.006592,356.922119 
	C1021.737854,356.922119 1015.050659,356.922119 1008.503540,356.922119 
	C1008.503540,375.066406 1008.503540,392.766937 1008.503540,410.842896 
	C1014.632019,410.842896 1020.420532,410.842896 1027.154785,410.828094 
M1681.995850,380.500000 
	C1681.995850,390.561218 1681.995850,400.622467 1681.995850,410.526672 
	C1689.235474,410.526672 1695.643921,410.526672 1702.235596,410.526672 
	C1702.235596,392.484467 1702.235596,374.758881 1702.235596,356.771667 
	C1695.393188,356.771667 1688.830688,356.771667 1682.338623,356.771667 
	C1682.185181,357.384430 1682.035034,357.706635 1682.034058,358.029236 
	C1682.011230,365.186157 1682.005127,372.343079 1681.995850,380.500000 
M2117.559082,227.489120 
	C2108.152832,228.489792 2101.782471,233.444260 2099.977051,241.163712 
	C2098.007568,249.584213 2100.963867,257.696472 2107.502441,261.814423 
	C2114.190186,266.026154 2123.810303,265.432800 2129.929199,260.288391 
	C2136.068115,255.127167 2137.941650,248.322525 2135.686523,240.917328 
	C2133.174072,232.667084 2127.172607,228.052231 2117.559082,227.489120 
M1965.945312,264.435425 
	C1975.364258,262.739563 1981.634521,256.433838 1982.160034,248.128967 
	C1982.751587,238.779465 1977.220459,230.423630 1968.934937,228.149933 
	C1960.395020,225.806503 1951.710938,229.263809 1947.515137,236.907303 
	C1940.890869,248.975159 1948.310303,265.803589 1965.945312,264.435425 
M1014.775879,333.062683 
	C1014.337585,333.295929 1013.871399,333.488647 1013.465332,333.768616 
	C1008.740906,337.026550 1007.146851,342.052521 1009.342407,346.720123 
	C1011.373352,351.037842 1017.087097,353.177765 1022.208984,351.538910 
	C1026.979248,350.012512 1029.742920,345.501190 1028.862305,340.678589 
	C1027.936768,335.610107 1023.674377,332.394196 1017.967896,332.508728 
	C1017.146729,332.525208 1016.329590,332.747742 1014.775879,333.062683 
M1701.186646,337.489075 
	C1700.315430,336.495178 1699.565674,335.349854 1698.550659,334.534882 
	C1695.068359,331.738770 1689.566528,331.713867 1685.998047,334.409882 
	C1682.239868,337.249237 1680.998291,341.130920 1682.424194,345.469940 
	C1683.951294,350.117249 1687.610229,352.125214 1692.477783,352.015320 
	C1700.105225,351.843079 1703.679443,346.416412 1701.186646,337.489075 
z"/>
<path fill="#1C449C" opacity="1.000000" stroke="none" 
	d="
M307.569702,223.594940 
	C284.799011,236.766144 262.291656,249.660339 239.916504,262.780029 
	C236.742828,264.640930 234.577164,264.514130 231.487228,262.609406 
	C206.711288,247.336624 181.835556,232.224640 156.894073,217.223511 
	C154.767532,215.944534 151.952835,215.303436 149.441513,215.257507 
	C138.170074,215.051361 126.892746,215.167694 115.395271,215.167694 
	C115.395271,170.202118 115.395271,125.803680 115.395271,80.833389 
	C117.558472,80.833389 119.502853,80.833397 121.447227,80.833389 
	C185.255737,80.833153 249.066650,81.129349 312.871002,80.614235 
	C327.921478,80.492737 338.755524,86.655350 347.758667,97.486107 
	C367.647308,121.412262 376.103271,175.676651 337.081787,204.335800 
	C327.727386,211.206100 317.630585,217.065598 307.569702,223.594940 
z"/>
<path fill="#1D459C" opacity="1.000000" stroke="none" 
	d="
M182.749756,258.234680 
	C198.808670,267.399506 214.605072,276.285431 230.239304,285.447968 
	C233.248276,287.211365 235.349380,287.175140 238.340439,285.449768 
	C266.410217,269.257935 294.553619,253.192719 322.772491,237.262268 
	C325.218872,235.881180 328.346802,235.147568 331.175171,235.098602 
	C344.156250,234.873901 357.143341,234.999695 370.482056,234.999695 
	C370.482056,277.763916 370.482056,320.298859 370.482056,363.164551 
	C285.493530,363.164551 200.622726,363.164551 115.457489,363.164551 
	C115.457489,320.593719 115.457489,278.176880 115.457489,234.903595 
	C127.479431,236.242355 139.817429,232.018707 151.384155,240.037186 
	C161.185547,246.831894 172.041489,252.105423 182.749756,258.234680 
z"/>
<path fill="#1D459B" opacity="1.000000" stroke="none" 
	d="
M1249.000366,233.000000 
	C1249.000366,242.983032 1249.000366,252.466049 1249.000366,262.226379 
	C1238.439941,262.226379 1228.173706,262.226379 1217.162720,262.226379 
	C1217.162720,260.374268 1217.162598,258.627441 1217.162598,256.880615 
	C1217.162476,235.886337 1217.242188,214.891434 1217.078857,193.898438 
	C1217.053467,190.632538 1218.573120,185.344681 1213.018921,185.424240 
	C1207.910522,185.497406 1208.646240,190.694016 1208.614380,194.048965 
	C1208.416626,214.874786 1208.503296,235.703323 1208.495728,256.530945 
	C1208.494995,258.332031 1208.495605,260.133087 1208.495605,262.218811 
	C1197.759277,262.218811 1187.509399,262.218811 1177.115845,262.218811 
	C1177.008789,261.027954 1176.845215,260.053070 1176.844604,259.078156 
	C1176.830322,234.751465 1176.714722,210.423981 1176.873657,186.098328 
	C1176.984741,169.087784 1186.505371,156.928619 1201.357300,154.205948 
	C1214.144775,151.861755 1222.590942,155.441132 1232.213013,166.788376 
	C1237.904175,162.845093 1242.987427,157.205444 1249.178711,155.430145 
	C1267.787964,150.093979 1287.207031,156.291153 1288.604736,181.735168 
	C1290.055420,208.145233 1289.024658,234.691681 1289.059448,261.178528 
	C1289.059814,261.466766 1288.794312,261.755371 1288.540527,262.273407 
	C1278.538696,262.273407 1268.429932,262.273407 1257.746582,262.273407 
	C1257.662964,260.420166 1257.517090,258.671234 1257.515381,256.922211 
	C1257.496338,236.427795 1257.512817,215.933365 1257.476318,195.439011 
	C1257.472168,193.115585 1257.469849,190.729996 1256.947754,188.494446 
	C1256.663940,187.279541 1255.350342,185.515839 1254.386353,185.438843 
	C1253.027710,185.330322 1250.880371,186.194641 1250.297241,187.293854 
	C1249.344482,189.090210 1249.068115,191.408844 1249.051514,193.511444 
	C1248.949829,206.506973 1249.000366,219.503693 1249.000366,233.000000 
z"/>
<path fill="#1D459B" opacity="1.000000" stroke="none" 
	d="
M2034.000732,258.701294 
	C2033.217651,260.276367 2032.456665,262.329590 2031.648315,262.348328 
	C2022.019653,262.571777 2012.383911,262.492432 2002.789307,262.492432 
	C2002.493530,261.613312 2002.214111,261.169464 2002.213501,260.725220 
	C2002.183228,237.562363 2001.811279,214.392242 2002.270874,191.238663 
	C2002.720947,168.570465 2017.909790,154.107590 2040.540649,153.859573 
	C2044.363525,153.817703 2048.258057,153.730148 2052.003662,154.355759 
	C2068.607910,157.128937 2078.243164,167.577332 2078.905029,185.314468 
	C2079.706055,206.779282 2079.362061,228.286926 2079.503418,249.776123 
	C2079.529541,253.758026 2079.507324,257.740265 2079.507324,262.114319 
	C2068.977051,262.114319 2058.750488,262.114319 2047.832642,262.114319 
	C2047.832642,260.385620 2047.832642,258.630432 2047.832642,256.875214 
	C2047.832153,237.044968 2047.846680,217.214676 2047.809570,197.384506 
	C2047.805542,195.232803 2047.576660,193.072845 2047.321289,190.932297 
	C2046.919678,187.565414 2045.251343,185.335220 2041.603027,185.181915 
	C2037.612183,185.014221 2034.921631,187.205429 2034.608765,190.868118 
	C2034.116455,196.630447 2034.477905,202.465729 2034.477905,208.729828 
	C2036.875488,208.729828 2039.612305,208.729828 2042.674561,208.729828 
	C2042.674561,218.394897 2042.674561,227.607193 2042.674561,237.142181 
	C2039.892334,237.142181 2037.282837,237.142181 2034.000732,237.142181 
	C2034.000732,244.375198 2034.000732,251.304688 2034.000732,258.701294 
z"/>
<path fill="#1D459B" opacity="1.000000" stroke="none" 
	d="
M1498.951416,194.116608 
	C1501.234497,200.102280 1504.788452,205.731888 1505.065063,211.518112 
	C1505.865479,228.266159 1505.348267,245.077194 1505.348267,262.187042 
	C1496.065674,262.187042 1486.646729,262.187042 1476.490356,262.187042 
	C1476.490356,258.231079 1476.511230,254.303848 1476.486328,250.376938 
	C1476.418579,239.722733 1476.368042,229.068161 1476.227905,218.414841 
	C1476.189819,215.516235 1475.919312,212.260117 1472.020874,212.296616 
	C1468.051392,212.333801 1467.317017,215.730179 1467.263794,218.743942 
	C1467.081421,229.067154 1467.178467,239.395309 1467.170776,249.721588 
	C1467.167847,253.707321 1467.170166,257.693054 1467.170166,262.092102 
	C1457.388184,262.092102 1447.864502,262.092102 1437.829834,262.092102 
	C1437.829834,248.592453 1437.841919,235.144409 1437.815552,221.696442 
	C1437.812012,219.874878 1438.073486,217.850616 1437.380737,216.288925 
	C1436.675659,214.698990 1434.787354,212.367569 1433.697388,212.509720 
	C1432.043091,212.725510 1429.885986,214.524368 1429.291138,216.145645 
	C1428.409912,218.547348 1428.547485,221.381638 1428.534546,224.033173 
	C1428.472778,236.651855 1428.506836,249.271011 1428.506836,262.196899 
	C1418.625000,262.196899 1409.221924,262.196899 1399.478882,262.196899 
	C1399.366455,261.336700 1399.179199,260.566956 1399.178345,259.797028 
	C1399.160400,244.807053 1398.967041,229.813690 1399.222778,214.828049 
	C1399.449219,201.552673 1405.326904,191.296234 1417.653564,185.849930 
	C1429.686157,180.533524 1440.713379,183.296326 1450.405151,191.938278 
	C1451.025146,192.491119 1451.676636,193.008514 1452.596802,193.779800 
	C1460.702271,186.874756 1469.470825,181.675125 1480.922241,183.751251 
	C1488.131470,185.058273 1494.061157,188.227127 1498.951416,194.116608 
z"/>
<path fill="#1D459B" opacity="1.000000" stroke="none" 
	d="
M962.989502,197.007080 
	C973.235657,185.939133 985.438354,181.556778 1000.223267,183.999451 
	C1000.223267,194.489944 1000.223267,204.706329 1000.223267,214.965805 
	C997.425232,214.341171 994.898743,213.271408 992.395996,213.324448 
	C987.292725,213.432602 982.906128,218.291946 982.550659,223.550034 
	C982.184143,228.971710 986.205566,234.022537 991.642700,234.969284 
	C997.353149,235.963623 1002.078552,233.312073 1003.609985,227.746811 
	C1004.437134,224.741028 1004.763733,221.513245 1004.780945,218.382675 
	C1004.884460,199.566727 1004.832520,180.749908 1004.832703,161.933395 
	C1004.832703,160.157837 1004.832764,158.382278 1004.832764,156.387817 
	C1014.678040,156.387817 1023.947937,156.387817 1033.615479,156.387817 
	C1033.740723,157.590424 1033.983521,158.844040 1033.984985,160.097916 
	C1034.008423,180.912643 1034.107422,201.728058 1033.971680,222.541916 
	C1033.834961,243.514542 1021.725464,258.935913 1002.437012,263.093018 
	C984.881287,266.876678 967.099976,259.311462 958.145508,244.248779 
	C949.535034,229.764954 951.400940,210.897156 962.989502,197.007080 
z"/>
<path fill="#1E459B" opacity="1.000000" stroke="none" 
	d="
M464.653717,175.828033 
	C472.608826,160.796341 485.230286,154.185974 501.438324,153.860840 
	C516.620972,153.556274 528.183533,160.168655 535.458252,173.387344 
	C549.029663,198.047714 533.945129,224.669250 505.920471,225.934311 
	C503.450409,226.045822 500.970947,225.949097 498.164368,225.949097 
	C498.164368,216.683624 498.164368,207.619644 498.164368,198.293533 
	C501.844910,197.049820 506.926331,197.269897 507.179260,191.265259 
	C507.323547,187.839340 506.238220,185.287415 502.734253,184.476364 
	C499.060822,183.626053 495.554199,184.042023 493.973724,188.064804 
	C493.213928,189.998657 493.047333,192.264038 493.041443,194.380463 
	C492.978790,216.846191 493.002563,239.312149 493.002563,262.143982 
	C482.406891,262.143982 472.040100,262.143982 461.161957,262.143982 
	C461.161957,260.354095 461.161957,258.740448 461.161987,257.126770 
	C461.162628,236.316803 460.914276,215.502045 461.316437,194.699829 
	C461.436188,188.506393 463.380798,182.348206 464.653717,175.828033 
z"/>
<path fill="#1E469B" opacity="1.000000" stroke="none" 
	d="
M1305.631714,205.752899 
	C1320.715698,176.274857 1358.413696,179.060318 1372.513916,195.035675 
	C1377.537354,200.727036 1381.393921,207.210037 1381.690552,214.578934 
	C1382.324707,230.328918 1381.884766,246.122147 1381.884766,262.207642 
	C1372.843750,262.207642 1363.262939,262.207642 1353.158813,262.207642 
	C1353.158813,251.365479 1353.163330,240.751877 1353.155029,230.138260 
	C1353.153320,227.972534 1353.250977,225.792892 1353.048096,223.643707 
	C1352.428833,217.082413 1347.226440,212.505600 1341.374756,213.240555 
	C1335.224976,214.012955 1330.471191,220.150345 1331.464111,226.035858 
	C1332.605957,232.805008 1338.176880,236.399567 1345.142456,234.829529 
	C1346.260376,234.577560 1347.345459,234.180832 1348.750000,233.759811 
	C1348.750000,243.748611 1348.750000,253.478058 1348.750000,263.604858 
	C1333.746582,265.496307 1320.745239,261.829895 1311.007690,250.141754 
	C1299.918213,236.830978 1299.059814,221.808548 1305.631714,205.752899 
z"/>
<path fill="#1D459B" opacity="1.000000" stroke="none" 
	d="
M1702.453857,250.512726 
	C1689.357300,233.934555 1689.555664,212.413773 1702.707031,197.082214 
	C1715.188477,182.531464 1738.433228,178.737610 1755.599854,188.626053 
	C1767.270142,195.348572 1772.948242,206.116669 1773.579102,219.084457 
	C1774.272949,233.346329 1773.737061,247.668045 1773.737061,262.236023 
	C1764.237671,262.236023 1754.794556,262.236023 1744.721924,262.236023 
	C1744.647461,260.546234 1744.507568,258.796570 1744.503540,257.046570 
	C1744.479370,246.556656 1744.680542,236.061981 1744.427246,225.578033 
	C1744.185425,215.564972 1736.124023,210.286896 1728.378174,214.749359 
	C1723.489990,217.565536 1721.388794,223.249924 1723.291626,228.509933 
	C1725.016724,233.278336 1729.874390,235.908783 1735.404541,234.989670 
	C1736.847778,234.749786 1738.252930,234.281876 1739.889526,233.864105 
	C1739.889526,243.829636 1739.889526,253.571960 1739.889526,263.618439 
	C1725.170288,265.415405 1712.708618,261.696106 1702.453857,250.512726 
z"/>
<path fill="#1E459B" opacity="1.000000" stroke="none" 
	d="
M852.248596,185.080353 
	C871.783752,179.821793 889.278748,186.287796 899.582397,202.350174 
	C908.531433,216.300903 907.271240,236.132843 896.620422,248.966354 
	C885.307556,262.597443 867.040527,267.693512 850.659851,261.788269 
	C834.762512,256.057220 824.018188,240.905884 823.841309,223.969925 
	C823.653564,205.985016 833.757568,191.985565 852.248596,185.080353 
M862.939758,234.998825 
	C864.262390,234.981293 865.621216,235.154434 866.901184,234.911789 
	C871.414368,234.056213 875.274170,229.542374 875.790710,224.709778 
	C876.319702,219.760040 873.157166,214.668198 868.460876,212.908569 
	C863.846069,211.179474 859.092346,212.551010 856.034363,216.493881 
	C850.989136,222.999207 853.695190,231.161453 862.939758,234.998825 
z"/>
<path fill="#1E459B" opacity="1.000000" stroke="none" 
	d="
M1518.172852,216.577332 
	C1521.493774,197.772156 1537.095459,186.018524 1551.007812,183.969162 
	C1569.939209,181.180450 1585.213257,188.194534 1594.297485,203.805450 
	C1602.284546,217.531509 1600.732300,236.509338 1590.615723,248.818405 
	C1579.418335,262.442566 1561.682739,267.557098 1545.121460,261.937988 
	C1529.402588,256.604675 1518.184448,241.659378 1517.850220,225.503403 
	C1517.791748,222.676941 1518.009644,219.844757 1518.172852,216.577332 
M1552.021362,214.372925 
	C1551.321289,215.075668 1550.529297,215.708862 1549.936401,216.492661 
	C1546.549194,220.971817 1546.693604,227.064377 1550.231445,231.175919 
	C1553.737549,235.250870 1559.195557,236.312119 1563.702271,233.795273 
	C1568.566284,231.078857 1570.771362,225.087524 1568.927002,219.599579 
	C1566.685547,212.930298 1559.799805,210.536148 1552.021362,214.372925 
z"/>
<path fill="#1E469B" opacity="1.000000" stroke="none" 
	d="
M1650.387695,183.522430 
	C1667.668823,186.017853 1679.062866,197.656860 1679.904541,214.614777 
	C1680.655151,229.741257 1680.343750,244.920624 1680.480713,260.076813 
	C1680.486450,260.705902 1680.286255,261.336792 1680.139648,262.222992 
	C1670.572388,262.222992 1661.162598,262.222992 1651.159180,262.222992 
	C1651.159180,253.094498 1651.159424,244.158707 1651.158936,235.222916 
	C1651.158813,230.056824 1651.156372,224.890747 1651.156982,219.724655 
	C1651.157471,215.989822 1650.707886,212.348984 1645.902344,212.247894 
	C1641.013672,212.145050 1640.533447,215.830200 1640.524658,219.540329 
	C1640.494629,232.038849 1640.511353,244.537476 1640.510010,257.036072 
	C1640.509888,258.665344 1640.509888,260.294647 1640.509888,262.208435 
	C1630.604248,262.208435 1621.195923,262.208435 1611.159180,262.208435 
	C1611.159180,259.131927 1611.124390,256.196472 1611.165161,253.262100 
	C1611.351929,239.778641 1610.540771,226.183762 1612.003662,212.838882 
	C1614.096436,193.747940 1630.828857,181.519516 1650.387695,183.522430 
z"/>
<path fill="#1E459B" opacity="1.000000" stroke="none" 
	d="
M609.199463,255.198166 
	C598.023499,265.936523 585.103821,267.731384 571.520020,262.622101 
	C558.665161,257.787018 551.635803,247.475296 551.048767,233.894562 
	C550.367981,218.146042 550.890198,202.345535 550.890198,186.282501 
	C560.297852,186.282501 569.709717,186.282501 579.839294,186.282501 
	C579.839294,187.807007 579.839233,189.396683 579.839294,190.986359 
	C579.839905,203.636169 579.841187,216.285965 579.840820,228.935776 
	C579.840698,232.468872 580.184326,235.881729 584.784912,236.104935 
	C589.711060,236.343933 590.431824,232.772858 590.452515,229.070358 
	C590.531616,214.943115 590.484497,200.815186 590.484497,186.343597 
	C600.330383,186.343597 609.844299,186.343597 619.044739,186.343597 
	C619.044739,203.239197 619.424011,219.996445 618.865906,236.722412 
	C618.628845,243.824860 614.602844,249.901428 609.199463,255.198166 
z"/>
<path fill="#1E459B" opacity="1.000000" stroke="none" 
	d="
M1926.138184,229.885834 
	C1924.513550,255.078369 1899.699219,271.478119 1876.582397,262.951813 
	C1875.128052,262.415405 1873.199341,260.531860 1873.157593,259.221893 
	C1872.861328,249.932129 1873.000000,240.628479 1873.000000,231.184418 
	C1875.527222,231.994476 1877.836670,233.513901 1879.872070,233.208237 
	C1883.087158,232.725357 1886.611938,231.639511 1889.097412,229.665344 
	C1891.942871,227.405197 1890.742676,223.931992 1889.177124,220.970093 
	C1884.825439,212.736313 1880.604004,204.554855 1879.405396,195.016815 
	C1876.198120,169.495087 1899.899414,148.414764 1924.823975,154.820526 
	C1927.235962,155.440445 1928.620239,156.101181 1928.567505,158.972977 
	C1928.405762,167.793503 1928.508667,176.618896 1928.508667,185.300323 
	C1927.995239,185.613831 1927.659180,185.981461 1927.457031,185.918610 
	C1923.125244,184.572189 1919.130981,184.809341 1916.261963,188.777832 
	C1913.293579,192.883957 1914.505737,197.044693 1916.783813,200.954208 
	C1921.932983,209.790909 1926.656982,218.738663 1926.138184,229.885834 
z"/>
<path fill="#1E469B" opacity="1.000000" stroke="none" 
	d="
M1088.480713,206.285309 
	C1081.454224,206.381683 1077.489380,208.736938 1075.941528,215.053513 
	C1074.869141,219.429642 1074.535645,224.358398 1075.369995,228.756042 
	C1077.355591,239.221802 1085.797363,241.827805 1094.933350,235.005280 
	C1100.319946,241.480209 1105.719238,247.970413 1111.099854,254.438171 
	C1099.834229,266.233368 1076.239624,267.288147 1061.589844,256.835327 
	C1045.194824,245.137268 1039.844727,222.596786 1049.223267,204.732986 
	C1058.572388,186.925186 1080.291260,178.623962 1099.729248,185.428970 
	C1117.319092,191.586945 1128.442627,210.332581 1124.895874,228.225189 
	C1110.532104,228.225189 1096.107300,228.225189 1080.842041,228.225189 
	C1080.842041,223.874191 1080.842041,219.445511 1080.842041,214.434021 
	C1086.227661,214.434021 1090.958252,214.434021 1095.912964,214.434021 
	C1095.165039,209.754028 1092.782471,207.356598 1088.480713,206.285309 
z"/>
<path fill="#1E469B" opacity="1.000000" stroke="none" 
	d="
M667.925415,237.342255 
	C673.389648,240.692764 677.753601,238.900665 682.130798,234.867218 
	C687.647644,241.466110 693.041931,247.918365 698.418640,254.349625 
	C687.866333,266.066223 664.420349,267.321869 649.449097,257.119843 
	C633.006592,245.915329 627.190247,223.607590 636.039001,205.687561 
	C645.016846,187.506073 666.851746,178.638000 686.546265,185.174423 
	C704.243408,191.047913 715.684326,209.966110 712.347290,228.219894 
	C697.810242,228.219894 683.217590,228.219894 668.447876,228.219894 
	C668.201599,227.185074 667.907410,226.250595 667.762390,225.293549 
	C666.359619,216.031952 667.645325,214.492493 676.733521,214.488892 
	C678.702087,214.488113 680.670715,214.488800 682.866516,214.488800 
	C682.929932,210.157166 680.772095,207.953506 677.408691,206.780365 
	C673.005310,205.244431 669.204773,206.489792 666.109070,209.830887 
	C659.803833,216.635895 660.570435,229.891907 667.925415,237.342255 
z"/>
<path fill="#1E469B" opacity="1.000000" stroke="none" 
	d="
M814.511963,200.009369 
	C814.511902,205.808075 814.511902,211.110123 814.511902,216.905426 
	C810.077087,216.905426 806.000916,216.905426 801.976746,216.905426 
	C801.240723,228.064194 803.727966,231.161011 814.794922,233.313263 
	C814.794922,243.233093 814.794922,253.169052 814.794922,263.052002 
	C800.962463,266.464355 781.751282,255.845474 776.120728,241.049149 
	C773.859253,235.106323 772.478271,228.487808 772.338379,222.140671 
	C771.876526,201.181885 772.161926,180.206558 772.172729,159.237595 
	C772.173157,158.431732 772.299805,157.625916 772.394775,156.497955 
	C781.961914,156.497955 791.369812,156.497955 801.384583,156.497955 
	C801.384583,166.122635 801.384583,175.840485 801.384583,185.895508 
	C805.930542,185.895508 809.881775,185.895508 814.511963,185.895508 
	C814.511963,190.657532 814.511963,195.085129 814.511963,200.009369 
z"/>
<path fill="#1E469A" opacity="1.000000" stroke="none" 
	d="
M1790.487061,187.999710 
	C1790.487061,177.212814 1790.487061,166.925934 1790.487061,156.403198 
	C1800.447754,156.403198 1809.847534,156.403198 1819.545044,156.403198 
	C1819.545044,191.707718 1819.545044,226.771286 1819.545044,262.174835 
	C1810.118530,262.174835 1800.696777,262.174835 1790.486938,262.174835 
	C1790.486938,237.633041 1790.486938,213.066376 1790.487061,187.999710 
z"/>
<path fill="#1E459B" opacity="1.000000" stroke="none" 
	d="
M1100.317627,392.395325 
	C1097.180420,379.246490 1100.551270,368.640442 1111.062500,360.610168 
	C1117.354248,355.803436 1124.498169,354.613770 1132.342773,356.017548 
	C1132.342773,363.322418 1132.342773,370.277313 1132.342773,377.617371 
	C1131.109253,377.298828 1130.086060,376.967133 1129.037354,376.775482 
	C1124.658813,375.975281 1120.896606,378.455994 1120.094116,382.630157 
	C1119.304932,386.734406 1121.964844,390.506317 1126.294556,391.423187 
	C1130.372559,392.286743 1133.889282,390.128387 1134.810913,385.791626 
	C1135.358643,383.214081 1135.445190,380.504944 1135.459595,377.853485 
	C1135.524292,365.866394 1135.480713,353.878784 1135.499756,341.891388 
	C1135.502319,340.270325 1135.638794,338.649475 1135.725342,336.767700 
	C1142.453857,336.767700 1148.874756,336.767700 1155.718994,336.767700 
	C1155.813599,337.853851 1155.989502,338.941071 1155.990479,340.028412 
	C1156.003540,354.513123 1156.237061,369.003418 1155.908813,383.480804 
	C1155.649170,394.934204 1150.969482,404.175079 1140.056274,409.117310 
	C1129.084961,414.085846 1118.409668,413.058685 1109.274780,405.179504 
	C1105.543823,401.961395 1103.345093,396.966705 1100.317627,392.395325 
z"/>
<path fill="#1E459B" opacity="1.000000" stroke="none" 
	d="
M1261.401245,411.694153 
	C1246.552979,412.785156 1234.766968,405.813599 1230.327271,393.634766 
	C1225.826294,381.287781 1230.193604,367.877930 1241.239136,360.150452 
	C1247.434570,355.816193 1254.283569,354.737122 1261.892578,355.938904 
	C1261.892578,363.168274 1261.892578,370.255615 1261.892578,377.676849 
	C1260.639771,377.331848 1259.485107,376.900574 1258.291870,376.705719 
	C1254.102539,376.021545 1250.636963,378.408875 1249.787354,382.479370 
	C1248.936279,386.557037 1251.074829,390.020721 1255.208618,391.259521 
	C1259.341309,392.498047 1262.781982,390.775024 1264.080811,386.433105 
	C1264.733521,384.251373 1264.946167,381.869995 1264.960327,379.576447 
	C1265.045166,365.763855 1265.013428,351.950562 1265.032349,338.137482 
	C1265.032837,337.813965 1265.169189,337.490631 1265.318237,336.829407 
	C1271.786377,336.829407 1278.333984,336.829407 1285.509644,336.829407 
	C1285.509644,340.222839 1285.509644,343.498749 1285.509521,346.774658 
	C1285.509155,358.590729 1285.637451,370.408569 1285.476685,382.222473 
	C1285.256836,398.386139 1277.413818,408.006317 1261.401245,411.694153 
z"/>
<path fill="#1E469B" opacity="1.000000" stroke="none" 
	d="
M1346.002930,376.002716 
	C1346.002930,387.781860 1346.002930,399.061646 1346.002930,410.587952 
	C1338.481201,410.587952 1331.418579,410.587952 1323.828491,410.587952 
	C1323.828491,407.567383 1323.827881,404.784332 1323.828491,402.001312 
	C1323.831543,388.348145 1323.719727,374.693695 1323.874023,361.042236 
	C1323.999146,349.973450 1329.290161,341.916168 1339.387573,337.523590 
	C1349.675659,333.048065 1359.929688,333.238495 1369.021362,340.522705 
	C1377.800659,347.556793 1380.372803,357.018158 1378.040894,367.831024 
	C1375.334473,380.379608 1363.825073,387.107086 1349.392822,384.575867 
	C1349.392822,378.516968 1349.392822,372.411194 1349.392822,366.078613 
	C1350.245605,365.793945 1351.481934,365.758148 1352.027954,365.126068 
	C1353.482300,363.442474 1355.331909,361.602051 1355.617432,359.621155 
	C1355.756836,358.654205 1352.481079,356.017639 1351.249268,356.301208 
	C1349.311890,356.747131 1346.572510,358.849518 1346.332520,360.554474 
	C1345.642822,365.455841 1346.035522,370.509521 1346.002930,376.002716 
z"/>
<path fill="#1E459B" opacity="1.000000" stroke="none" 
	d="
M767.170532,210.747177 
	C767.107605,212.362198 767.044800,213.508148 766.980713,214.677917 
	C756.859314,212.816376 753.909363,215.248840 753.853333,225.546600 
	C753.787415,237.670441 753.837952,249.794907 753.837952,262.212524 
	C743.992004,262.212524 734.575317,262.212524 724.853088,262.212524 
	C724.725098,261.168304 724.505188,260.221832 724.508606,259.276154 
	C724.560852,244.619522 723.909058,229.914047 724.884033,215.317657 
	C726.445374,191.944260 743.776306,179.563278 767.170715,184.487030 
	C767.170715,193.018906 767.170715,201.648514 767.170532,210.747177 
z"/>
<path fill="#204799" opacity="1.000000" stroke="none" 
	d="
M1713.701904,396.105621 
	C1709.127686,384.218048 1710.213745,373.418091 1718.796875,364.215912 
	C1727.457397,354.930878 1738.424438,353.646423 1750.072266,356.998016 
	C1760.485718,359.994537 1766.978271,369.094788 1767.818604,381.042267 
	C1767.923462,382.533508 1767.845947,384.037872 1767.846069,385.536133 
	C1767.847412,393.687042 1767.846558,401.837921 1767.846558,410.416809 
	C1761.090698,410.416809 1754.534180,410.416809 1747.154053,410.416809 
	C1747.154053,403.862976 1747.163818,397.116943 1747.148926,390.371002 
	C1747.143677,388.041656 1747.275146,385.688538 1746.997925,383.388062 
	C1746.415527,378.557343 1742.799927,375.849213 1738.324219,376.652832 
	C1734.345459,377.367218 1731.397827,381.553894 1732.083496,385.516815 
	C1732.831909,389.842651 1736.733032,392.304443 1741.412109,391.385986 
	C1742.195068,391.232239 1742.962891,391.000305 1744.519531,390.606964 
	C1744.519531,394.404816 1744.519409,397.823456 1744.519409,401.242126 
	C1744.519409,404.541595 1744.519531,407.841034 1744.519531,410.986847 
	C1732.613770,414.298187 1720.484863,408.388702 1713.701904,396.105621 
z"/>
<path fill="#1F469A" opacity="1.000000" stroke="none" 
	d="
M1213.216675,363.811981 
	C1218.081909,369.531158 1220.008545,375.920319 1220.005371,382.979187 
	C1220.001099,392.098480 1220.004272,401.217804 1220.004272,410.586182 
	C1213.121582,410.586182 1206.687256,410.586182 1199.486938,410.586182 
	C1199.486938,403.675842 1199.502808,396.742889 1199.477539,389.810089 
	C1199.469727,387.649353 1199.557251,385.458435 1199.241943,383.334625 
	C1198.496826,378.317535 1195.129883,375.835907 1190.531372,376.671539 
	C1186.493774,377.405243 1183.583862,381.597168 1184.379395,385.533905 
	C1185.282837,390.004639 1188.978027,392.324799 1193.710815,391.377686 
	C1194.504028,391.218933 1195.284546,390.996460 1196.812378,390.621429 
	C1196.812378,397.216888 1196.971680,403.442230 1196.627930,409.639679 
	C1196.580322,410.496765 1194.079224,411.823761 1192.655029,411.905365 
	C1177.263062,412.787109 1164.353027,401.217743 1163.495605,385.983307 
	C1162.572021,369.573975 1173.882935,356.346588 1189.710815,355.521667 
	C1198.492188,355.063965 1206.614136,356.820251 1213.216675,363.811981 
z"/>
<path fill="#204799" opacity="1.000000" stroke="none" 
	d="
M1614.156738,392.055756 
	C1614.095947,388.905518 1614.258057,386.216797 1613.926636,383.590302 
	C1613.304810,378.662842 1609.781494,375.917725 1605.384277,376.620148 
	C1601.073975,377.308655 1598.198975,381.481903 1599.051392,385.812805 
	C1599.904175,390.145447 1603.572876,392.250122 1608.560791,391.272461 
	C1609.201660,391.146881 1609.846558,391.041870 1611.176392,390.804962 
	C1611.176392,394.439331 1611.176392,397.844727 1611.176392,401.250153 
	C1611.176392,404.555450 1611.176392,407.860779 1611.176392,411.056305 
	C1596.703735,415.054413 1581.516479,404.782898 1578.411133,389.261719 
	C1575.843384,376.427368 1582.536255,363.250854 1594.336914,357.908478 
	C1606.408447,352.443451 1622.133545,355.745300 1629.122314,365.659485 
	C1631.353760,368.825043 1633.571411,372.762756 1633.770264,376.456238 
	C1634.374512,387.680237 1633.989136,398.957581 1633.989136,410.532532 
	C1627.844604,410.532532 1621.294922,410.532532 1614.156860,410.532532 
	C1614.156860,404.422394 1614.156860,398.483856 1614.156738,392.055756 
z"/>
<path fill="#1F469A" opacity="1.000000" stroke="none" 
	d="
M881.170471,378.584686 
	C884.214905,365.733124 891.902649,358.064301 904.511230,355.892212 
	C917.000244,353.740753 927.786133,358.713928 934.003296,368.938202 
	C940.108521,378.978210 939.280090,391.819244 931.924988,401.153717 
	C924.458923,410.628937 911.702881,414.365265 900.066833,410.485260 
	C889.169800,406.851654 881.389587,396.520386 880.938171,384.988739 
	C880.860352,383.002808 881.039612,381.006866 881.170471,378.584686 
M916.163208,387.324280 
	C917.919128,381.437134 915.899963,376.791779 911.112976,375.944397 
	C906.975220,375.211914 903.794189,376.765442 902.332458,380.720245 
	C900.916199,384.552185 901.908997,388.086761 905.427917,390.323700 
	C909.474670,392.896149 912.995544,391.689484 916.163208,387.324280 
z"/>
<path fill="#1F469A" opacity="1.000000" stroke="none" 
	d="
M1383.758423,390.967834 
	C1381.064087,377.318604 1385.323242,366.561279 1395.812500,359.810944 
	C1405.345947,353.675751 1418.864014,353.877777 1427.796143,360.288910 
	C1437.875732,367.523651 1442.084595,379.025055 1439.042969,391.023346 
	C1436.052002,402.822296 1424.944458,411.546082 1412.344849,411.991943 
	C1399.245605,412.455505 1388.112671,404.389893 1383.758423,390.967834 
M1412.909302,391.396545 
	C1417.721069,390.013458 1419.687744,386.608307 1418.837646,381.924622 
	C1418.196411,378.391052 1415.829956,376.068695 1411.945923,375.832611 
	C1407.563843,375.566162 1404.192261,378.455841 1403.838135,382.781128 
	C1403.415527,387.941986 1406.042480,390.722717 1412.909302,391.396545 
z"/>
<path fill="#1E469B" opacity="1.000000" stroke="none" 
	d="
M1541.511719,371.018677 
	C1541.512817,376.675140 1541.496338,381.834961 1541.522461,386.994537 
	C1541.535767,389.625916 1541.806030,392.342590 1545.308105,392.224823 
	C1548.782349,392.107971 1548.835083,389.352142 1548.833252,386.747986 
	C1548.826416,377.108002 1548.830444,367.468018 1548.830444,357.495850 
	C1555.696655,357.495850 1562.268066,357.495850 1568.676514,357.495850 
	C1568.676514,369.739594 1569.760742,382.108765 1568.362427,394.190613 
	C1567.044189,405.578583 1555.154419,413.521515 1543.990234,412.791077 
	C1531.177490,411.952820 1522.440552,403.518463 1521.131470,390.652039 
	C1520.946777,388.837433 1521.004517,386.995087 1521.002197,385.165527 
	C1520.990967,376.035614 1520.997070,366.905701 1520.997070,357.470459 
	C1527.741211,357.470459 1534.162842,357.470459 1541.511841,357.470459 
	C1541.511841,361.736908 1541.511841,366.129425 1541.511719,371.018677 
z"/>
<path fill="#1F469A" opacity="1.000000" stroke="none" 
	d="
M979.620483,378.986511 
	C977.482178,377.988434 975.893433,376.664825 974.069031,376.092102 
	C969.960144,374.802246 966.257690,376.716675 964.684204,380.560577 
	C963.224060,384.127655 964.706421,388.576538 968.023438,390.582458 
	C971.605164,392.748474 975.022888,391.791534 978.163574,388.375031 
	C979.428467,386.999054 981.517883,385.731415 983.311401,385.612610 
	C988.726562,385.253998 994.180664,385.483154 999.622620,385.483154 
	C997.835693,402.194244 985.893494,412.833679 969.915710,411.979553 
	C954.827393,411.172974 943.081970,398.527649 943.158752,383.172638 
	C943.233276,368.284119 954.788696,356.463806 970.343567,355.364716 
	C984.040527,354.396942 997.283264,364.830261 998.939880,379.001801 
	C992.567993,379.001801 986.315552,379.001801 979.620483,378.986511 
z"/>
<path fill="#1E469A" opacity="1.000000" stroke="none" 
	d="
M841.267273,368.477844 
	C838.955872,358.166504 840.645996,349.338531 848.143616,341.966156 
	C855.734253,334.502380 864.598450,333.424316 874.605103,336.147736 
	C874.605103,343.077301 874.605103,349.844116 874.605103,356.860992 
	C873.915955,356.919739 873.307617,357.030914 872.702759,357.014038 
	C865.962524,356.826080 863.310364,360.849976 866.241455,366.991089 
	C867.598206,369.833618 869.422729,372.466064 870.637695,375.360596 
	C874.653748,384.928223 874.441833,394.294739 867.759094,402.612152 
	C860.921448,411.122375 851.857483,414.164398 841.072327,412.035187 
	C837.567749,411.343292 835.547607,410.057953 835.889099,405.839813 
	C836.329468,400.399506 835.996399,394.896637 835.996399,388.977081 
	C837.217041,389.366608 838.126282,389.978363 838.915771,389.850464 
	C841.674255,389.403564 845.061279,389.450928 846.881653,387.824432 
	C848.037659,386.791534 847.355164,382.952515 846.587402,380.679169 
	C845.216919,376.620911 843.158020,372.795105 841.267273,368.477844 
z"/>
<path fill="#1F469A" opacity="1.000000" stroke="none" 
	d="
M1062.226196,383.829285 
	C1062.444946,381.446808 1062.714600,379.491302 1063.029907,377.204285 
	C1066.445679,377.204285 1069.569702,377.204285 1072.693726,377.204285 
	C1072.965088,376.809662 1073.236572,376.415039 1073.507935,376.020416 
	C1072.022705,374.633057 1070.652100,372.281281 1069.025024,372.088135 
	C1066.682373,371.810028 1063.575317,372.403015 1061.816406,373.858856 
	C1057.254272,377.634979 1057.381714,387.884216 1061.584961,392.141602 
	C1065.189331,395.792389 1068.766602,394.547089 1072.672241,391.564148 
	C1076.499146,396.116486 1080.308350,400.647827 1084.114380,405.175323 
	C1074.056396,414.045715 1058.701294,414.225739 1048.048584,405.818512 
	C1037.635864,397.600677 1034.440552,382.590210 1040.559448,370.637939 
	C1046.854858,358.340912 1061.482422,352.361572 1075.028809,356.547760 
	C1087.813843,360.498688 1095.322876,372.422485 1093.737061,386.986481 
	C1084.055054,386.986481 1074.290283,387.047577 1064.530029,386.868469 
	C1063.763306,386.854401 1063.027344,385.166351 1062.226196,383.829285 
z"/>
<path fill="#1D459B" opacity="1.000000" stroke="none" 
	d="
M1502.001221,352.865967 
	C1501.466064,356.400146 1502.672363,357.621521 1505.785278,357.201080 
	C1507.374634,356.986420 1509.017090,357.163483 1510.899658,357.163483 
	C1510.899658,364.554871 1510.899658,371.466797 1510.899658,378.793549 
	C1508.159424,378.793549 1505.409912,378.793549 1502.711060,378.793549 
	C1501.781982,386.451538 1503.257690,388.401123 1511.505127,390.618622 
	C1511.505127,396.525757 1511.445557,402.504791 1511.532471,408.481689 
	C1511.570679,411.118774 1510.551147,411.860199 1507.915649,411.718201 
	C1494.868652,411.015167 1483.315552,402.173676 1482.458008,389.333130 
	C1481.300537,372.000763 1482.170532,354.532959 1482.170532,336.804718 
	C1488.516479,336.804718 1495.069458,336.804718 1502.001221,336.804718 
	C1502.001221,342.128357 1502.001221,347.254974 1502.001221,352.865967 
z"/>
<path fill="#214899" opacity="1.000000" stroke="none" 
	d="
M1453.960327,362.992004 
	C1460.588867,355.816254 1468.549438,354.374054 1477.709473,356.000488 
	C1477.709473,363.147400 1477.709473,370.206604 1477.709473,377.265594 
	C1470.634399,376.326569 1468.918701,377.787598 1468.862549,385.097168 
	C1468.798828,393.399017 1468.847778,401.701721 1468.847778,410.425964 
	C1462.086060,410.425964 1455.536743,410.425964 1448.154663,410.425964 
	C1448.154663,407.874969 1448.154541,405.133209 1448.154785,402.391479 
	C1448.155518,394.579590 1447.469971,386.685455 1448.392212,378.983917 
	C1449.035400,373.613464 1451.882202,368.506836 1453.960327,362.992004 
z"/>
<path fill="#214899" opacity="1.000000" stroke="none" 
	d="
M1666.848999,403.865356 
	C1666.848999,406.305573 1666.848999,408.263641 1666.848999,410.532837 
	C1659.857056,410.532837 1653.312134,410.532837 1647.139404,410.532837 
	C1647.139404,397.826599 1645.912964,385.126038 1647.475342,372.778351 
	C1649.125977,359.733917 1661.554565,353.304840 1676.180176,356.251801 
	C1676.180176,359.555817 1676.180298,362.990906 1676.180298,366.425995 
	C1676.180298,369.903656 1676.180176,373.381348 1676.180176,376.394470 
	C1673.412476,377.118958 1670.248413,377.029083 1668.870605,378.553650 
	C1667.344971,380.241638 1667.046021,383.387787 1666.931763,385.931244 
	C1666.671143,391.738098 1666.849243,397.564636 1666.848999,403.865356 
z"/>
<path fill="#204799" opacity="1.000000" stroke="none" 
	d="
M1026.681885,410.835510 
	C1020.420532,410.842896 1014.632019,410.842896 1008.503540,410.842896 
	C1008.503540,392.766937 1008.503540,375.066406 1008.503540,356.922119 
	C1015.050659,356.922119 1021.737854,356.922119 1029.006592,356.922119 
	C1029.006592,362.959503 1029.006714,369.043030 1029.006714,375.126526 
	C1029.006714,385.594849 1029.077515,396.064178 1028.924561,406.530273 
	C1028.903564,407.971191 1027.772095,409.395874 1026.681885,410.835510 
z"/>
<path fill="#1F469A" opacity="1.000000" stroke="none" 
	d="
M1681.995850,380.000000 
	C1682.005127,372.343079 1682.011230,365.186157 1682.034058,358.029236 
	C1682.035034,357.706635 1682.185181,357.384430 1682.338623,356.771667 
	C1688.830688,356.771667 1695.393188,356.771667 1702.235596,356.771667 
	C1702.235596,374.758881 1702.235596,392.484467 1702.235596,410.526672 
	C1695.643921,410.526672 1689.235474,410.526672 1681.995850,410.526672 
	C1681.995850,400.622467 1681.995850,390.561218 1681.995850,380.000000 
z"/>
<path fill="#1E469B" opacity="1.000000" stroke="none" 
	d="
M2117.960938,227.490753 
	C2127.172607,228.052231 2133.174072,232.667084 2135.686523,240.917328 
	C2137.941650,248.322525 2136.068115,255.127167 2129.929199,260.288391 
	C2123.810303,265.432800 2114.190186,266.026154 2107.502441,261.814423 
	C2100.963867,257.696472 2098.007568,249.584213 2099.977051,241.163712 
	C2101.782471,233.444260 2108.152832,228.489792 2117.960938,227.490753 
z"/>
<path fill="#1E469A" opacity="1.000000" stroke="none" 
	d="
M1965.537354,264.466278 
	C1948.310303,265.803589 1940.890869,248.975159 1947.515137,236.907303 
	C1951.710938,229.263809 1960.395020,225.806503 1968.934937,228.149933 
	C1977.220459,230.423630 1982.751587,238.779465 1982.160034,248.128967 
	C1981.634521,256.433838 1975.364258,262.739563 1965.537354,264.466278 
z"/>
<path fill="#204799" opacity="1.000000" stroke="none" 
	d="
M1015.143250,332.968811 
	C1016.329590,332.747742 1017.146729,332.525208 1017.967896,332.508728 
	C1023.674377,332.394196 1027.936768,335.610107 1028.862305,340.678589 
	C1029.742920,345.501190 1026.979248,350.012512 1022.208984,351.538910 
	C1017.087097,353.177765 1011.373352,351.037842 1009.342407,346.720123 
	C1007.146851,342.052521 1008.740906,337.026550 1013.465332,333.768616 
	C1013.871399,333.488647 1014.337585,333.295929 1015.143250,332.968811 
z"/>
<path fill="#214899" opacity="1.000000" stroke="none" 
	d="
M1701.391357,337.801208 
	C1703.679443,346.416412 1700.105225,351.843079 1692.477783,352.015320 
	C1687.610229,352.125214 1683.951294,350.117249 1682.424194,345.469940 
	C1680.998291,341.130920 1682.239868,337.249237 1685.998047,334.409882 
	C1689.566528,331.713867 1695.068359,331.738770 1698.550659,334.534882 
	C1699.565674,335.349854 1700.315430,336.495178 1701.391357,337.801208 
z"/>
<path fill="#FAEF03" opacity="1.000000" stroke="none" 
	d="
M862.537964,234.948730 
	C853.695190,231.161453 850.989136,222.999207 856.034363,216.493881 
	C859.092346,212.551010 863.846069,211.179474 868.460876,212.908569 
	C873.157166,214.668198 876.319702,219.760040 875.790710,224.709778 
	C875.274170,229.542374 871.414368,234.056213 866.901184,234.911789 
	C865.621216,235.154434 864.262390,234.981293 862.537964,234.948730 
z"/>
<path fill="#F9EE04" opacity="1.000000" stroke="none" 
	d="
M1552.331055,214.154907 
	C1559.799805,210.536148 1566.685547,212.930298 1568.927002,219.599579 
	C1570.771362,225.087524 1568.566284,231.078857 1563.702271,233.795273 
	C1559.195557,236.312119 1553.737549,235.250870 1550.231445,231.175919 
	C1546.693604,227.064377 1546.549194,220.971817 1549.936401,216.492661 
	C1550.529297,215.708862 1551.321289,215.075668 1552.331055,214.154907 
z"/>
<path fill="#F7ED05" opacity="1.000000" stroke="none" 
	d="
M915.994629,387.677917 
	C912.995544,391.689484 909.474670,392.896149 905.427917,390.323700 
	C901.908997,388.086761 900.916199,384.552185 902.332458,380.720245 
	C903.794189,376.765442 906.975220,375.211914 911.112976,375.944397 
	C915.899963,376.791779 917.919128,381.437134 915.994629,387.677917 
z"/>
<path fill="#F7ED05" opacity="1.000000" stroke="none" 
	d="
M1412.552612,391.512390 
	C1406.042480,390.722717 1403.415527,387.941986 1403.838135,382.781128 
	C1404.192261,378.455841 1407.563843,375.566162 1411.945923,375.832611 
	C1415.829956,376.068695 1418.196411,378.391052 1418.837646,381.924622 
	C1419.687744,386.608307 1417.721069,390.013458 1412.552612,391.512390 
z"/>
</svg>