<svg width="1214" height="224" viewBox="0 0 1214 224" fill="none" xmlns="http://www.w3.org/2000/svg">
<rect x="30" width="938" height="224" rx="6" fill="#1A1A1A"/>
<path d="M197 134.999V89.3148C197 88.1246 197.11 86.7943 197.33 85.324C197.605 83.8537 197.99 82.3484 198.485 80.8081C199.64 77.2373 201.538 73.9817 204.178 71.041C206.873 68.0304 210.393 66.3851 214.738 66.105L216.058 66C221.064 66.07 225.574 68.1004 229.589 72.0913C233.604 76.0821 235.722 81.8583 235.942 89.4199V91.4153C235.942 91.6953 235.942 91.9754 235.942 92.2555C235.942 92.4655 235.942 92.7105 235.942 92.9906C235.722 98.5218 234.099 103.598 231.074 108.219C228.104 112.84 223.236 115.15 216.471 115.15C216.416 115.15 216.333 115.15 216.223 115.15C216.113 115.08 216.003 115.045 215.893 115.045C215.783 115.045 215.673 115.045 215.563 115.045C215.453 114.975 215.371 114.94 215.316 114.94V96.0362C215.371 96.1063 215.426 96.1763 215.481 96.2463C215.536 96.2463 215.591 96.2463 215.646 96.2463C215.646 96.2463 215.673 96.2813 215.728 96.3513C215.783 96.3513 215.838 96.3513 215.893 96.3513C217.268 96.3513 218.341 95.8612 219.111 94.881C219.881 93.8308 220.321 92.6755 220.431 91.4153C220.431 91.3453 220.431 91.2752 220.431 91.2052C220.431 91.0652 220.431 90.9602 220.431 90.8902C220.431 90.8202 220.431 90.7501 220.431 90.6801C220.431 90.5401 220.431 90.4351 220.431 90.3651C220.321 89.3148 219.991 88.3696 219.441 87.5295C218.891 86.6893 218.094 86.2692 217.048 86.2692C215.343 86.2692 214.216 86.9344 213.666 88.2646C213.171 89.5249 212.923 91.6603 212.923 94.671V134.999H197Z" fill="white"/>
<path d="M244.49 85.9961H260.018V113.253C260.018 114.455 260.214 115.41 260.606 116.117C261.054 116.753 261.529 117.107 262.033 117.178C262.089 117.178 262.117 117.178 262.117 117.178C262.173 117.178 262.229 117.178 262.285 117.178C262.397 117.178 262.508 117.178 262.62 117.178C262.732 117.107 262.844 117.072 262.956 117.072C263.46 116.859 263.907 116.435 264.299 115.799C264.747 115.092 264.971 114.279 264.971 113.359V85.9961H280.583V113.996C280.583 120.642 278.736 125.733 275.043 129.268C271.406 132.804 267.405 134.713 263.04 134.996C262.872 134.996 262.704 134.996 262.536 134.996C262.425 134.996 262.285 134.996 262.117 134.996C257.696 134.996 253.639 133.263 249.946 129.799C246.309 126.334 244.49 121.102 244.49 114.102V85.9961Z" fill="white"/>
<path d="M328.073 103.452L309.299 116.723L305.036 107.127L312.168 102.023C311.84 101.683 311.458 101.342 311.02 101.002C310.638 100.662 310.228 100.424 309.791 100.288C309.627 100.22 309.463 100.186 309.299 100.186C309.135 100.117 308.971 100.083 308.807 100.083C308.697 100.083 308.561 100.117 308.397 100.186C308.288 100.186 308.151 100.186 307.987 100.186C306.675 100.526 305.473 101.581 304.38 103.35C303.287 105.051 302.74 107.059 302.74 109.373C302.74 112.503 303.423 114.987 304.79 116.825C306.211 118.594 307.932 119.479 309.955 119.479C310.72 119.479 311.54 119.343 312.414 119.071C313.289 118.731 314.163 118.288 315.037 117.744C315.857 117.199 316.65 116.553 317.415 115.804C318.235 115.056 319 114.171 319.71 113.15L328.073 123.256C326.214 126.659 323.728 129.347 320.612 131.321C317.497 133.294 314.245 134.485 310.856 134.894C310.474 134.894 310.091 134.894 309.709 134.894C309.381 134.962 309.025 134.996 308.643 134.996C303.942 134.996 299.597 133.158 295.608 129.483C291.672 125.808 289.568 119.887 289.295 111.721C289.295 111.653 289.267 111.585 289.213 111.517C289.213 111.381 289.213 111.244 289.213 111.108C289.213 110.972 289.186 110.87 289.131 110.802C289.131 110.666 289.131 110.564 289.131 110.496C289.131 103.486 290.689 98.0078 293.804 94.0606C296.919 90.1134 300.335 87.6294 304.052 86.6086C304.708 86.4044 305.363 86.2683 306.019 86.2003C306.73 86.0641 307.413 85.9961 308.069 85.9961C313.917 85.9961 318.344 87.7655 321.35 91.3044C324.356 94.7752 326.597 98.8585 328.073 103.554V103.452Z" fill="white"/>
<path d="M337.57 134.996V87.5801H351.492V93.5995C352.577 91.9098 353.69 90.5722 354.83 89.5866C355.969 88.5305 357.109 87.7209 358.249 87.1577C359.551 86.5945 360.854 86.2777 362.157 86.2073C363.513 86.0665 364.816 85.9961 366.064 85.9961V102.576C365.793 102.646 365.494 102.681 365.169 102.681C364.843 102.681 364.545 102.681 364.273 102.681C361.343 102.822 358.656 103.597 356.214 105.005C353.825 106.413 352.631 109.686 352.631 114.826V134.996H337.57Z" fill="white"/>
<path d="M375.562 73.0039H390.228V88.0589H397.408V104.368H390.228V114.196C390.228 115.799 390.432 116.984 390.839 117.751C391.246 118.448 392.163 118.796 393.589 118.796L397.408 118.692V135.001H389.693C384.397 135.071 380.757 133.398 378.771 129.983C376.836 126.498 375.792 122.664 375.639 118.483C375.588 118.204 375.562 117.925 375.562 117.646C375.562 117.298 375.562 116.949 375.562 116.601V73.0039Z" fill="white"/>
<path d="M406.906 110.086C406.906 103.594 408.762 97.9555 412.473 93.1718C416.183 88.388 420.766 85.9961 426.22 85.9961C432.517 85.9961 437.493 88.4221 441.147 93.2743C444.858 98.058 446.742 103.354 446.798 109.163C446.798 109.232 446.798 109.3 446.798 109.368C446.798 109.368 446.798 109.402 446.798 109.471C446.798 117.467 444.69 123.685 440.473 128.127C436.312 132.57 431.73 134.859 426.726 134.996C426.613 134.996 426.501 134.996 426.388 134.996C426.332 134.996 426.276 134.996 426.22 134.996C425.32 134.996 424.364 134.893 423.352 134.688C422.34 134.483 421.328 134.176 420.316 133.766C416.942 132.33 413.85 129.665 411.039 125.77C408.284 121.874 406.906 116.681 406.906 110.188V110.086ZM421.918 110.086C421.918 111.999 422.396 113.503 423.352 114.596C424.364 115.621 425.461 116.168 426.641 116.236C426.697 116.236 426.726 116.236 426.726 116.236C426.782 116.236 426.838 116.236 426.894 116.236C428.075 116.236 429.143 115.724 430.099 114.699C431.111 113.605 431.617 112.102 431.617 110.188C431.617 108.548 431.196 107.284 430.352 106.395C429.565 105.439 428.665 104.858 427.653 104.653C427.541 104.584 427.4 104.55 427.232 104.55C427.119 104.55 427.007 104.55 426.894 104.55C426.838 104.55 426.782 104.55 426.726 104.55C426.726 104.55 426.697 104.55 426.641 104.55C425.461 104.619 424.364 105.165 423.352 106.19C422.396 107.147 421.918 108.48 421.918 110.188V110.086Z" fill="white"/>
<path d="M503.603 66H517.791V104.963C517.791 114.135 516.346 121.452 513.456 126.913C510.566 132.304 505.6 134.999 498.558 134.999C493.409 134.999 488.995 132.584 485.316 127.753C481.638 122.852 479.799 116.796 479.799 109.584C479.799 109.514 479.799 109.409 479.799 109.269C479.851 109.129 479.878 108.989 479.878 108.849C479.878 108.709 479.878 108.569 479.878 108.429C479.93 108.289 479.956 108.184 479.956 108.114C480.219 100.202 481.98 94.2859 485.238 90.3651C488.496 86.3742 492.673 84.3788 497.77 84.3788C498.243 84.3788 498.742 84.4138 499.268 84.4838C499.793 84.4838 500.319 84.5539 500.844 84.6939C501.054 84.6939 501.238 84.7289 501.396 84.7989C501.606 84.7989 501.79 84.7989 501.948 84.7989V102.758C501.79 102.758 501.606 102.758 501.396 102.758C501.238 102.758 501.081 102.723 500.923 102.653C500.608 102.653 500.292 102.653 499.977 102.653C499.714 102.583 499.478 102.548 499.268 102.548C497.376 102.548 495.931 103.248 494.933 104.648C493.934 106.048 493.435 108.009 493.435 110.529C493.435 112.35 493.908 113.82 494.854 114.94C495.8 115.99 496.851 116.515 498.007 116.515C498.112 116.515 498.217 116.515 498.322 116.515C498.427 116.515 498.532 116.515 498.637 116.515C499.846 116.305 500.976 115.57 502.027 114.31C503.077 112.98 503.603 111.159 503.603 108.849V66Z" fill="white"/>
<path d="M565.281 103.452L546.965 116.723L542.806 107.127L549.764 102.023C549.444 101.683 549.071 101.342 548.645 101.002C548.271 100.662 547.871 100.424 547.445 100.288C547.285 100.22 547.125 100.186 546.965 100.186C546.805 100.117 546.645 100.083 546.485 100.083C546.378 100.083 546.245 100.117 546.085 100.186C545.978 100.186 545.845 100.186 545.685 100.186C544.405 100.526 543.232 101.581 542.166 103.35C541.1 105.051 540.566 107.059 540.566 109.373C540.566 112.503 541.233 114.987 542.566 116.825C543.952 118.594 545.632 119.479 547.605 119.479C548.351 119.479 549.151 119.343 550.004 119.071C550.857 118.731 551.711 118.288 552.564 117.744C553.364 117.199 554.137 116.553 554.883 115.804C555.683 115.056 556.43 114.171 557.123 113.15L565.281 123.256C563.468 126.659 561.042 129.347 558.003 131.321C554.963 133.294 551.791 134.485 548.485 134.894C548.111 134.894 547.738 134.894 547.365 134.894C547.045 134.962 546.698 134.996 546.325 134.996C541.739 134.996 537.5 133.158 533.608 129.483C529.769 125.808 527.716 119.887 527.449 111.721C527.449 111.653 527.422 111.585 527.369 111.517C527.369 111.381 527.369 111.244 527.369 111.108C527.369 110.972 527.342 110.87 527.289 110.802C527.289 110.666 527.289 110.564 527.289 110.496C527.289 103.486 528.809 98.0078 531.848 94.0606C534.887 90.1134 538.22 87.6294 541.846 86.6086C542.486 86.4044 543.126 86.2683 543.766 86.2003C544.459 86.0641 545.125 85.9961 545.765 85.9961C551.471 85.9961 555.79 87.7655 558.722 91.3044C561.655 94.7752 563.841 98.8585 565.281 103.554V103.452Z" fill="white"/>
<path d="M598.279 133.846L601.645 77.6397C601.805 74.2841 602.927 71.5577 605.011 69.4605C607.148 67.3632 609.445 66.2097 611.902 66C612.009 66 612.116 66 612.223 66C612.383 66 612.517 66 612.624 66C612.73 66 612.837 66 612.944 66C613.051 66 613.158 66 613.265 66C615.348 66.1398 617.325 67.0486 619.195 68.7264C621.064 70.3343 622.293 72.851 622.881 76.2765L626.888 97.8781L631.455 74.5987C631.99 72.1519 633.245 70.1595 635.222 68.6216C637.252 67.0836 639.389 66.2796 641.633 66.2097C641.686 66.2097 641.739 66.2097 641.793 66.2097C641.846 66.2097 641.9 66.2097 641.953 66.2097C642.113 66.2097 642.274 66.2097 642.434 66.2097C642.594 66.2097 642.754 66.2097 642.915 66.2097C645.265 66.4894 647.429 67.6428 649.406 69.6702C651.382 71.6276 652.504 74.8084 652.771 79.2126L656.217 133.846H640.671L638.988 94.942L632.737 129.442C632.524 131.05 631.963 132.308 631.055 133.217C630.2 134.056 629.265 134.615 628.25 134.894C628.036 134.894 627.823 134.894 627.609 134.894C627.449 134.964 627.288 134.999 627.128 134.999C627.021 134.999 626.888 134.999 626.727 134.999C626.621 134.999 626.514 134.964 626.407 134.894C625.499 134.755 624.617 134.3 623.762 133.531C622.961 132.762 622.48 131.679 622.32 130.281L615.508 94.942L613.665 133.846H598.279Z" fill="white"/>
<path d="M689.963 116.045V134.577C689.677 134.716 689.361 134.786 689.017 134.786C688.673 134.786 688.358 134.786 688.071 134.786C687.498 134.856 686.953 134.891 686.437 134.891C685.921 134.961 685.434 134.996 684.975 134.996C679.184 134.996 674.368 132.832 670.526 128.504C666.684 124.177 664.764 118.244 664.764 110.705C664.764 102.539 666.885 96.3963 671.128 92.2781C675.371 88.0901 680.445 85.9961 686.351 85.9961C692.945 85.9961 698.076 88.4391 701.746 93.3251C705.416 98.1413 707.566 103.481 708.196 109.344C708.311 109.972 708.369 110.601 708.369 111.229C708.426 111.857 708.455 112.485 708.455 113.113V134.577H692.457V110.601C692.457 108.367 691.884 106.692 690.737 105.575C689.591 104.458 688.301 103.83 686.867 103.69C686.81 103.69 686.724 103.69 686.609 103.69C686.552 103.69 686.494 103.69 686.437 103.69C686.38 103.69 686.322 103.69 686.265 103.69C686.265 103.69 686.236 103.69 686.179 103.69C684.803 103.76 683.542 104.353 682.395 105.47C681.248 106.517 680.675 108.018 680.675 109.972C680.675 112.136 681.162 113.951 682.137 115.417C683.111 116.883 684.344 117.615 685.835 117.615C686.236 117.615 686.666 117.546 687.125 117.406C687.584 117.266 688.043 117.092 688.501 116.883C688.788 116.813 689.046 116.708 689.275 116.568C689.505 116.429 689.734 116.289 689.963 116.15V116.045Z" fill="white"/>
<path d="M737.338 134.996V107.738C737.338 106.395 737.095 105.334 736.609 104.557C736.123 103.779 735.61 103.355 735.07 103.284C735.016 103.284 734.962 103.284 734.908 103.284C734.908 103.284 734.881 103.284 734.827 103.284C734.719 103.284 734.611 103.284 734.503 103.284C734.449 103.284 734.368 103.319 734.26 103.39C733.719 103.602 733.206 104.132 732.72 104.981C732.234 105.759 731.991 106.713 731.991 107.844V134.996H717.004V106.147C717.004 99.4303 718.489 94.4809 721.46 91.2991C724.484 88.1173 727.806 86.385 731.424 86.1022C731.64 86.0314 731.856 85.9961 732.072 85.9961C732.288 85.9961 732.504 85.9961 732.72 85.9961C735.259 85.9961 737.635 86.6325 739.849 87.9052C742.118 89.1072 743.765 90.7334 744.791 92.7839C746.033 91.0162 747.6 89.6021 749.49 88.5415C751.38 87.4102 753.325 86.7032 755.323 86.4203C755.647 86.4203 755.944 86.4203 756.214 86.4203C756.538 86.3496 756.862 86.3143 757.186 86.3143C760.913 86.3143 764.315 87.8345 767.394 90.8748C770.526 93.9152 772.092 98.794 772.092 105.511V134.996H757.024V106.996C757.024 105.865 756.808 104.981 756.376 104.344C755.998 103.708 755.566 103.355 755.08 103.284C755.026 103.284 754.972 103.284 754.918 103.284C754.918 103.284 754.891 103.284 754.837 103.284C754.783 103.284 754.702 103.284 754.594 103.284C754.54 103.284 754.486 103.319 754.432 103.39C753.946 103.531 753.487 104.026 753.054 104.875C752.622 105.723 752.406 106.961 752.406 108.587V134.996H737.338Z" fill="white"/>
<path d="M780.641 110.086C780.641 103.594 782.496 97.9555 786.207 93.1718C789.918 88.388 794.5 85.9961 799.954 85.9961C806.251 85.9961 811.227 88.4221 814.882 93.2743C818.593 98.058 820.476 103.354 820.532 109.163C820.532 109.232 820.532 109.3 820.532 109.368C820.532 109.368 820.532 109.402 820.532 109.471C820.532 117.467 818.424 123.685 814.207 128.127C810.046 132.57 805.464 134.859 800.46 134.996C800.347 134.996 800.235 134.996 800.123 134.996C800.066 134.996 800.01 134.996 799.954 134.996C799.054 134.996 798.098 134.893 797.086 134.688C796.074 134.483 795.062 134.176 794.05 133.766C790.677 132.33 787.584 129.665 784.773 125.77C782.018 121.874 780.641 116.681 780.641 110.188V110.086ZM795.653 110.086C795.653 111.999 796.131 113.503 797.086 114.596C798.098 115.621 799.195 116.168 800.376 116.236C800.432 116.236 800.46 116.236 800.46 116.236C800.516 116.236 800.572 116.236 800.629 116.236C801.809 116.236 802.878 115.724 803.833 114.699C804.845 113.605 805.351 112.102 805.351 110.188C805.351 108.548 804.93 107.284 804.086 106.395C803.299 105.439 802.4 104.858 801.388 104.653C801.275 104.584 801.135 104.55 800.966 104.55C800.854 104.55 800.741 104.55 800.629 104.55C800.572 104.55 800.516 104.55 800.46 104.55C800.46 104.55 800.432 104.55 800.376 104.55C799.195 104.619 798.098 105.165 797.086 106.19C796.131 107.147 795.653 108.48 795.653 110.188V110.086Z" fill="white"/>
<path d="M829.08 135V105.457C829.08 99.6724 830.925 95.334 834.614 92.4417C838.303 89.4806 842.377 88 846.837 88C847.002 88 847.14 88 847.25 88C847.415 88 847.58 88 847.746 88C852.096 88.2066 856.088 89.8249 859.722 92.8549C863.356 95.8849 865.173 100.361 865.173 106.283V135H849.232V107.729C849.232 106.834 849.04 106.146 848.654 105.664C848.324 105.113 847.938 104.768 847.498 104.631C847.443 104.562 847.36 104.527 847.25 104.527C847.195 104.527 847.113 104.527 847.002 104.527C846.892 104.527 846.782 104.562 846.672 104.631C846.562 104.631 846.452 104.631 846.342 104.631C845.846 104.837 845.378 105.25 844.938 105.87C844.552 106.421 844.359 107.075 844.359 107.833V135H829.08Z" fill="white"/>
<path d="M897.277 116.045V134.577C897.009 134.716 896.714 134.786 896.393 134.786C896.071 134.786 895.776 134.786 895.508 134.786C894.972 134.856 894.463 134.891 893.981 134.891C893.498 134.961 893.043 134.996 892.614 134.996C887.2 134.996 882.698 132.832 879.107 128.504C875.516 124.177 873.721 118.244 873.721 110.705C873.721 102.539 875.704 96.3963 879.67 92.2781C883.636 88.0901 888.38 85.9961 893.9 85.9961C900.064 85.9961 904.861 88.4391 908.291 93.3251C911.721 98.1413 913.731 103.481 914.321 109.344C914.428 109.972 914.482 110.601 914.482 111.229C914.535 111.857 914.562 112.485 914.562 113.113V134.577H899.608V110.601C899.608 108.367 899.072 106.692 898 105.575C896.929 104.458 895.723 103.83 894.383 103.69C894.329 103.69 894.249 103.69 894.141 103.69C894.088 103.69 894.034 103.69 893.981 103.69C893.927 103.69 893.873 103.69 893.82 103.69C893.82 103.69 893.793 103.69 893.739 103.69C892.453 103.76 891.274 104.353 890.202 105.47C889.13 106.517 888.594 108.018 888.594 109.972C888.594 112.136 889.05 113.951 889.961 115.417C890.872 116.883 892.024 117.615 893.418 117.615C893.793 117.615 894.195 117.546 894.624 117.406C895.053 117.266 895.481 117.092 895.91 116.883C896.178 116.813 896.419 116.708 896.634 116.568C896.848 116.429 897.062 116.289 897.277 116.15V116.045Z" fill="white"/>
<path d="M924.061 134.995V67.9961H940.207V134.995H924.061Z" fill="white"/>
<path d="M143.433 41H61V99.3776H80.6269L112.815 118.836L158.349 94.887C162.275 92.6149 174.032 82.7732 171.696 64.9497C169.34 46.9872 158.349 40.9999 143.433 41Z" fill="white"/>
<path d="M75.1313 109.855H61V160H171.696V109.855H152.069L112.815 132.308L75.1313 109.855Z" fill="white"/>
</svg>
